Praise-Pro (Autosaved).glyphspackage
{
color = 0;
glyphname = exclam;
lastChange = "2022-06-01 02:09:47 +0000";
layers = (
{
background = {
shapes = (
{
closed = 1;
nodes = (
(195,165,o),
(207,168,o),
(212,175,cs),
(422,486,ls),
(424,489,o),
(425,491,o),
(425,494,cs),
(425,509,o),
(389,519,o),
(351,519,cs),
(312,519,o),
(270,508,o),
(261,484,cs),
(150,182,ls),
(146,171,o),
(164,165,o),
(182,165,cs)
);
},
{
closed = 1;
nodes = (
(148,-8,o),
(191,35,o),
(191,80,cs),
(191,106,o),
(176,124,o),
(151,124,cs),
(112,124,o),
(70,80,o),
(70,35,cs),
(70,9,o),
(86,-8,o),
(110,-8,cs)
);
}
);
};
layerId = "C623C401-2266-4A98-B253-3D45160C29C7";
shapes = (
{
closed = 1;
nodes = (
(195,165,o),
(207,168,o),
(212,175,cs),
(422,486,ls),
(424,489,o),
(425,491,o),
(425,494,cs),
(425,509,o),
(389,519,o),
(351,519,cs),
(312,519,o),
(270,508,o),
(261,484,cs),
(150,182,ls),
(146,171,o),
(164,165,o),
(182,165,cs)
);
},
{
closed = 1;
nodes = (
(148,-8,o),
(191,35,o),
(191,80,cs),
(191,106,o),
(176,124,o),
(151,124,cs),
(112,124,o),
(70,80,o),
(70,35,cs),
(70,9,o),
(86,-8,o),
(110,-8,cs)
);
}
);
width = 290;
}
);
note = exclam;
unicode = 33;
}
{
color = 3;
glyphname = numbersign;
lastChange = "2022-04-08 20:31:11 +0000";
layers = (
{
background = {
shapes = (
{
closed = 1;
nodes = (
(334,138,o),
(359,144,o),
(361,148,cs),
(418,286,l),
(522,286,ls),
(528,286,o),
(559,323,o),
(559,339,cs),
(559,343,o),
(557,346,o),
(551,346,cs),
(443,346,l),
(486,449,l),
(578,449,ls),
(584,449,o),
(614,486,o),
(614,502,cs),
(614,506,o),
(612,509,o),
(606,509,cs),
(511,509,l),
(552,609,ls),
(555,615,o),
(544,618,o),
(531,618,cs),
(508,618,o),
(477,611,o),
(474,604,cs),
(435,509,l),
(335,509,l),
(382,622,ls),
(385,628,o),
(375,631,o),
(361,631,cs),
(339,631,o),
(307,624,o),
(304,616,cs),
(260,509,l),
(182,509,ls),
(169,509,o),
(125,449,o),
(142,449,cs),
(235,449,l),
(192,346,l),
(127,346,ls),
(114,346,o),
(69,286,o),
(87,286,cs),
(167,286,l),
(117,165,ls),
(113,155,o),
(126,151,o),
(143,151,cs),
(164,151,o),
(189,157,o),
(191,161,cs),
(243,286,l),
(342,286,l),
(287,152,ls),
(283,142,o),
(296,138,o),
(313,138,cs)
);
},
{
closed = 1;
nodes = (
(310,449,l),
(410,449,l),
(367,346,l),
(268,346,l)
);
}
);
};
layerId = "C623C401-2266-4A98-B253-3D45160C29C7";
shapes = (
{
closed = 1;
nodes = (
(334,138,o),
(359,144,o),
(361,148,cs),
(418,286,l),
(522,286,ls),
(528,286,o),
(559,323,o),
(559,339,cs),
(559,343,o),
(557,346,o),
(551,346,cs),
(443,346,l),
(486,449,l),
(578,449,ls),
(584,449,o),
(614,486,o),
(614,502,cs),
(614,506,o),
(612,509,o),
(606,509,cs),
(511,509,l),
(552,609,ls),
(555,615,o),
(544,618,o),
(531,618,cs),
(508,618,o),
(477,611,o),
(474,604,cs),
(435,509,l),
(335,509,l),
(382,622,ls),
(385,628,o),
(375,631,o),
(361,631,cs),
(339,631,o),
(307,624,o),
(304,616,cs),
(260,509,l),
(182,509,ls),
(169,509,o),
(125,449,o),
(142,449,cs),
(235,449,l),
(192,346,l),
(127,346,ls),
(114,346,o),
(69,286,o),
(87,286,cs),
(167,286,l),
(117,165,ls),
(113,155,o),
(126,151,o),
(143,151,cs),
(164,151,o),
(189,157,o),
(191,161,cs),
(243,286,l),
(342,286,l),
(287,152,ls),
(283,142,o),
(296,138,o),
(313,138,cs)
);
},
{
closed = 1;
nodes = (
(310,449,l),
(410,449,l),
(367,346,l),
(268,346,l)
);
}
);
width = 578;
}
);
note = numbersign;
unicode = 35;
}
{
color = 3;
glyphname = dollar;
lastChange = "2022-04-08 20:31:11 +0000";
layers = (
{
background = {
shapes = (
{
closed = 1;
nodes = (
(276,2,o),
(349,52,o),
(349,131,cs),
(349,135,o),
(348,139,o),
(348,144,cs),
(337,246,o),
(280,309,o),
(248,402,cs),
(242,417,o),
(239,436,o),
(239,454,cs),
(239,485,o),
(249,512,o),
(278,512,cs),
(301,512,o),
(313,484,o),
(316,457,cs),
(321,411,o),
(332,380,o),
(364,380,cs),
(390,380,o),
(400,405,o),
(400,438,cs),
(400,444,o),
(400,450,o),
(399,457,cs),
(395,499,o),
(369,528,o),
(335,543,c),
(289,557,l),
(188,557,o),
(116,491,o),
(121,397,cs),
(128,279,o),
(216,224,o),
(235,118,cs),
(236,112,o),
(237,106,o),
(237,101,cs),
(237,71,o),
(218,56,o),
(196,56,cs),
(181,56,o),
(164,64,o),
(149,79,cs),
(110,118,o),
(99,173,o),
(99,214,cs),
(99,229,o),
(101,242,o),
(103,252,c),
(97,253,o),
(90,253,o),
(85,253,cs),
(30,253,o),
(12,212,o),
(12,173,cs),
(12,110,o),
(59,45,o),
(123,18,cs),
(131,14,o),
(179,6,o),
(187,4,cs),
(195,2,o),
(202,2,o),
(210,2,cs)
);
},
{
closed = 1;
nodes = (
(112,-108,l),
(352,633,l),
(321,633,l),
(81,-108,l)
);
}
);
};
layerId = "C623C401-2266-4A98-B253-3D45160C29C7";
shapes = (
{
closed = 1;
nodes = (
(276,2,o),
(349,52,o),
(349,131,cs),
(349,135,o),
(348,139,o),
(348,144,cs),
(337,246,o),
(280,309,o),
(248,402,cs),
(242,417,o),
(239,436,o),
(239,454,cs),
(239,485,o),
(249,512,o),
(278,512,cs),
(301,512,o),
(313,484,o),
(316,457,cs),
(321,411,o),
(332,380,o),
(364,380,cs),
(390,380,o),
(400,405,o),
(400,438,cs),
(400,444,o),
(400,450,o),
(399,457,cs),
(395,499,o),
(369,528,o),
(335,543,c),
(289,557,l),
(188,557,o),
(116,491,o),
(121,397,cs),
(128,280,o),
(216,224,o),
(235,118,cs),
(236,112,o),
(237,106,o),
(237,101,cs),
(237,71,o),
(218,56,o),
(196,56,cs),
(181,56,o),
(164,64,o),
(149,79,cs),
(110,118,o),
(99,173,o),
(99,214,cs),
(99,229,o),
(101,242,o),
(103,252,c),
(97,253,o),
(90,253,o),
(85,253,cs),
(30,253,o),
(12,212,o),
(12,173,cs),
(12,110,o),
(59,45,o),
(123,18,cs),
(131,14,o),
(179,6,o),
(187,4,cs),
(195,2,o),
(202,2,o),
(210,2,cs)
);
},
{
closed = 1;
nodes = (
(112,-108,l),
(352,633,l),
(321,633,l),
(81,-108,l)
);
}
);
width = 422;
}
);
note = dollar;
unicode = 36;
}
{
color = 0;
glyphname = ampersand;
lastChange = "2022-06-01 02:09:47 +0000";
layers = (
{
background = {
shapes = (
{
closed = 1;
nodes = (
(221,-1,o),
(273,6,o),
(329,46,cs),
(383,85,o),
(438,152,o),
(449,204,c),
(500,201,o),
(548,215,o),
(575,272,cs),
(578,277,o),
(578,282,o),
(572,277,cs),
(567,273,o),
(558,272,o),
(546,272,cs),
(532,272,o),
(515,274,o),
(498,277,cs),
(474,281,o),
(414,301,o),
(396,301,cs),
(369,301,o),
(353,276,o),
(333,216,c),
(338,217,o),
(346,218,o),
(353,218,cs),
(360,218,l),
(373,215,o),
(385,212,o),
(398,210,c),
(354,134,o),
(282,40,o),
(217,40,cs),
(189,40,o),
(177,57,o),
(177,83,cs),
(177,157,o),
(277,306,o),
(383,343,cs),
(392,346,o),
(396,351,o),
(396,355,cs),
(396,370,o),
(359,386,o),
(332,384,c),
(300,395,o),
(289,411,o),
(289,428,cs),
(289,462,o),
(335,500,o),
(360,513,cs),
(382,524,o),
(410,535,o),
(429,535,cs),
(440,535,o),
(448,531,o),
(448,520,cs),
(448,510,o),
(442,495,o),
(428,474,cs),
(423,467,o),
(421,459,o),
(421,452,cs),
(421,440,o),
(428,431,o),
(438,431,cs),
(448,431,o),
(462,440,o),
(475,465,cs),
(487,487,o),
(493,508,o),
(493,526,cs),
(493,576,o),
(448,606,o),
(369,606,cs),
(296,605,o),
(213,578,o),
(185,525,cs),
(176,509,o),
(172,494,o),
(172,480,cs),
(172,421,o),
(239,381,o),
(299,376,c),
(136,326,o),
(59,208,o),
(59,115,cs),
(59,50,o),
(100,-1,o),
(177,-1,cs)
);
}
);
};
layerId = "C623C401-2266-4A98-B253-3D45160C29C7";
shapes = (
{
closed = 1;
nodes = (
(221,-1,o),
(273,6,o),
(329,46,cs),
(383,85,o),
(438,152,o),
(449,204,c),
(500,201,o),
(548,215,o),
(575,272,cs),
(578,277,o),
(578,282,o),
(572,277,cs),
(567,273,o),
(558,272,o),
(546,272,cs),
(532,272,o),
(515,274,o),
(498,277,cs),
(474,281,o),
(414,301,o),
(396,301,cs),
(369,301,o),
(353,276,o),
(333,216,c),
(338,217,o),
(346,218,o),
(353,218,cs),
(360,218,l),
(373,215,o),
(385,212,o),
(398,210,c),
(354,134,o),
(282,40,o),
(217,40,cs),
(189,40,o),
(177,57,o),
(177,83,cs),
(177,157,o),
(277,306,o),
(383,343,cs),
(392,346,o),
(396,351,o),
(396,355,cs),
(396,370,o),
(359,386,o),
(332,384,c),
(300,395,o),
(289,411,o),
(289,428,cs),
(289,462,o),
(335,500,o),
(360,513,cs),
(382,524,o),
(410,535,o),
(429,535,cs),
(440,535,o),
(448,531,o),
(448,520,cs),
(448,510,o),
(442,495,o),
(428,474,cs),
(423,467,o),
(421,459,o),
(421,452,cs),
(421,440,o),
(428,431,o),
(438,431,cs),
(448,431,o),
(462,440,o),
(475,465,cs),
(487,487,o),
(493,508,o),
(493,526,cs),
(493,576,o),
(448,606,o),
(369,606,cs),
(296,605,o),
(213,578,o),
(185,525,cs),
(176,509,o),
(172,494,o),
(172,480,cs),
(172,421,o),
(239,381,o),
(299,376,c),
(136,326,o),
(59,208,o),
(59,115,cs),
(59,50,o),
(100,-1,o),
(177,-1,cs)
);
}
);
width = 522;
}
);
note = ampersand;
unicode = 38;
}
{
color = 0;
glyphname = quotesingle;
lastChange = "2022-06-01 02:09:47 +0000";
layers = (
{
background = {
shapes = (
{
closed = 1;
nodes = (
(178,425,o),
(190,427,o),
(192,430,cs),
(203,448,o),
(266,549,o),
(287,576,cs),
(291,582,o),
(274,585,o),
(254,585,cs),
(234,585,o),
(211,582,o),
(209,574,cs),
(201,546,o),
(162,459,o),
(152,432,cs),
(150,427,o),
(158,425,o),
(168,425,cs)
);
}
);
};
layerId = "C623C401-2266-4A98-B253-3D45160C29C7";
shapes = (
{
closed = 1;
nodes = (
(178,425,o),
(190,427,o),
(192,430,cs),
(203,448,o),
(266,549,o),
(287,576,cs),
(291,582,o),
(274,585,o),
(254,585,cs),
(234,585,o),
(211,582,o),
(209,574,cs),
(201,546,o),
(162,459,o),
(152,432,cs),
(150,427,o),
(158,425,o),
(168,425,cs)
);
}
);
width = 218;
}
);
note = quotesingle;
unicode = 39;
}
{
color = 0;
glyphname = parenleft;
lastChange = "2022-06-01 02:09:47 +0000";
layers = (
{
background = {
shapes = (
{
closed = 1;
nodes = (
(184,-83,o),
(201,-80,o),
(220,-71,cs),
(232,-65,o),
(243,-59,o),
(255,-50,cs),
(261,-46,o),
(264,-40,o),
(264,-35,cs),
(264,-29,o),
(259,-23,o),
(250,-23,cs),
(247,-23,o),
(244,-24,o),
(240,-25,cs),
(230,-29,o),
(222,-31,o),
(214,-31,cs),
(179,-31,o),
(163,6,o),
(163,62,cs),
(163,117,o),
(180,191,o),
(209,264,cs),
(235,329,o),
(350,558,o),
(452,558,cs),
(457,558,o),
(462,557,o),
(467,556,cs),
(471,555,o),
(474,554,o),
(477,554,cs),
(488,554,o),
(493,561,o),
(493,568,cs),
(493,577,o),
(487,587,o),
(476,592,cs),
(455,602,o),
(435,606,o),
(415,606,cs),
(215,606,o),
(48,284,o),
(48,81,cs),
(48,18,o),
(64,-34,o),
(101,-60,cs),
(120,-74,o),
(143,-83,o),
(168,-83,cs)
);
}
);
};
layerId = "C623C401-2266-4A98-B253-3D45160C29C7";
shapes = (
{
closed = 1;
nodes = (
(184,-83,o),
(201,-80,o),
(220,-71,cs),
(232,-65,o),
(243,-59,o),
(255,-50,cs),
(261,-46,o),
(264,-40,o),
(264,-35,cs),
(264,-29,o),
(259,-23,o),
(250,-23,cs),
(247,-23,o),
(244,-24,o),
(240,-25,cs),
(230,-29,o),
(222,-31,o),
(214,-31,cs),
(179,-31,o),
(163,6,o),
(163,62,cs),
(163,117,o),
(180,191,o),
(209,264,cs),
(235,329,o),
(350,558,o),
(452,558,cs),
(457,558,o),
(462,557,o),
(467,556,cs),
(471,555,o),
(474,554,o),
(477,554,cs),
(488,554,o),
(493,561,o),
(493,568,cs),
(493,577,o),
(487,587,o),
(476,592,cs),
(455,602,o),
(435,606,o),
(415,606,cs),
(215,606,o),
(48,284,o),
(48,81,cs),
(48,18,o),
(64,-34,o),
(101,-60,cs),
(120,-74,o),
(143,-83,o),
(168,-83,cs)
);
}
);
width = 333;
}
);
note = parenleft;
unicode = 40;
}
{
color = 0;
glyphname = parenright;
lastChange = "2022-06-01 02:09:47 +0000";
layers = (
{
background = {
shapes = (
{
closed = 1;
nodes = (
(257,-82,o),
(424,240,o),
(424,443,cs),
(424,506,o),
(408,558,o),
(371,584,cs),
(352,598,o),
(329,607,o),
(304,607,cs),
(288,607,o),
(271,604,o),
(252,595,cs),
(240,589,o),
(229,583,o),
(217,574,cs),
(211,570,o),
(208,564,o),
(208,559,cs),
(208,553,o),
(213,547,o),
(222,547,cs),
(225,547,o),
(228,548,o),
(232,549,cs),
(242,553,o),
(250,555,o),
(258,555,cs),
(293,555,o),
(309,518,o),
(309,462,cs),
(309,407,o),
(292,333,o),
(263,260,cs),
(237,195,o),
(122,-34,o),
(20,-34,cs),
(15,-34,o),
(10,-33,o),
(5,-32,cs),
(1,-31,o),
(-2,-30,o),
(-5,-30,cs),
(-16,-30,o),
(-21,-37,o),
(-21,-44,cs),
(-21,-53,o),
(-15,-63,o),
(-4,-68,cs),
(17,-78,o),
(37,-82,o),
(57,-82,cs)
);
}
);
};
layerId = "C623C401-2266-4A98-B253-3D45160C29C7";
shapes = (
{
closed = 1;
nodes = (
(257,-82,o),
(424,240,o),
(424,443,cs),
(424,506,o),
(408,558,o),
(371,584,cs),
(352,598,o),
(329,607,o),
(304,607,cs),
(288,607,o),
(271,604,o),
(252,595,cs),
(240,589,o),
(229,583,o),
(217,574,cs),
(211,570,o),
(208,564,o),
(208,559,cs),
(208,553,o),
(213,547,o),
(222,547,cs),
(225,547,o),
(228,548,o),
(232,549,cs),
(242,553,o),
(250,555,o),
(258,555,cs),
(293,555,o),
(309,518,o),
(309,462,cs),
(309,407,o),
(292,333,o),
(263,260,cs),
(237,195,o),
(122,-34,o),
(20,-34,cs),
(15,-34,o),
(10,-33,o),
(5,-32,cs),
(1,-31,o),
(-2,-30,o),
(-5,-30,cs),
(-16,-30,o),
(-21,-37,o),
(-21,-44,cs),
(-21,-53,o),
(-15,-63,o),
(-4,-68,cs),
(17,-78,o),
(37,-82,o),
(57,-82,cs)
);
}
);
width = 404;
}
);
note = parenright;
unicode = 41;
}
{
color = 0;
glyphname = asterisk;
lastChange = "2022-06-01 02:09:47 +0000";
layers = (
{
background = {
shapes = (
{
closed = 1;
nodes = (
(368,245,o),
(417,275,o),
(410,283,cs),
(322,393,l),
(437,412,ls),
(447,414,o),
(463,459,o),
(463,479,cs),
(463,486,o),
(461,489,o),
(457,488,cs),
(324,446,l),
(390,559,ls),
(394,566,o),
(376,569,o),
(356,569,cs),
(332,569,o),
(305,565,o),
(303,558,cs),
(269,443,l),
(167,507,ls),
(156,514,o),
(127,437,o),
(136,434,cs),
(242,395,l),
(124,271,ls),
(115,262,o),
(157,253,o),
(183,253,cs),
(193,253,o),
(200,254,o),
(202,257,cs),
(276,363,l),
(339,248,ls),
(340,246,o),
(343,245,o),
(347,245,cs)
);
}
);
};
layerId = "C623C401-2266-4A98-B253-3D45160C29C7";
shapes = (
{
closed = 1;
nodes = (
(368,245,o),
(417,275,o),
(410,283,cs),
(322,393,l),
(437,412,ls),
(447,414,o),
(462,459,o),
(462,478,cs),
(462,484,o),
(461,488,o),
(458,488,cs),
(457,488,l),
(324,446,l),
(390,559,ls),
(394,566,o),
(376,569,o),
(356,569,cs),
(332,569,o),
(305,565,o),
(303,558,cs),
(269,443,l),
(167,507,ls),
(156,514,o),
(127,437,o),
(136,434,cs),
(242,395,l),
(124,271,ls),
(115,262,o),
(157,253,o),
(183,253,cs),
(193,253,o),
(200,254,o),
(202,257,cs),
(276,363,l),
(339,248,ls),
(340,246,o),
(343,245,o),
(347,245,cs)
);
}
);
width = 449;
}
);
note = asterisk;
unicode = 42;
}
{
color = 0;
glyphname = plus;
lastChange = "2022-06-01 02:09:47 +0000";
layers = (
{
background = {
shapes = (
{
closed = 1;
nodes = (
(207,70,o),
(234,75,o),
(236,80,cs),
(301,205,l),
(440,205,ls),
(448,205,o),
(478,247,o),
(478,267,cs),
(478,273,o),
(475,277,o),
(468,277,cs),
(337,277,l),
(397,396,ls),
(400,403,o),
(386,406,o),
(368,406,cs),
(342,406,o),
(307,400,o),
(302,391,cs),
(245,277,l),
(127,277,ls),
(112,277,o),
(65,205,o),
(85,205,cs),
(209,205,l),
(149,88,ls),
(142,75,o),
(161,70,o),
(183,70,cs)
);
}
);
};
layerId = "C623C401-2266-4A98-B253-3D45160C29C7";
shapes = (
{
closed = 1;
nodes = (
(207,70,o),
(234,75,o),
(236,80,cs),
(301,205,l),
(440,205,ls),
(448,205,o),
(478,247,o),
(478,267,cs),
(478,273,o),
(475,277,o),
(468,277,cs),
(337,277,l),
(397,396,ls),
(400,403,o),
(386,406,o),
(368,406,cs),
(342,406,o),
(307,400,o),
(302,391,cs),
(245,277,l),
(127,277,ls),
(112,277,o),
(65,205,o),
(85,205,cs),
(209,205,l),
(149,88,ls),
(142,75,o),
(161,70,o),
(183,70,cs)
);
}
);
width = 528;
}
);
note = plus;
unicode = 43;
}
{
color = 3;
glyphname = comma;
lastChange = "2022-04-08 20:31:11 +0000";
layers = (
{
background = {
shapes = (
{
closed = 1;
nodes = (
(46,-108,o),
(48,-108,o),
(50,-107,cs),
(120,-75,o),
(191,-3,o),
(191,66,cs),
(191,92,o),
(177,109,o),
(154,109,cs),
(120,109,o),
(82,70,o),
(82,30,cs),
(82,9,o),
(93,-6,o),
(112,-8,c),
(97,-39,o),
(67,-75,o),
(29,-92,cs),
(19,-96,o),
(33,-108,o),
(45,-108,cs)
);
}
);
};
layerId = "C623C401-2266-4A98-B253-3D45160C29C7";
shapes = (
{
closed = 1;
nodes = (
(46,-108,o),
(48,-108,o),
(50,-107,cs),
(120,-75,o),
(191,-3,o),
(191,66,cs),
(191,92,o),
(177,109,o),
(154,109,cs),
(120,109,o),
(82,70,o),
(82,30,cs),
(82,9,o),
(93,-6,o),
(112,-8,c),
(97,-39,o),
(67,-75,o),
(29,-92,cs),
(19,-96,o),
(33,-108,o),
(45,-108,cs)
);
}
);
width = 260;
}
);
note = comma;
unicode = 44;
}
{
color = 0;
glyphname = hyphen;
lastChange = "2022-06-01 02:09:47 +0000";
layers = (
{
background = {
shapes = (
{
closed = 1;
nodes = (
(380,240,ls),
(386,240,o),
(411,275,o),
(411,291,cs),
(411,297,o),
(408,300,o),
(402,300,cs),
(190,300,ls),
(177,300,o),
(139,240,o),
(156,240,cs)
);
}
);
};
layerId = "C623C401-2266-4A98-B253-3D45160C29C7";
shapes = (
{
closed = 1;
nodes = (
(380,240,ls),
(386,240,o),
(411,275,o),
(411,291,cs),
(411,297,o),
(408,300,o),
(402,300,cs),
(190,300,ls),
(177,300,o),
(139,240,o),
(156,240,cs)
);
}
);
width = 409;
}
);
note = hyphen;
unicode = 45;
}
{
color = 3;
glyphname = period;
lastChange = "2022-04-08 20:31:11 +0000";
layers = (
{
background = {
shapes = (
{
closed = 1;
nodes = (
(185,-6,o),
(223,31,o),
(223,72,cs),
(223,95,o),
(209,111,o),
(188,111,cs),
(154,111,o),
(116,72,o),
(116,32,cs),
(116,9,o),
(130,-6,o),
(152,-6,cs)
);
}
);
};
layerId = "C623C401-2266-4A98-B253-3D45160C29C7";
shapes = (
{
closed = 1;
nodes = (
(185,-6,o),
(223,31,o),
(223,72,cs),
(223,95,o),
(209,111,o),
(188,111,cs),
(154,111,o),
(116,72,o),
(116,32,cs),
(116,9,o),
(130,-6,o),
(152,-6,cs)
);
}
);
width = 285;
}
);
note = period;
unicode = 46;
}
{
color = 0;
glyphname = slash;
lastChange = "2022-06-01 02:09:47 +0000";
layers = (
{
background = {
shapes = (
{
closed = 1;
nodes = (
(65,-49,l),
(581,692,l),
(513,692,l),
(-2,-49,l)
);
}
);
};
layerId = "C623C401-2266-4A98-B253-3D45160C29C7";
shapes = (
{
closed = 1;
nodes = (
(65,-49,l),
(581,692,l),
(513,692,l),
(-2,-49,l)
);
}
);
width = 582;
}
);
note = slash;
unicode = 47;
}
{
color = 3;
glyphname = zero;
lastChange = "2022-04-08 20:31:11 +0000";
layers = (
{
background = {
shapes = (
{
closed = 1;
nodes = (
(202,-7,o),
(243,7,o),
(273,29,cs),
(328,71,o),
(368,139,o),
(397,202,cs),
(437,293,o),
(464,386,o),
(464,444,cs),
(464,537,o),
(400,547,o),
(334,547,cs),
(169,547,o),
(34,289,o),
(34,125,cs),
(34,49,o),
(68,-7,o),
(161,-7,cs)
);
},
{
closed = 1;
nodes = (
(138,29,o),
(132,45,o),
(132,68,cs),
(132,97,o),
(141,137,o),
(154,175,cs),
(175,238,o),
(280,515,o),
(346,515,cs),
(359,515,o),
(364,502,o),
(364,481,cs),
(364,446,o),
(350,390,o),
(327,328,cs),
(278,190,o),
(194,29,o),
(153,29,cs)
);
}
);
};
layerId = "C623C401-2266-4A98-B253-3D45160C29C7";
shapes = (
{
closed = 1;
nodes = (
(202,-7,o),
(243,7,o),
(273,29,cs),
(328,71,o),
(368,139,o),
(397,202,cs),
(437,293,o),
(464,386,o),
(464,444,cs),
(464,537,o),
(400,547,o),
(334,547,cs),
(169,547,o),
(34,289,o),
(34,125,cs),
(34,49,o),
(68,-7,o),
(161,-7,cs)
);
},
{
closed = 1;
nodes = (
(138,29,o),
(132,45,o),
(132,68,cs),
(132,97,o),
(141,137,o),
(154,175,cs),
(175,238,o),
(280,515,o),
(346,515,cs),
(359,515,o),
(364,502,o),
(364,481,cs),
(364,446,o),
(350,390,o),
(327,328,cs),
(278,190,o),
(194,29,o),
(153,29,cs)
);
}
);
width = 439;
}
);
note = zero;
unicode = 48;
}
{
color = 3;
glyphname = one;
lastChange = "2022-04-08 20:31:11 +0000";
layers = (
{
background = {
shapes = (
{
closed = 1;
nodes = (
(204,140,o),
(373,477,o),
(437,520,cs),
(444,525,o),
(449,530,o),
(449,534,cs),
(449,537,o),
(446,540,o),
(436,542,cs),
(414,546,o),
(395,548,o),
(378,548,cs),
(329,548,o),
(297,532,o),
(265,498,cs),
(225,454,o),
(169,402,o),
(69,317,cs),
(63,312,o),
(61,305,o),
(61,298,cs),
(61,285,o),
(70,273,o),
(80,282,cs),
(126,322,o),
(161,353,o),
(199,381,c),
(143,273,o),
(84,133,o),
(73,75,cs),
(71,67,o),
(71,59,o),
(71,53,cs),
(71,-2,o),
(122,0,o),
(174,0,c)
);
}
);
};
layerId = "C623C401-2266-4A98-B253-3D45160C29C7";
shapes = (
{
closed = 1;
nodes = (
(204,140,o),
(373,477,o),
(437,520,cs),
(444,525,o),
(449,530,o),
(449,534,cs),
(449,537,o),
(446,540,o),
(436,542,cs),
(414,546,o),
(395,548,o),
(378,548,cs),
(329,548,o),
(297,532,o),
(265,498,cs),
(225,454,o),
(169,402,o),
(69,317,cs),
(63,312,o),
(61,305,o),
(61,298,cs),
(61,288,o),
(66,279,o),
(73,279,cs),
(75,279,o),
(78,280,o),
(80,282,cs),
(126,322,o),
(161,353,o),
(199,381,c),
(143,273,o),
(84,133,o),
(73,75,cs),
(71,67,o),
(71,59,o),
(71,53,cs),
(71,-2,o),
(122,0,o),
(174,0,c)
);
}
);
width = 309;
}
);
note = one;
unicode = 49;
}
{
color = 4;
glyphname = two;
lastChange = "2022-10-06 02:16:46 +0000";
layers = (
{
background = {
shapes = (
{
closed = 1;
nodes = (
(310,-12,o),
(318,-10,o),
(320,-2,cs),
(324,11,o),
(326,23,o),
(326,34,cs),
(326,80,o),
(285,99,o),
(229,99,cs),
(190,99,o),
(120,89,o),
(79,73,c),
(176,134,o),
(439,302,o),
(439,459,cs),
(439,509,o),
(411,549,o),
(332,549,cs),
(258,549,o),
(199,509,o),
(148,457,cs),
(127,436,o),
(118,415,o),
(118,399,cs),
(118,382,o),
(128,370,o),
(142,370,cs),
(172,370,o),
(172,390,o),
(202,436,cs),
(219,463,o),
(258,489,o),
(285,489,cs),
(301,489,o),
(313,479,o),
(313,454,cs),
(313,331,o),
(137,171,o),
(28,92,cs),
(7,76,o),
(-10,40,o),
(-10,18,cs),
(-10,7,o),
(-6,0,o),
(3,0,cs),
(200,0,ls),
(259,0,o),
(301,-1,o),
(307,-8,cs)
);
}
);
};
layerId = "C623C401-2266-4A98-B253-3D45160C29C7";
shapes = (
{
closed = 1;
nodes = (
(85,77,l),
(186,141,o),
(439,305,o),
(439,459,cs),
(439,509,o),
(411,549,o),
(332,549,cs),
(258,549,o),
(199,509,o),
(148,457,cs),
(127,436,o),
(118,415,o),
(118,399,cs),
(118,382,o),
(128,370,o),
(142,370,cs),
(156,370,o),
(164,375,o),
(171,385,cs),
(179,395,o),
(186,412,o),
(202,436,cs),
(219,463,o),
(258,489,o),
(285,489,cs),
(301,489,o),
(313,479,o),
(313,454,cs),
(313,331,o),
(137,171,o),
(28,92,cs),
(7,76,o),
(-10,40,o),
(-10,18,cs),
(-10,7,o),
(-6,0,o),
(3,0,cs),
(200,0,ls),
(237,0,o),
(279,0,o),
(298,-4,cs),
(310,-7,o),
(311,-10,o),
(314,-10,cs),
(316,-10,o),
(318,-8,o),
(320,-2,cs),
(324,9,o),
(326,23,o),
(326,34,cs),
(326,80,o),
(285,99,o),
(229,99,cs),
(192,99,o),
(127,90,o),
(86,75,c)
);
}
);
width = 370;
}
);
note = two;
unicode = 50;
}
{
color = 4;
glyphname = three;
lastChange = "2022-10-06 02:16:46 +0000";
layers = (
{
background = {
shapes = (
{
closed = 1;
nodes = (
(190,-9,o),
(226,-3,o),
(253,8,cs),
(334,42,o),
(405,153,o),
(405,228,cs),
(405,271,o),
(382,302,o),
(327,302,cs),
(322,302,o),
(317,301,o),
(312,301,c),
(346,321,o),
(397,356,o),
(429,396,cs),
(451,422,o),
(461,447,o),
(461,470,cs),
(461,513,o),
(421,546,o),
(345,550,cs),
(279,553,o),
(213,528,o),
(148,457,cs),
(133,441,o),
(127,424,o),
(127,410,cs),
(127,391,o),
(138,377,o),
(152,377,cs),
(160,377,o),
(170,382,o),
(178,394,cs),
(192,416,o),
(260,500,o),
(322,500,cs),
(347,500,o),
(355,489,o),
(355,475,cs),
(355,454,o),
(337,426,o),
(325,414,cs),
(299,384,o),
(236,321,o),
(188,318,cs),
(166,316,o),
(156,302,o),
(156,290,cs),
(156,280,o),
(164,271,o),
(179,271,cs),
(183,271,o),
(188,271,o),
(193,273,cs),
(204,277,o),
(231,288,o),
(253,288,cs),
(272,288,o),
(288,279,o),
(288,250,cs),
(288,187,o),
(187,35,o),
(114,43,cs),
(85,47,o),
(75,66,o),
(75,90,cs),
(75,120,o),
(92,156,o),
(103,171,cs),
(109,179,o),
(98,187,o),
(84,187,cs),
(80,187,o),
(75,187,o),
(71,185,cs),
(37,173,o),
(12,140,o),
(12,87,cs),
(12,17,o),
(83,-9,o),
(155,-9,cs)
);
}
);
};
layerId = "C623C401-2266-4A98-B253-3D45160C29C7";
shapes = (
{
closed = 1;
nodes = (
(224,-9,o),
(268,8,o),
(312,47,cs),
(366,95,o),
(405,174,o),
(405,228,cs),
(405,285,o),
(369,304,o),
(312,304,c),
(346,321,o),
(397,356,o),
(429,396,cs),
(451,422,o),
(461,447,o),
(461,470,cs),
(461,515,o),
(418,550,o),
(335,550,cs),
(272,550,o),
(210,524,o),
(148,457,cs),
(133,441,o),
(127,424,o),
(127,410,cs),
(127,391,o),
(138,377,o),
(152,377,cs),
(161,377,o),
(170,382,o),
(185,404,cs),
(225,463,o),
(280,500,o),
(322,500,cs),
(347,500,o),
(355,489,o),
(355,475,cs),
(355,454,o),
(337,426,o),
(325,414,cs),
(299,384,o),
(236,321,o),
(188,318,cs),
(166,316,o),
(156,302,o),
(156,290,cs),
(156,280,o),
(164,271,o),
(179,271,cs),
(201,271,o),
(222,288,o),
(253,288,cs),
(272,288,o),
(288,279,o),
(288,250,cs),
(288,187,o),
(191,42,o),
(118,42,cs),
(89,42,o),
(75,65,o),
(75,89,cs),
(75,110,o),
(83,133,o),
(88,144,cs),
(99,167,o),
(105,172,o),
(105,176,cs),
(105,182,o),
(94,187,o),
(84,187,cs),
(48,187,o),
(12,149,o),
(12,87,cs),
(12,25,o),
(73,-9,o),
(155,-9,cs)
);
}
);
width = 418;
}
);
note = three;
unicode = 51;
}
{
color = 0;
glyphname = four;
lastChange = "2022-06-01 02:09:47 +0000";
layers = (
{
background = {
shapes = (
{
closed = 1;
nodes = (
(262,41,o),
(282,98,o),
(309,161,c),
(346,165,o),
(376,169,o),
(390,171,cs),
(404,173,o),
(427,200,o),
(427,215,cs),
(427,222,o),
(423,226,o),
(413,226,cs),
(401,226,o),
(379,225,o),
(337,225,c),
(399,358,o),
(477,494,o),
(516,520,cs),
(523,525,o),
(528,530,o),
(528,534,cs),
(528,537,o),
(525,540,o),
(515,542,cs),
(497,545,o),
(480,547,o),
(464,547,cs),
(407,547,o),
(365,527,o),
(330,493,cs),
(311,474,o),
(98,280,o),
(28,224,cs),
(23,220,o),
(20,214,o),
(18,207,c),
(13,198,o),
(9,188,o),
(9,179,cs),
(9,168,o),
(14,158,o),
(24,152,cs),
(28,149,o),
(45,146,o),
(83,146,cs),
(106,146,o),
(137,147,o),
(178,150,c),
(165,118,o),
(155,91,o),
(152,75,cs),
(150,67,o),
(150,59,o),
(150,53,cs),
(150,-2,o),
(201,0,o),
(253,0,c)
);
},
{
closed = 1;
nodes = (
(125,254,o),
(245,353,o),
(316,418,c),
(287,369,o),
(246,294,o),
(213,225,c),
(105,225,l)
);
}
);
};
layerId = "C623C401-2266-4A98-B253-3D45160C29C7";
shapes = (
{
closed = 1;
nodes = (
(262,41,o),
(282,98,o),
(309,161,c),
(346,165,o),
(376,169,o),
(390,171,cs),
(404,173,o),
(427,200,o),
(427,215,cs),
(427,222,o),
(423,226,o),
(413,226,cs),
(401,226,o),
(379,225,o),
(337,225,c),
(399,358,o),
(477,494,o),
(516,520,cs),
(523,525,o),
(528,530,o),
(528,534,cs),
(528,537,o),
(525,540,o),
(515,542,cs),
(497,545,o),
(480,547,o),
(464,547,cs),
(407,547,o),
(365,527,o),
(330,493,cs),
(311,474,o),
(98,280,o),
(28,224,cs),
(23,220,o),
(20,214,o),
(18,207,c),
(13,198,o),
(9,188,o),
(9,179,cs),
(9,168,o),
(14,158,o),
(24,152,cs),
(28,149,o),
(45,146,o),
(83,146,cs),
(106,146,o),
(137,147,o),
(178,150,c),
(165,118,o),
(155,91,o),
(152,75,cs),
(150,67,o),
(150,59,o),
(150,53,cs),
(150,-2,o),
(201,0,o),
(253,0,c)
);
},
{
closed = 1;
nodes = (
(125,254,o),
(245,353,o),
(316,418,c),
(287,369,o),
(246,294,o),
(213,225,c),
(105,225,l)
);
}
);
width = 417;
}
);
note = four;
unicode = 52;
}
{
color = 4;
glyphname = five;
lastChange = "2022-10-06 02:16:46 +0000";
layers = (
{
background = {
shapes = (
{
closed = 1;
nodes = (
(271,-14,o),
(404,126,o),
(404,274,cs),
(404,330,o),
(368,346,o),
(321,346,cs),
(282,346,o),
(235,335,o),
(195,326,c),
(220,373,o),
(259,443,o),
(287,477,c),
(307,471,o),
(358,461,o),
(397,461,cs),
(408,461,o),
(417,461,o),
(425,463,cs),
(459,470,o),
(486,503,o),
(486,526,cs),
(486,539,o),
(477,549,o),
(457,549,cs),
(451,549,o),
(444,548,o),
(436,546,c),
(415,545,o),
(392,545,o),
(368,545,cs),
(322,545,o),
(274,546,o),
(236,546,cs),
(217,546,o),
(191,523,o),
(191,502,cs),
(191,494,o),
(195,486,o),
(205,480,c),
(194,443,o),
(137,326,o),
(122,294,cs),
(121,291,o),
(120,289,o),
(120,286,cs),
(120,276,o),
(131,268,o),
(141,268,cs),
(144,268,o),
(146,269,o),
(149,270,cs),
(167,279,o),
(199,290,o),
(225,290,cs),
(249,290,o),
(268,281,o),
(268,250,cs),
(268,187,o),
(167,32,o),
(95,32,cs),
(70,32,o),
(61,47,o),
(61,67,cs),
(61,105,o),
(92,162,o),
(108,186,cs),
(111,190,o),
(112,195,o),
(112,198,cs),
(112,203,o),
(109,206,o),
(102,206,cs),
(98,206,o),
(93,205,o),
(86,202,cs),
(37,183,o),
(-2,134,o),
(-2,77,cs),
(-2,10,o),
(58,-14,o),
(127,-14,cs)
);
}
);
};
layerId = "C623C401-2266-4A98-B253-3D45160C29C7";
shapes = (
{
closed = 1;
nodes = (
(272,-14,o),
(404,127,o),
(404,274,cs),
(404,330,o),
(368,346,o),
(321,346,cs),
(286,346,o),
(235,338,o),
(195,326,c),
(220,373,o),
(259,443,o),
(287,477,c),
(327,467,o),
(363,461,o),
(409,461,cs),
(449,461,o),
(486,497,o),
(486,526,cs),
(486,539,o),
(477,549,o),
(457,549,cs),
(445,549,o),
(438,546,o),
(424,544,cs),
(398,541,o),
(372,540,o),
(348,540,cs),
(297,540,o),
(283,547,o),
(244,547,cs),
(214,547,o),
(191,521,o),
(191,502,cs),
(191,494,o),
(195,486,o),
(205,480,c),
(194,443,o),
(137,328,o),
(130,313,cs),
(124,300,o),
(120,291,o),
(120,286,cs),
(120,276,o),
(131,268,o),
(141,268,cs),
(148,268,o),
(156,273,o),
(166,277,cs),
(181,283,o),
(202,290,o),
(225,290,cs),
(249,290,o),
(268,281,o),
(268,250,cs),
(268,185,o),
(165,32,o),
(95,32,cs),
(70,32,o),
(61,47,o),
(61,67,cs),
(61,104,o),
(90,159,o),
(106,183,cs),
(110,189,o),
(112,194,o),
(112,198,cs),
(112,203,o),
(109,206,o),
(102,206,cs),
(98,206,o),
(93,205,o),
(86,202,cs),
(37,183,o),
(-2,134,o),
(-2,77,cs),
(-2,19,o),
(44,-14,o),
(127,-14,cs)
);
}
);
width = 419;
}
);
note = five;
unicode = 53;
}
{
color = 3;
glyphname = six;
lastChange = "2022-04-08 20:31:11 +0000";
layers = (
{
background = {
shapes = (
{
closed = 1;
nodes = (
(290,-12,o),
(384,147,o),
(384,285,cs),
(384,337,o),
(353,374,o),
(309,374,cs),
(257,374,o),
(228,347,o),
(208,323,c),
(224,382,o),
(295,509,o),
(354,501,cs),
(384,497,o),
(393,481,o),
(396,462,cs),
(397,454,o),
(405,450,o),
(414,450,cs),
(426,450,o),
(439,458,o),
(439,477,cs),
(439,522,o),
(388,549,o),
(333,549,cs),
(303,549,o),
(272,541,o),
(247,524,cs),
(204,495,o),
(153,440,o),
(119,382,cs),
(65,290,o),
(26,186,o),
(26,108,cs),
(26,37,o),
(57,-12,o),
(137,-12,cs)
);
},
{
closed = 1;
nodes = (
(141,36,o),
(136,47,o),
(136,67,cs),
(136,111,o),
(161,193,o),
(190,252,cs),
(209,292,o),
(231,323,o),
(248,323,cs),
(257,323,o),
(261,313,o),
(261,297,cs),
(261,248,o),
(225,146,o),
(220,134,cs),
(212,112,o),
(184,36,o),
(153,36,cs)
);
}
);
};
layerId = "C623C401-2266-4A98-B253-3D45160C29C7";
shapes = (
{
closed = 1;
nodes = (
(290,-12,o),
(384,147,o),
(384,285,cs),
(384,337,o),
(353,374,o),
(309,374,cs),
(257,374,o),
(228,347,o),
(208,323,c),
(224,382,o),
(295,509,o),
(354,501,cs),
(384,497,o),
(393,481,o),
(396,462,cs),
(397,454,o),
(405,450,o),
(414,450,cs),
(426,450,o),
(439,458,o),
(439,477,cs),
(439,522,o),
(388,549,o),
(333,549,cs),
(303,549,o),
(272,541,o),
(247,524,cs),
(204,495,o),
(153,440,o),
(119,382,cs),
(65,290,o),
(26,186,o),
(26,108,cs),
(26,37,o),
(57,-12,o),
(137,-12,cs)
);
},
{
closed = 1;
nodes = (
(141,36,o),
(136,47,o),
(136,67,cs),
(136,111,o),
(161,193,o),
(190,252,cs),
(209,292,o),
(231,323,o),
(248,323,cs),
(257,323,o),
(261,313,o),
(261,297,cs),
(261,248,o),
(225,146,o),
(220,134,cs),
(212,112,o),
(184,36,o),
(153,36,cs)
);
}
);
width = 393;
}
);
note = six;
unicode = 54;
}
{
color = 3;
glyphname = seven;
lastChange = "2022-04-08 20:31:11 +0000";
layers = (
{
background = {
shapes = (
{
closed = 1;
nodes = (
(234,109,o),
(409,443,o),
(480,486,cs),
(488,491,o),
(496,508,o),
(496,523,cs),
(496,534,o),
(491,544,o),
(478,544,cs),
(205,545,ls),
(183,545,o),
(148,484,o),
(148,455,cs),
(148,447,o),
(151,441,o),
(159,441,cs),
(205,441,o),
(330,475,o),
(385,475,c),
(268,349,o),
(116,133,o),
(96,75,cs),
(92,64,o),
(90,54,o),
(90,46,cs),
(90,-1,o),
(152,0,o),
(202,0,c)
);
}
);
};
layerId = "C623C401-2266-4A98-B253-3D45160C29C7";
shapes = (
{
closed = 1;
nodes = (
(234,109,o),
(409,443,o),
(480,486,cs),
(488,491,o),
(496,508,o),
(496,523,cs),
(496,534,o),
(491,544,o),
(478,544,cs),
(205,545,ls),
(183,545,o),
(148,484,o),
(148,455,cs),
(148,447,o),
(151,441,o),
(159,441,cs),
(205,441,o),
(330,475,o),
(385,475,c),
(268,349,o),
(116,133,o),
(96,75,cs),
(92,64,o),
(90,54,o),
(90,46,cs),
(90,-1,o),
(152,0,o),
(202,0,c)
);
}
);
width = 354;
}
);
note = seven;
unicode = 55;
}
{
color = 0;
glyphname = eight;
lastChange = "2022-06-01 02:09:47 +0000";
layers = (
{
background = {
shapes = (
{
closed = 1;
nodes = (
(171,-14,o),
(224,-3,o),
(264,17,cs),
(335,53,o),
(361,98,o),
(361,144,cs),
(361,160,o),
(357,177,o),
(352,193,cs),
(340,230,o),
(313,272,o),
(291,310,c),
(343,347,o),
(434,410,o),
(434,478,cs),
(434,513,o),
(405,541,o),
(324,541,cs),
(199,541,o),
(134,462,o),
(134,371,cs),
(134,340,o),
(142,308,o),
(157,277,cs),
(160,271,l),
(124,254,o),
(88,230,o),
(57,200,cs),
(16,160,o),
(-8,113,o),
(-8,74,cs),
(-8,30,o),
(21,-4,o),
(91,-12,cs),
(101,-13,o),
(112,-14,o),
(122,-14,cs)
);
},
{
closed = 1;
nodes = (
(112,28,o),
(85,43,o),
(85,75,cs),
(85,92,o),
(92,114,o),
(111,141,cs),
(130,168,o),
(160,195,o),
(190,218,c),
(208,186,o),
(225,155,o),
(232,124,cs),
(233,118,o),
(234,112,o),
(234,107,cs),
(234,56,o),
(184,28,o),
(142,28,cs)
);
},
{
closed = 1;
nodes = (
(265,359,o),
(259,374,o),
(257,388,cs),
(256,394,o),
(256,399,o),
(256,404,cs),
(256,460,o),
(293,494,o),
(350,494,cs),
(370,494,o),
(377,483,o),
(377,469,cs),
(377,446,o),
(359,414,o),
(341,396,cs),
(321,376,o),
(298,358,o),
(274,341,c)
);
}
);
};
layerId = "C623C401-2266-4A98-B253-3D45160C29C7";
shapes = (
{
closed = 1;
nodes = (
(171,-14,o),
(224,-3,o),
(264,17,cs),
(335,53,o),
(361,98,o),
(361,144,cs),
(361,160,o),
(357,177,o),
(352,193,cs),
(340,230,o),
(313,272,o),
(291,310,c),
(343,347,o),
(434,410,o),
(434,478,cs),
(434,513,o),
(405,541,o),
(324,541,cs),
(199,541,o),
(134,462,o),
(134,371,cs),
(134,340,o),
(142,308,o),
(157,277,cs),
(160,271,l),
(124,254,o),
(88,230,o),
(57,200,cs),
(16,160,o),
(-8,113,o),
(-8,74,cs),
(-8,30,o),
(21,-4,o),
(91,-12,cs),
(101,-13,o),
(112,-14,o),
(122,-14,cs)
);
},
{
closed = 1;
nodes = (
(112,28,o),
(85,43,o),
(85,75,cs),
(85,92,o),
(92,114,o),
(111,141,cs),
(130,168,o),
(160,195,o),
(190,218,c),
(208,186,o),
(225,155,o),
(232,124,cs),
(233,118,o),
(234,112,o),
(234,107,cs),
(234,56,o),
(184,28,o),
(142,28,cs)
);
},
{
closed = 1;
nodes = (
(265,359,o),
(259,374,o),
(257,388,cs),
(256,394,o),
(256,399,o),
(256,404,cs),
(256,460,o),
(293,494,o),
(350,494,cs),
(370,494,o),
(377,483,o),
(377,469,cs),
(377,446,o),
(359,414,o),
(341,396,cs),
(321,376,o),
(298,358,o),
(274,341,c)
);
}
);
width = 381;
}
);
note = eight;
unicode = 56;
}
{
color = 3;
glyphname = nine;
lastChange = "2022-04-08 20:31:11 +0000";
layers = (
{
background = {
shapes = (
{
closed = 1;
nodes = (
(157,-19,o),
(188,-11,o),
(213,6,cs),
(256,35,o),
(307,90,o),
(341,148,cs),
(395,240,o),
(434,344,o),
(434,422,cs),
(434,493,o),
(403,542,o),
(323,542,cs),
(170,542,o),
(76,383,o),
(76,245,cs),
(76,193,o),
(107,156,o),
(151,156,cs),
(203,156,o),
(232,183,o),
(252,207,c),
(236,148,o),
(165,21,o),
(106,29,cs),
(76,33,o),
(67,49,o),
(64,68,cs),
(63,76,o),
(55,80,o),
(46,80,cs),
(34,80,o),
(21,72,o),
(21,53,cs),
(21,8,o),
(72,-19,o),
(127,-19,cs)
);
},
{
closed = 1;
nodes = (
(203,207,o),
(199,217,o),
(199,233,cs),
(199,282,o),
(235,384,o),
(240,396,cs),
(248,418,o),
(276,494,o),
(307,494,cs),
(319,494,o),
(324,483,o),
(324,463,cs),
(324,419,o),
(299,337,o),
(270,278,cs),
(251,238,o),
(229,207,o),
(212,207,cs)
);
}
);
};
layerId = "C623C401-2266-4A98-B253-3D45160C29C7";
shapes = (
{
closed = 1;
nodes = (
(157,-19,o),
(188,-11,o),
(213,6,cs),
(256,35,o),
(307,90,o),
(341,148,cs),
(395,240,o),
(434,344,o),
(434,422,cs),
(434,493,o),
(403,542,o),
(323,542,cs),
(170,542,o),
(76,383,o),
(76,245,cs),
(76,193,o),
(107,156,o),
(151,156,cs),
(203,156,o),
(232,183,o),
(252,207,c),
(236,148,o),
(165,21,o),
(106,29,cs),
(76,33,o),
(67,49,o),
(64,68,cs),
(63,76,o),
(55,80,o),
(46,80,cs),
(34,80,o),
(21,72,o),
(21,53,cs),
(21,8,o),
(72,-19,o),
(127,-19,cs)
);
},
{
closed = 1;
nodes = (
(203,207,o),
(199,217,o),
(199,233,cs),
(199,282,o),
(235,384,o),
(240,396,cs),
(248,418,o),
(276,494,o),
(307,494,cs),
(319,494,o),
(324,483,o),
(324,463,cs),
(324,419,o),
(299,337,o),
(270,278,cs),
(251,238,o),
(229,207,o),
(212,207,cs)
);
}
);
width = 403;
}
);
note = nine;
unicode = 57;
}
{
color = 3;
glyphname = colon;
lastChange = "2022-04-08 20:31:11 +0000";
layers = (
{
background = {
shapes = (
{
closed = 1;
nodes = (
(270,245,o),
(308,282,o),
(308,323,cs),
(308,346,o),
(294,362,o),
(273,362,cs),
(239,362,o),
(201,323,o),
(201,283,cs),
(201,260,o),
(215,245,o),
(237,245,cs)
);
},
{
closed = 1;
nodes = (
(185,-6,o),
(223,31,o),
(223,72,cs),
(223,95,o),
(209,111,o),
(188,111,cs),
(154,111,o),
(116,72,o),
(116,32,cs),
(116,9,o),
(130,-6,o),
(152,-6,cs)
);
}
);
};
layerId = "C623C401-2266-4A98-B253-3D45160C29C7";
shapes = (
{
closed = 1;
nodes = (
(270,245,o),
(308,282,o),
(308,323,cs),
(308,346,o),
(294,362,o),
(273,362,cs),
(239,362,o),
(201,323,o),
(201,283,cs),
(201,260,o),
(215,245,o),
(237,245,cs)
);
},
{
closed = 1;
nodes = (
(185,-6,o),
(223,31,o),
(223,72,cs),
(223,95,o),
(209,111,o),
(188,111,cs),
(154,111,o),
(116,72,o),
(116,32,cs),
(116,9,o),
(130,-6,o),
(152,-6,cs)
);
}
);
width = 307;
}
);
note = colon;
unicode = 58;
}
{
color = 0;
glyphname = less;
lastChange = "2022-06-01 02:09:47 +0000";
layers = (
{
background = {
shapes = (
{
closed = 1;
nodes = (
(338,52,o),
(352,123,o),
(352,156,cs),
(352,165,o),
(351,172,o),
(349,173,cs),
(167,289,l),
(396,401,ls),
(405,406,o),
(420,475,o),
(420,505,cs),
(420,514,o),
(419,519,o),
(415,517,cs),
(114,330,l),
(102,319,o),
(88,291,o),
(88,270,cs),
(88,262,o),
(90,255,o),
(94,250,c),
(328,61,ls)
);
}
);
};
layerId = "C623C401-2266-4A98-B253-3D45160C29C7";
shapes = (
{
closed = 1;
nodes = (
(338,52,o),
(352,123,o),
(352,156,cs),
(352,165,o),
(351,172,o),
(349,173,cs),
(167,289,l),
(396,401,ls),
(405,406,o),
(420,475,o),
(420,505,cs),
(420,513,o),
(419,517,o),
(417,517,cs),
(415,517,l),
(114,330,l),
(102,319,o),
(88,291,o),
(88,270,cs),
(88,262,o),
(90,255,o),
(94,250,c),
(328,61,ls)
);
}
);
width = 449;
}
);
note = less;
unicode = 60;
}
{
color = 0;
glyphname = equal;
lastChange = "2022-06-01 02:09:47 +0000";
layers = (
{
background = {
shapes = (
{
closed = 1;
nodes = (
(344,172,ls),
(350,172,o),
(376,207,o),
(376,224,cs),
(376,229,o),
(373,232,o),
(367,232,cs),
(139,232,ls),
(126,232,o),
(87,172,o),
(105,172,cs)
);
},
{
closed = 1;
nodes = (
(387,302,ls),
(393,302,o),
(418,337,o),
(418,353,cs),
(418,359,o),
(415,362,o),
(409,362,cs),
(181,362,ls),
(168,362,o),
(130,302,o),
(147,302,cs)
);
}
);
};
layerId = "C623C401-2266-4A98-B253-3D45160C29C7";
shapes = (
{
closed = 1;
nodes = (
(344,172,ls),
(350,172,o),
(376,207,o),
(376,224,cs),
(376,229,o),
(373,232,o),
(367,232,cs),
(139,232,ls),
(126,232,o),
(87,172,o),
(105,172,cs)
);
},
{
closed = 1;
nodes = (
(387,302,ls),
(393,302,o),
(418,337,o),
(418,353,cs),
(418,359,o),
(415,362,o),
(409,362,cs),
(181,362,ls),
(168,362,o),
(130,302,o),
(147,302,cs)
);
}
);
width = 409;
}
);
note = equal;
unicode = 61;
}
{
color = 3;
glyphname = greater;
lastChange = "2022-04-08 20:31:11 +0000";
layers = (
{
background = {
shapes = (
{
closed = 1;
nodes = (
(420,243,l),
(432,254,o),
(446,282,o),
(446,303,cs),
(446,311,o),
(444,318,o),
(440,323,c),
(206,512,ls),
(196,521,o),
(182,450,o),
(182,417,cs),
(182,408,o),
(183,401,o),
(185,400,cs),
(367,284,l),
(138,172,ls),
(129,167,o),
(114,98,o),
(114,68,cs),
(114,59,o),
(115,54,o),
(119,56,cs)
);
}
);
};
layerId = "C623C401-2266-4A98-B253-3D45160C29C7";
shapes = (
{
closed = 1;
nodes = (
(119,56,l),
(420,243,l),
(432,254,o),
(446,282,o),
(446,303,cs),
(446,311,o),
(444,318,o),
(440,323,c),
(206,512,ls),
(196,521,o),
(182,450,o),
(182,417,cs),
(182,408,o),
(183,401,o),
(185,400,cs),
(367,284,l),
(138,172,ls),
(129,167,o),
(114,98,o),
(114,68,cs),
(114,60,o),
(115,56,o),
(117,56,cs)
);
}
);
width = 531;
}
);
note = greater;
unicode = 62;
}
{
color = 0;
glyphname = at;
lastChange = "2022-06-01 02:09:47 +0000";
layers = (
{
background = {
shapes = (
{
closed = 1;
nodes = (
(405,-8,o),
(502,27,o),
(561,123,cs),
(568,134,o),
(571,144,o),
(571,151,cs),
(571,157,o),
(569,160,o),
(565,160,cs),
(561,160,o),
(554,156,o),
(546,146,cs),
(498,90,o),
(414,55,o),
(337,55,cs),
(247,55,o),
(166,104,o),
(166,228,cs),
(166,398,o),
(291,567,o),
(455,567,cs),
(582,567,o),
(634,497,o),
(634,417,cs),
(634,375,o),
(619,329,o),
(594,289,cs),
(561,237,o),
(509,197,o),
(476,197,cs),
(471,197,o),
(467,198,o),
(463,200,c),
(461,237,o),
(483,297,o),
(494,324,cs),
(516,376,o),
(536,414,o),
(543,423,cs),
(547,428,o),
(553,434,o),
(553,439,cs),
(553,444,o),
(547,448,o),
(526,450,cs),
(515,451,o),
(505,452,o),
(495,452,cs),
(478,452,o),
(462,451,o),
(443,450,cs),
(390,448,o),
(342,426,o),
(305,358,cs),
(292,333,o),
(265,274,o),
(265,229,cs),
(265,198,o),
(280,172,o),
(330,175,cs),
(362,179,o),
(383,226,o),
(398,250,c),
(397,242,o),
(396,234,o),
(396,228,cs),
(396,189,o),
(418,172,o),
(465,173,cs),
(590,173,o),
(703,314,o),
(703,437,cs),
(703,529,o),
(638,611,o),
(463,611,cs),
(259,611,o),
(67,445,o),
(67,225,cs),
(67,84,o),
(170,-8,o),
(315,-8,cs)
);
},
{
closed = 1;
nodes = (
(334,207,o),
(332,211,o),
(332,217,cs),
(332,255,o),
(410,408,o),
(437,430,cs),
(443,435,o),
(451,438,o),
(456,438,cs),
(458,438,o),
(460,437,o),
(460,435,cs),
(460,434,o),
(460,433,o),
(459,431,cs),
(398,283,ls),
(381,246,o),
(352,207,o),
(339,207,cs)
);
}
);
};
layerId = "C623C401-2266-4A98-B253-3D45160C29C7";
shapes = (
{
closed = 1;
nodes = (
(400,-88,o),
(497,-53,o),
(556,43,cs),
(563,54,o),
(566,64,o),
(566,71,cs),
(566,77,o),
(564,80,o),
(560,80,cs),
(556,80,o),
(549,76,o),
(541,66,cs),
(493,10,o),
(409,-25,o),
(332,-25,cs),
(242,-25,o),
(161,24,o),
(161,148,cs),
(161,318,o),
(286,487,o),
(450,487,cs),
(577,487,o),
(629,417,o),
(629,337,cs),
(629,295,o),
(614,249,o),
(589,209,cs),
(556,157,o),
(504,117,o),
(471,117,cs),
(466,117,o),
(462,118,o),
(458,120,c),
(456,157,o),
(478,217,o),
(489,244,cs),
(511,296,o),
(531,334,o),
(538,343,cs),
(542,348,o),
(548,354,o),
(548,359,cs),
(548,364,o),
(542,368,o),
(521,370,cs),
(510,371,o),
(500,372,o),
(490,372,cs),
(473,372,o),
(457,371,o),
(438,370,cs),
(385,368,o),
(337,346,o),
(300,278,cs),
(287,253,o),
(260,194,o),
(260,149,cs),
(260,118,o),
(275,92,o),
(325,95,cs),
(357,99,o),
(378,146,o),
(393,170,c),
(392,162,o),
(391,154,o),
(391,148,cs),
(391,109,o),
(413,92,o),
(460,93,cs),
(585,93,o),
(698,234,o),
(698,357,cs),
(698,449,o),
(633,531,o),
(458,531,cs),
(254,531,o),
(62,365,o),
(62,145,cs),
(62,4,o),
(165,-88,o),
(310,-88,cs)
);
},
{
closed = 1;
nodes = (
(329,127,o),
(327,131,o),
(327,137,cs),
(327,175,o),
(405,328,o),
(432,350,cs),
(438,355,o),
(446,358,o),
(451,358,cs),
(453,358,o),
(455,357,o),
(455,355,cs),
(455,354,o),
(455,353,o),
(454,351,cs),
(393,203,ls),
(376,166,o),
(347,127,o),
(334,127,cs)
);
}
);
width = 683;
}
);
note = at;
unicode = 64;
}
{
color = 11;
glyphname = A;
lastChange = "2022-04-18 02:39:10 +0000";
layers = (
{
anchors = (
{
name = bottom;
pos = (256,0);
},
{
name = ogonek;
pos = (460,10);
},
{
name = top;
pos = (499,600);
}
);
background = {
anchors = (
{
name = bottom;
pos = (256,0);
},
{
name = ogonek;
pos = (460,10);
},
{
name = top;
pos = (256,633);
}
);
shapes = (
{
closed = 1;
nodes = (
(448,-12,o),
(473,-7,o),
(473,8,c),
(469,11,o),
(457,18,o),
(457,38,cs),
(457,123,o),
(499,273,o),
(580,380,cs),
(583,385,o),
(584,389,o),
(584,394,cs),
(584,428,o),
(497,439,o),
(464,445,c),
(370,250,o),
(291,45,o),
(207,43,cs),
(181,43,o),
(171,64,o),
(171,97,cs),
(171,146,o),
(194,219,o),
(223,281,cs),
(268,369,o),
(375,546,o),
(488,546,cs),
(519,546,o),
(565,537,o),
(569,509,cs),
(570,505,o),
(572,503,o),
(576,503,cs),
(585,503,o),
(598,513,o),
(598,533,cs),
(598,539,o),
(597,546,o),
(594,553,cs),
(580,588,o),
(547,607,o),
(489,607,cs),
(247,607,o),
(109,369,o),
(58,190,cs),
(49,160,o),
(45,132,o),
(45,107,cs),
(45,39,o),
(79,-5,o),
(157,-5,cs),
(239,-5,o),
(317,61,o),
(368,174,c),
(363,154,o),
(353,114,o),
(353,77,cs),
(353,37,o),
(364,0,o),
(402,-9,cs),
(408,-11,o),
(417,-12,o),
(427,-12,cs)
);
}
);
};
layerId = "C623C401-2266-4A98-B253-3D45160C29C7";
shapes = (
{
closed = 1;
nodes = (
(452,-12,o),
(473,-5,o),
(473,8,c),
(461,16,o),
(456,25,o),
(456,48,cs),
(456,103,o),
(488,253,o),
(574,372,cs),
(584,386,o),
(584,389,o),
(584,394,cs),
(584,428,o),
(497,439,o),
(464,445,c),
(419,351,o),
(377,256,o),
(337,181,cs),
(293,100,o),
(251,44,o),
(207,43,cs),
(181,43,o),
(171,64,o),
(171,97,cs),
(171,172,o),
(221,292,o),
(287,390,cs),
(348,481,o),
(424,546,o),
(496,546,cs),
(530,546,o),
(561,536,o),
(568,509,cs),
(569,505,o),
(571,503,o),
(575,503,cs),
(586,503,o),
(598,517,o),
(598,533,cs),
(598,573,o),
(555,608,o),
(481,608,cs),
(354,608,o),
(250,531,o),
(176,433,cs),
(88,317,o),
(45,175,o),
(45,107,cs),
(45,39,o),
(79,-5,o),
(157,-5,cs),
(239,-5,o),
(317,61,o),
(368,174,c),
(363,154,o),
(353,114,o),
(353,77,cs),
(353,43,o),
(360,20,o),
(374,6,cs),
(387,-7,o),
(405,-12,o),
(429,-12,cs)
);
}
);
width = 511;
}
);
note = A;
unicode = 65;
}
{
glyphname = B;
lastChange = "2022-04-19 21:06:26 +0000";
layers = (
{
background = {
shapes = (
{
closed = 1;
nodes = (
(317,-20,o),
(358,-13,o),
(393,0,cs),
(464,27,o),
(496,82,o),
(504,147,cs),
(511,212,o),
(464,277,o),
(388,294,c),
(500,299,o),
(584,391,o),
(587,475,cs),
(589,537,o),
(548,595,o),
(442,612,cs),
(426,615,o),
(406,616,o),
(383,616,cs),
(251,616,o),
(39,566,o),
(45,449,cs),
(48,414,o),
(96,409,o),
(106,406,c),
(116,458,o),
(172,518,o),
(248,553,cs),
(282,569,o),
(334,584,o),
(378,584,cs),
(430,584,o),
(473,563,o),
(471,499,cs),
(468,407,o),
(383,292,o),
(319,292,cs),
(312,292,o),
(308,287,o),
(307,281,cs),
(307,276,o),
(310,271,o),
(317,267,cs),
(358,242,o),
(376,171,o),
(374,123,c),
(369,103,o),
(368,94,o),
(366,87,cs),
(353,39,o),
(304,13,o),
(253,13,cs),
(244,13,o),
(235,13,o),
(226,15,cs),
(202,19,o),
(195,31,o),
(195,46,cs),
(195,50,o),
(197,55,o),
(198,59,cs),
(212,113,o),
(256,220,o),
(304,313,cs),
(334,372,o),
(387,477,o),
(432,526,cs),
(438,533,o),
(421,538,o),
(375,538,cs),
(333,538,o),
(294,525,o),
(268,486,cs),
(210,398,o),
(106,184,o),
(102,81,cs),
(101,52,o),
(105,30,o),
(119,20,cs),
(161,-7,o),
(219,-20,o),
(276,-20,cs)
);
}
);
};
layerId = "C623C401-2266-4A98-B253-3D45160C29C7";
shapes = (
{
closed = 1;
nodes = (
(381,294,l),
(495,296,o),
(587,388,o),
(587,481,cs),
(587,559,o),
(515,616,o),
(389,616,cs),
(199,616,o),
(45,545,o),
(45,455,cs),
(45,422,o),
(72,412,o),
(107,407,c),
(128,503,o),
(263,584,o),
(382,584,cs),
(439,584,o),
(471,555,o),
(471,502,cs),
(471,408,o),
(390,304,o),
(318,292,cs),
(310,291,o),
(307,287,o),
(307,281,cs),
(307,276,o),
(309,273,o),
(316,268,cs),
(359,240,o),
(374,174,o),
(374,136,cs),
(374,51,o),
(318,13,o),
(253,13,cs),
(214,13,o),
(196,21,o),
(196,43,cs),
(196,74,o),
(240,181,o),
(292,288,cs),
(337,382,o),
(390,476,o),
(425,520,cs),
(428,524,o),
(431,527,o),
(431,529,cs),
(431,531,o),
(429,533,o),
(418,535,cs),
(407,537,o),
(389,538,o),
(375,538,cs),
(327,538,o),
(287,522,o),
(255,466,cs),
(229,420,o),
(200,366,o),
(174,311,cs),
(135,226,o),
(104,139,o),
(102,75,cs),
(101,51,o),
(105,30,o),
(121,19,cs),
(160,-7,o),
(219,-20,o),
(276,-20,cs),
(400,-20,o),
(505,40,o),
(505,157,cs),
(505,230,o),
(455,273,o),
(381,293,c)
);
}
);
width = 532;
}
);
note = B;
unicode = 66;
}
{
glyphname = C;
lastChange = "2022-06-03 20:37:07 +0000";
layers = (
{
anchors = (
{
name = bottom;
pos = (167,-8);
},
{
name = top;
pos = (418,601);
}
);
background = {
anchors = (
{
name = bottom;
pos = (231,0);
},
{
name = top;
pos = (231,633);
}
);
shapes = (
{
closed = 1;
nodes = (
(196,-6,o),
(222,-3,o),
(252,5,cs),
(325,23,o),
(404,83,o),
(447,154,cs),
(467,188,o),
(474,208,o),
(474,221,cs),
(474,245,o),
(449,241,o),
(440,242,c),
(400,165,o),
(316,40,o),
(241,40,cs),
(205,40,o),
(192,67,o),
(192,107,cs),
(192,159,o),
(215,232,o),
(241,292,cs),
(258,329,o),
(301,411,o),
(349,475,cs),
(392,534,o),
(423,556,o),
(442,556,cs),
(454,556,o),
(461,546,o),
(461,528,cs),
(461,511,o),
(455,488,o),
(443,463,cs),
(418,408,o),
(366,343,o),
(350,328,cs),
(344,322,o),
(338,316,o),
(338,312,cs),
(338,310,o),
(340,308,o),
(345,308,cs),
(348,308,o),
(351,308,o),
(355,309,cs),
(442,326,o),
(517,431,o),
(517,510,cs),
(517,560,o),
(487,600,o),
(410,600,cs),
(367,600,o),
(317,582,o),
(277,547,cs),
(189,472,o),
(100,297,o),
(71,194,cs),
(62,163,o),
(58,134,o),
(58,109,cs),
(58,39,o),
(93,-6,o),
(173,-6,cs)
);
}
);
};
guides = (
{
pos = (137,602);
},
{
pos = (137,-20);
}
);
layerId = "C623C401-2266-4A98-B253-3D45160C29C7";
shapes = (
{
closed = 1;
nodes = (
(244,-20,o),
(300,6,o),
(346,40,cs),
(425,100,o),
(476,185,o),
(476,214,cs),
(476,228,o),
(463,239,o),
(438,239,c),
(368,101,o),
(292,25,o),
(237,25,cs),
(205,25,o),
(185,51,o),
(187,95,cs),
(190,192,o),
(251,347,o),
(347,476,cs),
(383,526,o),
(419,557,o),
(440,557,cs),
(453,557,o),
(459,546,o),
(459,529,cs),
(459,470,o),
(386,367,o),
(344,325,cs),
(339,320,o),
(336,316,o),
(336,313,cs),
(336,311,o),
(338,309,o),
(343,309,cs),
(413,309,o),
(515,414,o),
(515,511,cs),
(515,568,o),
(477,601,o),
(408,601,c),
(364,601,o),
(313,580,o),
(275,548,cs),
(170,457,o),
(60,252,o),
(60,108,cs),
(60,36,o),
(98,-20,o),
(183,-20,cs)
);
}
);
width = 465;
}
);
note = C;
unicode = 67;
}
{
color = 11;
glyphname = D;
lastChange = "2022-04-19 00:23:42 +0000";
layers = (
{
anchors = (
{
name = bottom;
pos = (246,0);
},
{
name = center;
pos = (221,321);
},
{
name = top;
pos = (473,630);
}
);
background = {
anchors = (
{
name = bottom;
pos = (246,0);
},
{
name = center;
pos = (221,321);
},
{
name = top;
pos = (473,630);
}
);
shapes = (
{
closed = 1;
nodes = (
(295,-8,o),
(390,65,o),
(459,158,cs),
(514,232,o),
(594,382,o),
(594,493,cs),
(594,570,o),
(552,630,o),
(438,631,cs),
(376,631,o),
(313,618,o),
(260,596,cs),
(147,548,o),
(86,485,o),
(78,475,cs),
(49,438,o),
(40,417,o),
(40,405,cs),
(40,384,o),
(65,388,o),
(73,387,c),
(115,454,o),
(216,529,o),
(304,570,cs),
(345,589,o),
(378,598,o),
(403,598,cs),
(457,598,o),
(477,558,o),
(477,502,cs),
(477,403,o),
(396,224,o),
(356,159,cs),
(317,94,o),
(251,24,o),
(192,24,cs),
(188,24,o),
(184,24,o),
(180,25,c),
(171,70,o),
(234,223,o),
(290,333,cs),
(321,393,o),
(371,486,o),
(414,535,cs),
(420,542,o),
(393,547,o),
(347,547,cs),
(305,547,o),
(272,533,o),
(246,495,cs),
(196,419,o),
(93,207,o),
(78,83,cs),
(72,33,o),
(94,36,o),
(127,20,c),
(139,16,l),
(161,0,o),
(186,-8,o),
(213,-8,cs)
);
}
);
};
layerId = "C623C401-2266-4A98-B253-3D45160C29C7";
shapes = (
{
closed = 1;
nodes = (
(347,452,o),
(408,530,cs),
(411,534,o),
(412,536,o),
(412,538,cs),
(412,540,o),
(410,542,o),
(399,544,cs),
(388,546,o),
(371,547,o),
(357,547,cs),
(296,547,o),
(265,530,o),
(235,478,cs),
(166,357,o),
(77,162,o),
(77,67,cs),
(77,46,o),
(82,37,o),
(123,22,cs),
(139,16,o),
(156,9,o),
(165,4,cs),
(182,-5,o),
(192,-8,o),
(207,-8,cs),
(297,-8,o),
(390,65,o),
(459,158,cs),
(514,232,o),
(594,382,o),
(594,493,cs),
(594,570,o),
(552,630,o),
(438,631,cs),
(376,631,o),
(320,622,o),
(231,583,cs),
(123,535,o),
(40,446,o),
(40,404,cs),
(40,392,o),
(52,385,o),
(62,385,cs),
(69,385,o),
(73,389,o),
(79,396,cs),
(138,472,o),
(218,529,o),
(304,570,cs),
(345,589,o),
(378,598,o),
(403,598,cs),
(457,598,o),
(477,558,o),
(477,502,cs),
(477,403,o),
(396,224,o),
(356,159,cs),
(317,94,o),
(251,24,o),
(192,24,cs),
(188,24,o),
(183,25,o),
(179,26,c),
(180,151,o)
);
}
);
width = 534;
}
);
note = D;
unicode = 68;
}
{
color = 11;
glyphname = E;
lastChange = "2022-04-18 02:39:10 +0000";
layers = (
{
anchors = (
{
name = bottom;
pos = (135,5);
},
{
name = ogonek;
pos = (329,79);
},
{
name = top;
pos = (359,600);
},
{
name = topleft;
pos = (20,600);
}
);
background = {
anchors = (
{
name = bottom;
pos = (215,0);
},
{
name = ogonek;
pos = (387,10);
},
{
name = top;
pos = (215,633);
},
{
name = topleft;
pos = (20,633);
}
);
shapes = (
{
closed = 1;
nodes = (
(224,-1,o),
(363,68,o),
(422,160,cs),
(445,196,o),
(453,218,o),
(453,231,cs),
(453,257,o),
(424,252,o),
(414,254,c),
(369,172,o),
(252,40,o),
(177,40,cs),
(144,40,o),
(129,59,o),
(129,87,cs),
(129,151,o),
(207,262,o),
(330,307,cs),
(340,311,o),
(344,319,o),
(344,328,cs),
(344,350,o),
(317,382,o),
(293,383,c),
(257,396,o),
(245,415,o),
(245,434,cs),
(245,468,o),
(283,505,o),
(307,517,cs),
(336,532,o),
(363,537,o),
(387,537,cs),
(394,537,o),
(400,537,o),
(406,536,c),
(395,503,o),
(389,462,o),
(389,429,cs),
(389,394,o),
(397,368,o),
(417,375,c),
(422,431,o),
(453,485,o),
(483,525,cs),
(498,544,o),
(517,564,o),
(545,586,cs),
(552,591,o),
(555,597,o),
(555,602,cs),
(555,617,o),
(535,629,o),
(509,629,cs),
(481,629,o),
(446,615,o),
(422,574,c),
(404,590,o),
(374,606,o),
(329,606,cs),
(256,605,o),
(173,578,o),
(145,525,cs),
(136,509,o),
(132,494,o),
(132,480,cs),
(132,421,o),
(199,381,o),
(259,376,c),
(96,326,o),
(19,208,o),
(19,115,cs),
(19,50,o),
(60,-1,o),
(137,-1,cs)
);
}
);
};
layerId = "C623C401-2266-4A98-B253-3D45160C29C7";
shapes = (
{
closed = 1;
nodes = (
(224,-1,o),
(363,68,o),
(422,160,cs),
(445,196,o),
(453,218,o),
(453,231,cs),
(453,257,o),
(424,252,o),
(414,254,c),
(369,172,o),
(252,40,o),
(177,40,cs),
(144,40,o),
(129,59,o),
(129,87,cs),
(129,151,o),
(207,262,o),
(330,307,cs),
(340,311,o),
(344,319,o),
(344,328,cs),
(344,350,o),
(317,382,o),
(293,383,c),
(257,396,o),
(245,415,o),
(245,434,cs),
(245,468,o),
(283,505,o),
(307,517,cs),
(336,532,o),
(363,537,o),
(387,537,cs),
(394,537,o),
(400,537,o),
(406,536,c),
(395,503,o),
(389,462,o),
(389,429,cs),
(389,394,o),
(397,368,o),
(417,375,c),
(422,431,o),
(453,485,o),
(483,525,cs),
(498,544,o),
(517,564,o),
(545,586,cs),
(552,591,o),
(555,597,o),
(555,602,cs),
(555,617,o),
(535,629,o),
(509,629,cs),
(481,629,o),
(446,615,o),
(422,574,c),
(404,590,o),
(374,606,o),
(329,606,cs),
(256,605,o),
(173,578,o),
(145,525,cs),
(136,509,o),
(132,494,o),
(132,480,cs),
(132,421,o),
(199,381,o),
(259,376,c),
(96,326,o),
(19,208,o),
(19,115,cs),
(19,50,o),
(60,-1,o),
(137,-1,cs)
);
}
);
width = 430;
}
);
note = E;
unicode = 69;
}
{
color = 11;
glyphname = F;
lastChange = "2022-04-18 02:39:10 +0000";
layers = (
{
background = {
shapes = (
{
closed = 1;
nodes = (
(264,-7,o),
(267,-6,o),
(267,-4,cs),
(267,-3,o),
(266,-2,o),
(265,0,c),
(258,8,o),
(254,21,o),
(254,38,cs),
(254,83,o),
(279,154,o),
(322,236,c),
(368,246,o),
(400,269,o),
(419,308,c),
(417,306,o),
(409,301,o),
(375,300,c),
(372,299,o),
(365,300,o),
(357,301,c),
(396,367,o),
(444,438,o),
(499,510,cs),
(510,524,o),
(514,537,o),
(514,549,cs),
(514,556,o),
(513,562,o),
(511,568,cs),
(505,588,o),
(486,622,o),
(463,627,cs),
(390,641,o),
(198,499,o),
(127,499,cs),
(120,499,o),
(114,501,o),
(109,504,c),
(107,506,o),
(103,505,o),
(103,509,cs),
(103,512,o),
(104,516,o),
(108,523,cs),
(110,527,o),
(105,529,o),
(98,529,cs),
(91,529,o),
(83,527,o),
(80,523,cs),
(53,484,o),
(33,438,o),
(33,408,cs),
(33,393,o),
(38,382,o),
(50,378,cs),
(60,374,o),
(70,373,o),
(80,373,cs),
(177,373,o),
(289,532,o),
(346,553,cs),
(355,556,o),
(359,553,o),
(359,547,cs),
(359,526,o),
(323,470,o),
(316,460,cs),
(288,416,o),
(263,367,o),
(241,319,c),
(234,320,o),
(229,322,o),
(224,323,cs),
(212,326,o),
(202,327,o),
(193,327,cs),
(159,327,o),
(139,306,o),
(119,248,cs),
(116,239,o),
(165,236,o),
(206,234,c),
(182,173,o),
(167,120,o),
(163,90,cs),
(162,82,o),
(161,74,o),
(161,66,cs),
(161,15,o),
(192,-7,o),
(257,-7,cs)
);
}
);
};
layerId = "C623C401-2266-4A98-B253-3D45160C29C7";
shapes = (
{
closed = 1;
nodes = (
(264,-7,o),
(267,-6,o),
(267,-4,cs),
(267,-3,o),
(266,-2,o),
(265,0,c),
(258,8,o),
(254,21,o),
(254,38,cs),
(254,83,o),
(279,154,o),
(322,236,c),
(368,246,o),
(400,269,o),
(419,308,c),
(417,306,o),
(409,301,o),
(375,300,c),
(372,299,o),
(365,300,o),
(357,301,c),
(396,367,o),
(444,438,o),
(499,510,cs),
(510,524,o),
(514,537,o),
(514,549,cs),
(514,556,o),
(513,562,o),
(511,568,cs),
(505,588,o),
(486,622,o),
(463,627,cs),
(390,641,o),
(198,499,o),
(127,499,cs),
(120,499,o),
(114,501,o),
(109,504,c),
(107,506,o),
(103,505,o),
(103,509,cs),
(103,512,o),
(104,516,o),
(108,523,cs),
(110,527,o),
(105,529,o),
(98,529,cs),
(91,529,o),
(83,527,o),
(80,523,cs),
(53,484,o),
(33,438,o),
(33,408,cs),
(33,393,o),
(38,382,o),
(50,378,cs),
(60,374,o),
(70,373,o),
(80,373,cs),
(177,373,o),
(289,532,o),
(346,553,cs),
(355,556,o),
(359,553,o),
(359,547,cs),
(359,526,o),
(323,470,o),
(316,460,cs),
(288,416,o),
(263,367,o),
(241,319,c),
(234,320,o),
(229,322,o),
(224,323,cs),
(212,326,o),
(202,327,o),
(193,327,cs),
(159,327,o),
(139,306,o),
(119,248,cs),
(116,239,o),
(165,236,o),
(206,234,c),
(182,173,o),
(167,120,o),
(163,90,cs),
(162,82,o),
(161,74,o),
(161,66,cs),
(161,15,o),
(192,-7,o),
(257,-7,cs)
);
}
);
width = 387;
}
);
note = F;
unicode = 70;
}
{
glyphname = G;
lastChange = "2022-04-19 21:09:48 +0000";
layers = (
{
anchors = (
{
name = bottom;
pos = (99,30);
},
{
name = top;
pos = (408,600);
}
);
background = {
anchors = (
{
name = bottom;
pos = (235,0);
},
{
name = top;
pos = (235,633);
}
);
shapes = (
{
closed = 1;
nodes = (
(254,-129,o),
(300,-99,o),
(340,-45,cs),
(362,-15,o),
(405,55,o),
(432,129,cs),
(475,243,o),
(515,301,o),
(528,307,c),
(534,311,o),
(537,315,o),
(537,318,cs),
(537,321,o),
(534,323,o),
(529,323,cs),
(420,323,ls),
(389,323,o),
(377,299,o),
(363,263,cs),
(331,189,ls),
(296,111,o),
(250,42,o),
(203,42,cs),
(169,42,o),
(157,68,o),
(157,106,cs),
(157,156,o),
(179,226,o),
(204,284,cs),
(219,320,o),
(267,416,o),
(314,480,cs),
(359,540,o),
(398,564,o),
(423,564,cs),
(443,564,o),
(455,549,o),
(455,526,cs),
(455,483,o),
(410,405,o),
(386,373,cs),
(383,369,o),
(381,366,o),
(381,364,cs),
(381,361,o),
(384,359,o),
(390,359,cs),
(395,359,ls),
(444,365,o),
(517,440,o),
(517,497,cs),
(517,552,o),
(474,605,o),
(376,605,cs),
(332,605,o),
(283,586,o),
(242,552,cs),
(203,518,o),
(139,436,o),
(94,332,cs),
(66,265,o),
(45,192,o),
(45,132,cs),
(45,56,o),
(77,0,o),
(165,0,cs),
(220,0,o),
(265,42,o),
(302,95,c),
(291,62,o),
(281,36,o),
(276,24,cs),
(251,-35,o),
(237,-93,o),
(187,-93,cs),
(176,-93,o),
(163,-90,o),
(147,-83,cs),
(144,-82,o),
(141,-81,o),
(138,-81,cs),
(130,-81,o),
(126,-86,o),
(126,-92,cs),
(126,-96,o),
(128,-101,o),
(133,-105,cs),
(156,-124,o),
(182,-129,o),
(206,-129,cs)
);
}
);
};
layerId = "C623C401-2266-4A98-B253-3D45160C29C7";
shapes = (
{
closed = 1;
nodes = (
(289,47,o),
(272,-2,o),
(250,-49,cs),
(231,-90,o),
(211,-103,o),
(188,-103,cs),
(163,-103,o),
(148,-91,o),
(137,-91,cs),
(131,-91,o),
(126,-95,o),
(126,-102,cs),
(126,-120,o),
(166,-139,o),
(203,-139,cs),
(252,-139,o),
(293,-117,o),
(340,-55,cs),
(372,-12,o),
(401,44,o),
(423,98,cs),
(479,236,o),
(498,266,o),
(522,292,cs),
(531,301,o),
(537,304,o),
(537,308,cs),
(537,311,o),
(535,313,o),
(528,313,cs),
(428,313,ls),
(393,313,o),
(385,305,o),
(363,253,cs),
(292,89,o),
(240,32,o),
(201,32,cs),
(175,32,o),
(157,51,o),
(157,96,cs),
(157,183,o),
(222,351,o),
(316,484,cs),
(360,546,o),
(402,569,o),
(427,569,cs),
(447,569,o),
(464,554,o),
(464,531,cs),
(464,499,o),
(429,421,o),
(396,379,cs),
(393,375,o),
(390,372,o),
(390,369,cs),
(390,366,o),
(393,364,o),
(399,364,cs),
(449,364,o),
(532,447,o),
(532,505,cs),
(532,571,o),
(476,610,o),
(389,610,cs),
(344,610,o),
(282,586,o),
(245,553,cs),
(149,470,o),
(45,253,o),
(45,122,cs),
(45,35,o),
(87,-10,o),
(165,-10,cs),
(220,-10,o),
(265,32,o),
(302,85,c)
);
}
);
width = 492;
}
);
note = G;
unicode = 71;
}
{
color = 11;
glyphname = H;
lastChange = "2022-04-18 15:51:00 +0000";
layers = (
{
anchors = (
{
name = bottom;
pos = (252,0);
},
{
name = center;
pos = (252,300);
},
{
name = top;
pos = (520,600);
},
{
name = topleft;
pos = (22,600);
}
);
background = {
anchors = (
{
name = bottom;
pos = (252,0);
},
{
name = center;
pos = (252,317);
},
{
name = top;
pos = (252,633);
},
{
name = topleft;
pos = (22,633);
}
);
shapes = (
{
closed = 1;
nodes = (
(160,-28,o),
(164,-25,o),
(164,-21,cs),
(164,-19,o),
(163,-17,o),
(162,-15,c),
(158,-11,o),
(156,-3,o),
(156,7,cs),
(156,35,o),
(171,84,o),
(194,141,c),
(238,110,o),
(289,61,o),
(323,30,c),
(330,18,o),
(340,8,o),
(355,3,cs),
(359,1,o),
(360,1,o),
(361,2,c),
(375,-2,o),
(393,-4,o),
(403,-9,cs),
(410,-13,o),
(414,-10,o),
(414,-6,cs),
(414,-4,o),
(413,-2,o),
(412,0,cs),
(408,5,o),
(406,12,o),
(406,22,cs),
(406,130,o),
(615,525,o),
(681,573,cs),
(685,576,o),
(686,578,o),
(686,580,cs),
(686,590,o),
(654,597,o),
(618,597,cs),
(549,597,o),
(519,570,o),
(481,507,cs),
(462,476,o),
(401,369,o),
(358,261,c),
(249,263,l),
(317,402,o),
(403,545,o),
(442,573,cs),
(446,576,o),
(447,578,o),
(447,580,cs),
(447,591,o),
(415,598,o),
(377,598,cs),
(306,598,o),
(274,569,o),
(235,505,cs),
(216,474,o),
(159,372,o),
(116,267,c),
(97,267,l),
(92,268,o),
(86,269,o),
(81,269,cs),
(77,269,o),
(74,268,o),
(70,268,cs),
(42,265,o),
(20,243,o),
(20,224,cs),
(20,213,o),
(27,204,o),
(45,200,cs),
(60,197,o),
(73,194,o),
(87,189,c),
(72,144,o),
(63,101,o),
(63,66,cs),
(63,27,o),
(75,-1,o),
(105,-12,cs),
(119,-16,o),
(141,-19,o),
(153,-24,cs)
);
},
{
closed = 1;
nodes = (
(293,106,o),
(258,154,o),
(217,195,c),
(235,235,l),
(272,233,o),
(310,232,o),
(347,232,c),
(326,174,o),
(311,117,o),
(313,75,c)
);
}
);
};
guides = (
{
pos = (180,-26);
}
);
layerId = "C623C401-2266-4A98-B253-3D45160C29C7";
shapes = (
{
closed = 1;
nodes = (
(75,35,o),
(84,15,o),
(104,3,cs),
(123,-8,o),
(163,-19,o),
(175,-19,cs),
(179,-19,o),
(181,-18,o),
(181,-15,cs),
(181,-12,o),
(178,-9,o),
(176,-4,cs),
(173,2,o),
(171,10,o),
(171,24,cs),
(171,76,o),
(216,227,o),
(271,343,cs),
(329,465,o),
(389,550,o),
(425,587,cs),
(435,597,o),
(440,601,o),
(440,606,cs),
(440,615,o),
(408,620,o),
(374,618,cs),
(312,614,o),
(288,591,o),
(245,530,cs),
(211,481,o),
(177,410,o),
(153,355,cs),
(100,236,o),
(73,128,o),
(74,68,cs)
);
},
{
closed = 1;
nodes = (
(419,83,o),
(462,227,o),
(517,343,cs),
(575,465,o),
(635,550,o),
(671,587,cs),
(681,597,o),
(686,601,o),
(686,606,cs),
(686,615,o),
(654,620,o),
(620,618,cs),
(558,614,o),
(534,591,o),
(491,530,cs),
(457,481,o),
(423,410,o),
(399,355,cs),
(358,261,o),
(322,138,o),
(343,68,c),
(342,67,l),
(226,262,o),
(123,278,o),
(86,278,cs),
(58,278,o),
(30,256,o),
(30,234,cs),
(30,222,o),
(39,213,o),
(55,210,cs),
(196,186,o),
(280,42,o),
(356,-1,cs),
(386,-18,o),
(409,-19,o),
(418,-19,cs),
(426,-19,o),
(430,-17,o),
(430,-13,cs),
(430,-10,o),
(428,-8,o),
(426,-4,cs),
(421,6,o),
(419,18,o),
(419,33,cs)
);
}
);
width = 521;
}
);
note = H;
unicode = 72;
}
{
color = 11;
glyphname = I;
lastChange = "2022-04-18 02:39:10 +0000";
layers = (
{
anchors = (
{
name = bottom;
pos = (121,-31);
},
{
name = ogonek;
pos = (146,-8);
},
{
name = top;
pos = (417,600);
},
{
name = topleft;
pos = (20,600);
}
);
background = {
anchors = (
{
name = bottom;
pos = (182,0);
},
{
name = ogonek;
pos = (328,10);
},
{
name = top;
pos = (182,633);
},
{
name = topleft;
pos = (20,633);
}
);
shapes = (
{
closed = 1;
nodes = (
(138,-31,o),
(180,-16,o),
(204,-1,cs),
(260,37,o),
(315,141,o),
(357,238,cs),
(392,320,o),
(453,507,o),
(460,556,cs),
(464,589,o),
(448,604,o),
(417,604,cs),
(318,604,o),
(189,504,o),
(146,421,cs),
(129,388,o),
(123,368,o),
(123,355,cs),
(123,328,o),
(150,335,o),
(159,334,c),
(191,406,o),
(255,519,o),
(322,544,c),
(318,524,ls),
(293,386,o),
(198,138,o),
(131,52,cs),
(125,44,o),
(101,15,o),
(76,12,cs),
(45,9,o),
(34,23,o),
(23,30,cs),
(16,34,o),
(6,30,o),
(6,20,cs),
(6,15,o),
(8,9,o),
(14,1,cs),
(30,-19,o),
(57,-31,o),
(91,-31,cs)
);
}
);
};
layerId = "C623C401-2266-4A98-B253-3D45160C29C7";
shapes = (
{
closed = 1;
nodes = (
(138,-31,o),
(180,-16,o),
(204,-1,cs),
(260,37,o),
(315,141,o),
(357,238,cs),
(392,320,o),
(453,507,o),
(460,556,cs),
(464,589,o),
(448,604,o),
(417,604,cs),
(318,604,o),
(189,504,o),
(146,421,cs),
(129,388,o),
(123,368,o),
(123,355,cs),
(123,328,o),
(150,335,o),
(159,334,c),
(191,406,o),
(255,519,o),
(322,544,c),
(318,524,ls),
(290,386,o),
(198,138,o),
(131,52,cs),
(125,44,o),
(101,15,o),
(76,12,cs),
(45,9,o),
(34,23,o),
(23,30,cs),
(16,34,o),
(6,30,o),
(6,20,cs),
(6,15,o),
(8,9,o),
(14,1,cs),
(30,-19,o),
(57,-31,o),
(91,-31,cs)
);
}
);
width = 364;
}
);
note = I;
unicode = 73;
}
{
glyphname = J;
lastChange = "2022-06-03 20:39:40 +0000";
layers = (
{
anchors = (
{
name = bottom;
pos = (214,-20);
},
{
name = top;
pos = (453,600);
}
);
background = {
anchors = (
{
name = bottom;
pos = (214,0);
},
{
name = top;
pos = (453,620);
}
);
shapes = (
{
closed = 1;
nodes = (
(271,-7,o),
(344,132,o),
(396,255,cs),
(428,331,o),
(484,485,o),
(505,565,c),
(543,565,o),
(573,562,o),
(577,554,cs),
(579,551,o),
(583,551,o),
(583,557,cs),
(582,564,o),
(584,574,o),
(584,582,cs),
(584,620,o),
(505,630,o),
(425,630,cs),
(353,630,o),
(281,622,o),
(263,618,cs),
(229,611,o),
(223,605,o),
(212,572,cs),
(209,562,o),
(207,552,o),
(207,545,cs),
(207,536,o),
(210,530,o),
(213,531,cs),
(223,534,o),
(244,539,o),
(271,544,cs),
(298,549,o),
(330,552,o),
(363,557,cs),
(370,558,l),
(345,438,o),
(266,227,o),
(206,116,cs),
(176,61,o),
(144,27,o),
(117,27,cs),
(98,27,o),
(88,45,o),
(88,73,cs),
(88,104,o),
(102,153,o),
(127,200,cs),
(155,253,o),
(197,304,o),
(241,326,cs),
(247,329,o),
(251,331,o),
(251,335,cs),
(251,342,o),
(240,346,o),
(222,346,cs),
(165,346,o),
(106,304,o),
(66,245,cs),
(35,200,o),
(15,145,o),
(15,92,cs),
(15,34,o),
(44,-7,o),
(112,-7,cs)
);
}
);
};
layerId = "C623C401-2266-4A98-B253-3D45160C29C7";
shapes = (
{
closed = 1;
nodes = (
(211,509,o),
(217,512,cs),
(258,530,o),
(409,544,o),
(456,544,cs),
(471,544,o),
(508,547,o),
(539,542,cs),
(568,537,o),
(575,531,o),
(579,531,cs),
(582,531,o),
(584,534,o),
(584,555,cs),
(584,569,o),
(583,577,o),
(568,587,cs),
(540,606,o),
(476,610,o),
(420,610,cs),
(378,610,o),
(290,605,o),
(263,598,cs),
(232,591,o),
(226,587,o),
(218,568,cs),
(213,557,o),
(207,535,o),
(207,523,cs),
(207,513,o)
);
},
{
closed = 1;
nodes = (
(372,550,l),
(350,432,o),
(268,211,o),
(206,96,cs),
(176,41,o),
(144,7,o),
(117,7,cs),
(98,7,o),
(88,25,o),
(88,53,cs),
(88,84,o),
(102,133,o),
(127,180,cs),
(155,233,o),
(197,284,o),
(241,306,cs),
(247,309,o),
(251,311,o),
(251,315,cs),
(251,322,o),
(240,326,o),
(222,326,cs),
(165,326,o),
(106,284,o),
(66,225,cs),
(35,180,o),
(15,125,o),
(15,72,cs),
(15,14,o),
(44,-27,o),
(112,-27,cs),
(229,-27,o),
(318,54,o),
(387,214,cs),
(430,315,o),
(489,479,o),
(508,555,c)
);
}
);
width = 434;
}
);
note = J;
unicode = 74;
}
{
glyphname = K;
lastChange = "2022-06-03 18:14:01 +0000";
layers = (
{
anchors = (
{
name = bottom;
pos = (426,2);
},
{
name = top;
pos = (358,602);
}
);
background = {
anchors = (
{
name = bottom;
pos = (358,0);
},
{
name = top;
pos = (358,633);
}
);
shapes = (
{
closed = 1;
nodes = (
(627,-15,o),
(679,58,o),
(668,56,cs),
(616,46,o),
(525,288,o),
(522,306,c),
(599,346,o),
(770,451,o),
(770,554,cs),
(770,585,o),
(750,598,o),
(730,598,cs),
(719,598,o),
(707,595,o),
(698,588,cs),
(627,541,o),
(563,335,o),
(408,305,c),
(458,400,o),
(513,491,o),
(539,529,cs),
(549,542,o),
(556,554,o),
(556,567,cs),
(556,572,o),
(555,577,o),
(553,582,cs),
(544,601,o),
(528,623,o),
(510,627,cs),
(437,641,o),
(244,499,o),
(173,499,cs),
(162,499,o),
(151,502,o),
(151,511,cs),
(151,514,o),
(153,518,o),
(155,523,cs),
(157,526,o),
(158,529,o),
(158,531,cs),
(158,536,o),
(155,538,o),
(150,538,cs),
(144,538,o),
(134,534,o),
(127,523,cs),
(100,484,o),
(80,438,o),
(80,408,cs),
(80,393,o),
(85,382,o),
(97,378,cs),
(107,374,o),
(118,372,o),
(128,372,cs),
(224,372,o),
(328,522,o),
(383,546,cs),
(391,550,o),
(394,547,o),
(394,542,cs),
(394,524,o),
(363,474,o),
(358,464,cs),
(322,398,o),
(211,196,o),
(211,81,cs),
(211,42,o),
(224,14,o),
(255,3,cs),
(269,-2,o),
(291,-4,o),
(303,-9,cs),
(310,-13,o),
(314,-10,o),
(314,-6,cs),
(314,-4,o),
(313,-2,o),
(312,0,c),
(306,7,o),
(303,17,o),
(303,31,cs),
(303,83,o),
(344,179,o),
(393,275,c),
(399,275,ls),
(408,274,o),
(420,275,o),
(435,278,c),
(436,275,l),
(443,226,o),
(466,-15,o),
(574,-15,cs)
);
}
);
};
layerId = "C623C401-2266-4A98-B253-3D45160C29C7";
shapes = (
{
closed = 1;
nodes = (
(385,277,l),
(475,270,o),
(598,344,o),
(666,401,cs),
(725,449,o),
(770,505,o),
(770,556,cs),
(770,583,o),
(755,600,o),
(730,600,cs),
(703,600,o),
(679,579,o),
(635,517,cs),
(590,453,o),
(527,328,o),
(398,305,c)
);
},
{
closed = 1;
nodes = (
(311,-5,o),
(314,-4,o),
(314,-2,cs),
(314,0,o),
(310,3,o),
(307,10,cs),
(304,16,o),
(303,23,o),
(303,34,cs),
(303,95,o),
(366,228,o),
(416,321,cs),
(471,423,o),
(498,469,o),
(537,528,cs),
(552,551,o),
(556,557,o),
(556,571,cs),
(556,589,o),
(530,630,o),
(500,630,cs),
(453,630,o),
(378,590,o),
(309,555,cs),
(254,526,o),
(203,501,o),
(175,501,cs),
(160,501,o),
(151,506,o),
(151,515,cs),
(151,522,o),
(157,530,o),
(157,535,cs),
(157,539,o),
(154,541,o),
(149,541,cs),
(142,541,o),
(133,535,o),
(116,509,cs),
(99,483,o),
(80,437,o),
(80,410,cs),
(80,384,o),
(94,374,o),
(128,374,cs),
(167,374,o),
(217,398,o),
(296,475,cs),
(341,519,o),
(377,550,o),
(389,550,cs),
(393,550,o),
(394,548,o),
(394,544,cs),
(394,526,o),
(366,481,o),
(338,429,cs),
(294,347,o),
(211,182,o),
(211,80,cs),
(211,29,o),
(239,-5,o),
(304,-5,cs)
);
},
{
closed = 1;
nodes = (
(432,299,l),
(444,228,o),
(464,-13,o),
(574,-13,cs),
(621,-13,o),
(671,45,o),
(671,58,cs),
(671,60,o),
(670,62,o),
(667,62,cs),
(665,62,o),
(663,61,o),
(659,61,cs),
(614,61,o),
(522,290,o),
(517,327,c)
);
}
);
width = 680;
}
);
note = K;
unicode = 75;
}
{
glyphname = L;
lastChange = "2022-09-20 20:28:11 +0000";
layers = (
{
anchors = (
{
name = bottom;
pos = (215,-10);
},
{
name = center;
pos = (215,290);
},
{
name = top;
pos = (398,590);
},
{
name = topright;
pos = (484,590);
}
);
background = {
anchors = (
{
name = bottom;
pos = (215,0);
},
{
name = center;
pos = (215,317);
},
{
name = top;
pos = (215,633);
},
{
name = topright;
pos = (405,633);
}
);
shapes = (
{
closed = 1;
nodes = (
(170,-3,o),
(195,7,o),
(236,12,cs),
(275,16,o),
(314,19,o),
(347,19,cs),
(391,19,o),
(423,14,o),
(423,3,cs),
(423,5,ls),
(422,13,o),
(425,27,o),
(425,36,cs),
(425,83,o),
(351,95,o),
(275,95,cs),
(231,95,o),
(187,91,o),
(155,87,c),
(168,126,o),
(190,181,o),
(214,233,c),
(339,294,o),
(457,427,o),
(457,523,cs),
(457,555,o),
(424,578,o),
(389,589,cs),
(372,594,o),
(355,597,o),
(340,597,cs),
(275,595,o),
(260,586,o),
(223,523,cs),
(201,486,o),
(123,349,o),
(80,225,c),
(70,226,o),
(61,228,o),
(51,232,cs),
(38,237,o),
(26,227,o),
(26,219,cs),
(26,215,o),
(29,212,o),
(34,210,cs),
(46,205,o),
(59,202,o),
(72,201,c),
(58,158,o),
(49,117,o),
(49,84,cs),
(49,47,o),
(60,20,o),
(87,9,cs),
(108,0,o),
(125,-3,o),
(141,-3,cs)
);
},
{
closed = 1;
nodes = (
(242,294,ls),
(272,359,o),
(361,547,o),
(391,547,cs),
(399,547,o),
(403,538,o),
(403,524,cs),
(403,506,o),
(396,480,o),
(381,451,cs),
(353,399,o),
(299,328,o),
(235,280,c)
);
}
);
};
layerId = "C623C401-2266-4A98-B253-3D45160C29C7";
shapes = (
{
closed = 1;
nodes = (
(231,85,o),
(187,81,o),
(155,77,c),
(168,116,o),
(192,185,o),
(216,237,c),
(341,298,o),
(457,437,o),
(457,533,cs),
(457,582,o),
(387,607,o),
(334,607,cs),
(281,607,o),
(256,592,o),
(223,533,cs),
(202,496,o),
(136,369,o),
(94,256,c),
(75,257,o),
(62,261,o),
(54,261,cs),
(44,261,o),
(35,254,o),
(35,245,cs),
(35,239,o),
(39,233,o),
(48,230,cs),
(61,225,o),
(76,224,o),
(82,223,c),
(67,176,o),
(49,117,o),
(49,74,cs),
(49,37,o),
(60,10,o),
(87,-1,cs),
(108,-10,o),
(125,-13,o),
(141,-13,cs),
(166,-13,o),
(193,-5,o),
(226,0,cs),
(268,6,o),
(302,9,o),
(328,9,cs),
(343,9,o),
(359,9,o),
(380,6,cs),
(409,2,o),
(416,-5,o),
(420,-5,cs),
(423,-5,o),
(425,-2,o),
(425,19,cs),
(425,39,o),
(421,50,o),
(406,60,cs),
(378,79,o),
(331,85,o),
(275,85,cs)
);
},
{
closed = 1;
nodes = (
(258,339,o),
(317,463,o),
(356,521,cs),
(370,543,o),
(383,557,o),
(391,557,cs),
(399,557,o),
(403,548,o),
(403,534,cs),
(403,504,o),
(386,466,o),
(371,437,cs),
(343,385,o),
(295,330,o),
(231,282,c)
);
}
);
width = 417;
}
);
note = L;
unicode = 76;
}
{
glyphname = M;
lastChange = "2022-04-19 21:16:53 +0000";
layers = (
{
background = {
shapes = (
{
closed = 1;
nodes = (
(714,-92,o),
(728,-87,o),
(736,-79,c),
(729,-69,o),
(727,-54,o),
(727,-36,cs),
(727,88,o),
(861,371,o),
(893,429,cs),
(910,461,o),
(934,506,o),
(934,546,cs),
(934,572,o),
(923,595,o),
(894,610,cs),
(871,622,o),
(858,629,o),
(847,629,cs),
(839,629,o),
(831,625,o),
(820,617,cs),
(807,607,o),
(646,421,o),
(578,336,c),
(634,423,o),
(682,490,o),
(682,533,cs),
(682,549,o),
(676,562,o),
(661,571,cs),
(644,582,o),
(629,585,o),
(615,585,cs),
(590,585,o),
(571,573,o),
(564,568,cs),
(527,540,o),
(409,399,o),
(351,322,cs),
(346,315,o),
(344,327,o),
(352,340,cs),
(372,370,o),
(416,429,o),
(442,462,cs),
(458,484,o),
(517,551,o),
(511,568,cs),
(505,588,o),
(486,622,o),
(463,627,cs),
(390,641,o),
(197,499,o),
(126,499,cs),
(115,499,o),
(104,502,o),
(104,511,cs),
(104,514,o),
(106,518,o),
(108,523,cs),
(110,526,o),
(111,529,o),
(111,531,cs),
(111,536,o),
(108,538,o),
(103,538,cs),
(97,538,o),
(87,534,o),
(80,523,cs),
(53,484,o),
(33,438,o),
(33,408,cs),
(33,393,o),
(38,382,o),
(50,378,cs),
(60,374,o),
(70,373,o),
(80,373,cs),
(177,373,o),
(289,532,o),
(346,553,cs),
(354,556,o),
(358,554,o),
(358,549,cs),
(358,530,o),
(313,469,o),
(307,459,cs),
(226,326,o),
(169,155,o),
(161,89,cs),
(160,81,o),
(159,74,o),
(159,68,cs),
(159,15,o),
(191,-7,o),
(257,-7,cs),
(264,-7,o),
(267,-6,o),
(267,-4,cs),
(267,-3,o),
(266,-2,o),
(265,0,c),
(258,8,o),
(254,20,o),
(254,35,cs),
(254,192,o),
(454,418,o),
(561,515,c),
(547,492,o),
(501,413,o),
(473,347,cs),
(439,268,o),
(409,176,o),
(409,108,cs),
(409,51,o),
(431,10,o),
(492,10,cs),
(506,10,o),
(516,14,o),
(516,20,cs),
(516,21,o),
(515,22,o),
(515,23,c),
(511,30,o),
(509,41,o),
(509,54,cs),
(509,106,o),
(538,194,o),
(549,220,cs),
(607,352,o),
(757,494,o),
(799,531,c),
(749,448,o),
(625,188,o),
(625,30,cs),
(625,-30,o),
(643,-75,o),
(690,-90,cs),
(694,-91,o),
(698,-92,o),
(702,-92,cs)
);
}
);
};
layerId = "C623C401-2266-4A98-B253-3D45160C29C7";
shapes = (
{
closed = 1;
nodes = (
(571,326,l),
(604,376,o),
(682,493,o),
(682,531,cs),
(682,549,o),
(676,563,o),
(655,575,cs),
(648,580,o),
(628,585,o),
(616,585,cs),
(601,585,o),
(583,580,o),
(569,571,cs),
(541,554,o),
(413,405,o),
(353,324,c),
(351,326,l),
(384,388,o),
(456,478,o),
(475,504,cs),
(495,531,o),
(511,552,o),
(511,565,cs),
(511,577,o),
(488,628,o),
(453,628,cs),
(406,628,o),
(331,588,o),
(262,553,cs),
(207,524,o),
(156,499,o),
(128,499,cs),
(113,499,o),
(104,504,o),
(104,513,cs),
(104,520,o),
(110,528,o),
(110,533,cs),
(110,537,o),
(107,539,o),
(102,539,cs),
(95,539,o),
(86,533,o),
(69,507,cs),
(52,481,o),
(33,435,o),
(33,408,cs),
(33,382,o),
(45,373,o),
(79,373,cs),
(118,373,o),
(170,399,o),
(249,475,cs),
(294,518,o),
(335,554,o),
(352,554,cs),
(356,554,o),
(358,552,o),
(358,548,cs),
(358,530,o),
(313,471,o),
(283,418,cs),
(240,340,o),
(159,149,o),
(159,67,cs),
(159,16,o),
(192,-7,o),
(257,-7,cs),
(264,-7,o),
(267,-6,o),
(267,-4,cs),
(267,-2,o),
(264,1,o),
(260,8,cs),
(257,13,o),
(254,25,o),
(254,36,cs),
(254,95,o),
(283,164,o),
(325,234,cs),
(393,345,o),
(493,454,o),
(560,514,c),
(505,427,o),
(409,234,o),
(409,108,cs),
(409,45,o),
(437,10,o),
(487,10,cs),
(501,10,o),
(515,14,o),
(519,21,c),
(513,29,o),
(508,41,o),
(508,60,cs),
(508,85,o),
(519,151,o),
(549,220,cs),
(607,352,o),
(757,494,o),
(799,531,c),
(749,448,o),
(625,188,o),
(625,30,cs),
(625,-44,o),
(655,-91,o),
(703,-91,cs),
(715,-91,o),
(728,-87,o),
(736,-79,c),
(729,-69,o),
(727,-54,o),
(727,-36,cs),
(727,88,o),
(861,371,o),
(893,429,cs),
(910,461,o),
(934,506,o),
(934,546,cs),
(934,572,o),
(925,592,o),
(894,610,cs),
(873,622,o),
(858,629,o),
(849,629,cs),
(839,629,o),
(830,625,o),
(820,617,cs),
(793,594,o),
(646,421,o),
(573,324,c)
);
}
);
width = 829;
}
);
note = M;
unicode = 77;
}
{
glyphname = N;
lastChange = "2022-06-03 20:33:02 +0000";
layers = (
{
anchors = (
{
name = bottom;
pos = (420,20);
},
{
name = top;
pos = (636,600);
}
);
background = {
anchors = (
{
name = bottom;
pos = (379,0);
},
{
name = top;
pos = (379,633);
}
);
shapes = (
{
closed = 1;
nodes = (
(326,-7,o),
(329,-6,o),
(329,-4,cs),
(329,-3,o),
(328,-2,o),
(327,0,c),
(320,8,o),
(316,21,o),
(316,36,cs),
(316,206,o),
(512,418,o),
(620,515,c),
(615,499,o),
(600,464,o),
(582,424,cs),
(549,353,o),
(476,208,o),
(476,106,cs),
(476,54,o),
(504,-1,o),
(559,-1,cs),
(574,-1,o),
(590,3,o),
(594,11,c),
(587,20,o),
(583,40,o),
(583,65,cs),
(583,97,o),
(590,138,o),
(604,179,cs),
(634,264,o),
(687,356,o),
(750,480,cs),
(760,500,o),
(767,523,o),
(767,544,cs),
(767,570,o),
(757,594,o),
(729,609,cs),
(711,619,o),
(699,626,o),
(686,626,cs),
(678,626,o),
(669,623,o),
(659,615,cs),
(622,587,o),
(485,426,o),
(414,323,cs),
(409,316,o),
(408,330,o),
(416,343,cs),
(436,373,o),
(478,429,o),
(504,462,cs),
(520,484,o),
(579,551,o),
(573,568,cs),
(567,588,o),
(548,622,o),
(525,627,cs),
(452,641,o),
(259,499,o),
(188,499,cs),
(177,499,o),
(166,502,o),
(166,511,cs),
(166,514,o),
(168,518,o),
(170,523,cs),
(172,526,o),
(173,529,o),
(173,531,cs),
(173,536,o),
(170,538,o),
(165,538,cs),
(159,538,o),
(149,534,o),
(142,523,cs),
(115,484,o),
(95,438,o),
(95,408,cs),
(95,393,o),
(100,382,o),
(112,378,cs),
(122,374,o),
(132,373,o),
(142,373,cs),
(239,373,o),
(351,532,o),
(408,553,cs),
(416,556,o),
(420,554,o),
(420,549,cs),
(420,530,o),
(375,469,o),
(369,459,cs),
(288,326,o),
(231,155,o),
(223,89,cs),
(222,81,o),
(221,74,o),
(221,68,cs),
(221,15,o),
(253,-7,o),
(319,-7,cs)
);
}
);
};
layerId = "C623C401-2266-4A98-B253-3D45160C29C7";
shapes = (
{
closed = 1;
nodes = (
(454,390,o),
(518,468,o),
(537,494,cs),
(557,521,o),
(573,542,o),
(573,555,cs),
(573,567,o),
(550,618,o),
(515,618,cs),
(468,618,o),
(393,578,o),
(324,543,cs),
(269,514,o),
(218,489,o),
(190,489,cs),
(175,489,o),
(166,494,o),
(166,503,cs),
(166,510,o),
(172,518,o),
(172,523,cs),
(172,527,o),
(169,529,o),
(164,529,cs),
(157,529,o),
(148,523,o),
(131,497,cs),
(114,471,o),
(95,425,o),
(95,398,cs),
(95,372,o),
(107,363,o),
(141,363,cs),
(180,363,o),
(232,389,o),
(311,465,cs),
(356,508,o),
(397,544,o),
(414,544,cs),
(418,544,o),
(420,542,o),
(420,538,cs),
(420,520,o),
(375,461,o),
(345,408,cs),
(302,330,o),
(221,139,o),
(221,57,cs),
(221,6,o),
(254,-17,o),
(319,-17,cs),
(326,-17,o),
(329,-16,o),
(329,-14,cs),
(329,-12,o),
(326,-9,o),
(322,-2,cs),
(319,3,o),
(316,15,o),
(316,26,cs),
(316,196,o),
(512,408,o),
(620,505,c),
(615,489,o),
(600,454,o),
(582,414,cs),
(549,343,o),
(476,198,o),
(476,96,cs),
(476,44,o),
(504,-11,o),
(559,-11,cs),
(574,-11,o),
(590,-7,o),
(594,1,c),
(587,10,o),
(583,30,o),
(583,55,cs),
(583,87,o),
(590,128,o),
(604,169,cs),
(634,254,o),
(687,346,o),
(750,470,cs),
(760,490,o),
(767,513,o),
(767,534,cs),
(767,560,o),
(759,581,o),
(729,599,cs),
(711,610,o),
(699,616,o),
(686,616,cs),
(678,616,o),
(669,613,o),
(659,605,cs),
(624,578,o),
(496,429,o),
(423,326,c),
(421,328,l)
);
}
);
width = 667;
}
);
note = N;
unicode = 78;
}
{
glyphname = O;
lastChange = "2022-06-02 01:38:06 +0000";
layers = (
{
anchors = (
{
name = bottom;
pos = (169,0);
},
{
name = center;
pos = (254,300);
},
{
name = ogonek;
pos = (198,10);
},
{
name = top;
pos = (444,600);
},
{
name = topleft;
pos = (39,600);
},
{
name = topright;
pos = (469,600);
}
);
background = {
anchors = (
{
name = bottom;
pos = (274,0);
},
{
name = center;
pos = (274,317);
},
{
name = ogonek;
pos = (462,10);
},
{
name = top;
pos = (274,633);
},
{
name = topleft;
pos = (59,633);
},
{
name = topright;
pos = (489,633);
}
);
shapes = (
{
closed = 1;
nodes = (
(280,-10,o),
(332,7,o),
(371,38,cs),
(433,86,o),
(487,169,o),
(522,245,cs),
(542,288,o),
(563,355,o),
(563,417,cs),
(563,473,o),
(545,524,o),
(493,547,cs),
(486,550,o),
(480,551,o),
(475,551,cs),
(468,551,o),
(463,549,o),
(463,544,cs),
(463,542,o),
(465,539,o),
(468,535,cs),
(481,520,o),
(488,492,o),
(488,455,cs),
(488,404,o),
(474,338,o),
(443,272,cs),
(367,112,o),
(292,27,o),
(238,27,cs),
(213,27,o),
(204,47,o),
(204,78,cs),
(204,143,o),
(247,257,o),
(276,320,cs),
(307,388,o),
(346,461,o),
(384,506,cs),
(417,543,o),
(458,583,o),
(495,583,cs),
(507,583,o),
(519,578,o),
(530,569,cs),
(534,565,o),
(537,564,o),
(540,564,cs),
(547,564,o),
(550,573,o),
(550,581,cs),
(550,587,o),
(548,593,o),
(545,596,cs),
(530,612,o),
(493,621,o),
(453,621,cs),
(372,621,o),
(312,594,o),
(254,542,cs),
(148,448,o),
(80,282,o),
(80,150,cs),
(80,142,o),
(80,134,o),
(81,126,cs),
(86,31,o),
(155,-10,o),
(231,-10,cs)
);
},
{
closed = 1;
nodes = (
(240,265,o),
(272,297,o),
(272,337,cs),
(272,377,o),
(240,410,o),
(200,410,cs),
(160,410,o),
(127,377,o),
(127,337,cs),
(127,297,o),
(160,265,o),
(200,265,cs)
);
}
);
};
layerId = "C623C401-2266-4A98-B253-3D45160C29C7";
shapes = (
{
closed = 1;
nodes = (
(260,-10,o),
(314,9,o),
(351,38,cs),
(451,115,o),
(543,291,o),
(543,417,cs),
(543,480,o),
(519,527,o),
(475,546,cs),
(467,550,o),
(459,551,o),
(455,551,cs),
(448,551,o),
(443,548,o),
(443,544,cs),
(443,542,o),
(444,540,o),
(448,535,cs),
(461,520,o),
(468,492,o),
(468,455,cs),
(468,404,o),
(454,338,o),
(423,272,cs),
(352,121,o),
(273,27,o),
(218,27,cs),
(195,27,o),
(184,45,o),
(184,78,cs),
(184,131,o),
(213,226,o),
(256,320,cs),
(277,366,o),
(314,447,o),
(360,501,cs),
(391,538,o),
(437,583,o),
(475,583,cs),
(487,583,o),
(499,578,o),
(510,569,cs),
(513,566,o),
(517,564,o),
(520,564,cs),
(526,564,o),
(530,571,o),
(530,581,cs),
(530,587,o),
(529,591,o),
(525,596,cs),
(512,610,o),
(478,621,o),
(433,621,cs),
(355,621,o),
(292,594,o),
(234,542,cs),
(129,447,o),
(60,283,o),
(60,144,cs),
(60,55,o),
(109,-10,o),
(211,-10,cs)
);
}
);
width = 503;
}
);
note = O;
unicode = 79;
}
{
color = 11;
glyphname = P;
lastChange = "2022-04-18 02:39:32 +0000";
layers = (
{
background = {
shapes = (
{
closed = 1;
nodes = (
(174,-27,o),
(177,-25,o),
(177,-21,cs),
(177,-19,o),
(177,-17,o),
(175,-15,cs),
(171,-10,o),
(169,-2,o),
(169,9,cs),
(169,50,o),
(196,132,o),
(232,219,c),
(237,213,o),
(251,211,o),
(267,211,cs),
(295,211,o),
(332,217,o),
(350,223,cs),
(472,261,o),
(565,382,o),
(565,478,cs),
(565,556,o),
(502,614,o),
(368,614,cs),
(171,614,o),
(24,553,o),
(24,452,cs),
(24,417,o),
(81,405,o),
(89,404,c),
(112,526,o),
(270,583,o),
(358,583,cs),
(425,583,o),
(450,546,o),
(450,496,cs),
(450,394,o),
(348,241,o),
(286,241,cs),
(275,241,o),
(248,243,o),
(244,247,c),
(252,265,o),
(260,284,o),
(269,302,cs),
(297,361,o),
(340,456,o),
(383,505,cs),
(389,512,o),
(372,517,o),
(326,517,cs),
(284,517,o),
(250,504,o),
(225,465,cs),
(205,433,o),
(82,199,o),
(82,68,cs),
(82,30,o),
(92,1,o),
(119,-12,cs),
(132,-18,o),
(155,-19,o),
(166,-24,cs)
);
}
);
};
layerId = "C623C401-2266-4A98-B253-3D45160C29C7";
shapes = (
{
closed = 1;
nodes = (
(174,-27,o),
(177,-25,o),
(177,-21,cs),
(177,-19,o),
(177,-17,o),
(175,-15,cs),
(171,-10,o),
(169,-2,o),
(169,9,cs),
(169,50,o),
(196,132,o),
(232,219,c),
(237,213,o),
(251,211,o),
(267,211,cs),
(295,211,o),
(332,217,o),
(350,223,cs),
(472,261,o),
(565,382,o),
(565,478,cs),
(565,556,o),
(502,614,o),
(368,614,cs),
(171,614,o),
(24,553,o),
(24,452,cs),
(24,417,o),
(81,405,o),
(89,404,c),
(112,526,o),
(270,583,o),
(358,583,cs),
(425,583,o),
(450,546,o),
(450,496,cs),
(450,394,o),
(348,241,o),
(286,241,cs),
(275,241,o),
(248,243,o),
(244,247,c),
(252,265,o),
(260,284,o),
(269,302,cs),
(297,361,o),
(340,456,o),
(383,505,cs),
(389,512,o),
(372,517,o),
(326,517,cs),
(284,517,o),
(250,504,o),
(225,465,cs),
(205,433,o),
(82,199,o),
(82,68,cs),
(82,30,o),
(92,1,o),
(119,-12,cs),
(132,-18,o),
(155,-19,o),
(166,-24,cs)
);
}
);
width = 459;
}
);
note = P;
unicode = 80;
}
{
color = 11;
glyphname = Q;
lastChange = "2022-04-18 02:39:32 +0000";
layers = (
{
background = {
shapes = (
{
closed = 1;
nodes = (
(253,1,o),
(302,18,o),
(340,48,cs),
(401,96,o),
(455,177,o),
(489,252,cs),
(508,294,o),
(528,361,o),
(528,422,cs),
(528,477,o),
(511,528,o),
(460,550,cs),
(453,553,o),
(447,554,o),
(442,554,cs),
(435,554,o),
(431,552,o),
(431,547,cs),
(431,545,o),
(433,542,o),
(436,538,cs),
(449,524,o),
(455,496,o),
(455,460,cs),
(455,410,o),
(442,345,o),
(411,279,cs),
(338,122,o),
(265,38,o),
(212,38,cs),
(188,38,o),
(179,58,o),
(179,88,cs),
(179,153,o),
(221,264,o),
(249,327,cs),
(279,394,o),
(317,465,o),
(354,509,cs),
(386,546,o),
(426,585,o),
(463,585,cs),
(475,585,o),
(486,581,o),
(497,572,cs),
(501,568,o),
(504,567,o),
(507,567,cs),
(513,567,o),
(516,575,o),
(516,583,cs),
(516,589,o),
(514,596,o),
(511,599,cs),
(496,615,o),
(459,623,o),
(422,623,cs),
(342,623,o),
(284,596,o),
(227,545,cs),
(118,447,o),
(51,268,o),
(59,135,cs),
(64,42,o),
(132,1,o),
(206,1,cs)
);
},
{
closed = 1;
nodes = (
(392,-208,o),
(422,-163,o),
(422,-123,cs),
(422,-110,o),
(419,-97,o),
(412,-87,c),
(400,-104,o),
(384,-113,o),
(367,-113,cs),
(360,-113,o),
(353,-111,o),
(346,-108,cs),
(274,-71,o),
(213,-5,o),
(129,-5,cs),
(89,-5,o),
(61,-23,o),
(57,-53,cs),
(57,-56,o),
(58,-60,o),
(63,-56,cs),
(70,-50,o),
(78,-48,o),
(87,-48,cs),
(111,-48,o),
(139,-64,o),
(149,-71,cs),
(173,-89,o),
(228,-157,o),
(281,-189,cs),
(303,-203,o),
(324,-208,o),
(342,-208,cs)
);
}
);
};
layerId = "C623C401-2266-4A98-B253-3D45160C29C7";
shapes = (
{
closed = 1;
nodes = (
(253,1,o),
(302,18,o),
(340,48,cs),
(401,96,o),
(455,177,o),
(489,252,cs),
(508,294,o),
(528,361,o),
(528,422,cs),
(528,477,o),
(511,528,o),
(460,550,cs),
(453,553,o),
(447,554,o),
(442,554,cs),
(435,554,o),
(431,552,o),
(431,547,cs),
(431,545,o),
(433,542,o),
(436,538,cs),
(449,524,o),
(455,496,o),
(455,460,cs),
(455,410,o),
(442,345,o),
(411,279,cs),
(338,122,o),
(265,38,o),
(212,38,cs),
(188,38,o),
(179,58,o),
(179,88,cs),
(179,153,o),
(221,264,o),
(249,327,cs),
(279,394,o),
(317,465,o),
(354,509,cs),
(386,546,o),
(426,585,o),
(463,585,cs),
(475,585,o),
(486,581,o),
(497,572,cs),
(501,568,o),
(504,567,o),
(507,567,cs),
(513,567,o),
(516,575,o),
(516,583,cs),
(516,589,o),
(514,596,o),
(511,599,cs),
(496,615,o),
(459,623,o),
(422,623,cs),
(342,623,o),
(284,596,o),
(227,545,cs),
(118,447,o),
(51,268,o),
(59,135,cs),
(64,42,o),
(132,1,o),
(206,1,cs)
);
},
{
closed = 1;
nodes = (
(392,-208,o),
(422,-163,o),
(422,-123,cs),
(422,-110,o),
(419,-97,o),
(412,-87,c),
(400,-104,o),
(384,-113,o),
(367,-113,cs),
(360,-113,o),
(353,-111,o),
(346,-108,cs),
(274,-71,o),
(213,-5,o),
(129,-5,cs),
(89,-5,o),
(61,-23,o),
(57,-53,cs),
(57,-56,o),
(58,-60,o),
(63,-56,cs),
(70,-50,o),
(78,-48,o),
(87,-48,cs),
(111,-48,o),
(139,-64,o),
(149,-71,cs),
(173,-89,o),
(228,-157,o),
(281,-189,cs),
(303,-203,o),
(324,-208,o),
(342,-208,cs)
);
}
);
width = 469;
}
);
note = Q;
unicode = 81;
}
{
color = 11;
glyphname = R;
lastChange = "2022-04-19 01:15:55 +0000";
layers = (
{
anchors = (
{
name = bottom;
pos = (275,20);
},
{
name = top;
pos = (458,620);
}
);
background = {
anchors = (
{
name = bottom;
pos = (264,0);
},
{
name = top;
pos = (264,633);
}
);
shapes = (
{
closed = 1;
nodes = (
(528,-76,o),
(564,0,o),
(552,-3,cs),
(503,-16,o),
(390,194,o),
(366,243,c),
(488,281,o),
(581,402,o),
(581,498,cs),
(581,576,o),
(518,634,o),
(384,634,cs),
(187,634,o),
(40,573,o),
(40,472,cs),
(40,437,o),
(97,425,o),
(105,424,c),
(128,546,o),
(286,603,o),
(374,603,cs),
(441,603,o),
(466,566,o),
(466,516,cs),
(466,414,o),
(364,261,o),
(302,261,cs),
(291,261,o),
(284,263,o),
(280,267,c),
(315,364,o),
(367,473,o),
(425,546,cs),
(431,553,o),
(414,558,o),
(368,558,cs),
(326,558,o),
(289,543,o),
(264,504,cs),
(244,471,o),
(118,225,o),
(118,90,cs),
(118,51,o),
(129,21,o),
(155,8,cs),
(168,2,o),
(191,1,o),
(202,-4,cs),
(210,-7,o),
(213,-5,o),
(213,-1,cs),
(213,1,o),
(213,3,o),
(211,5,cs),
(207,10,o),
(205,18,o),
(205,29,cs),
(205,70,o),
(232,152,o),
(268,239,c),
(271,235,o),
(275,232,o),
(280,229,c),
(290,164,o),
(341,-78,o),
(456,-77,cs)
);
}
);
};
layerId = "C623C401-2266-4A98-B253-3D45160C29C7";
shapes = (
{
closed = 1;
nodes = (
(277,245,l),
(290,164,o),
(338,-79,o),
(458,-77,cs),
(518,-76,o),
(555,-18,o),
(555,-5,cs),
(555,-3,o),
(554,-1,o),
(551,-1,cs),
(549,-1,o),
(547,-2,o),
(543,-2,cs),
(493,-2,o),
(376,217,o),
(362,249,c)
);
},
{
closed = 1;
nodes = (
(118,55,o),
(127,29,o),
(142,18,cs),
(163,1,o),
(198,-5,o),
(210,-5,cs),
(213,-5,o),
(215,-4,o),
(215,-1,cs),
(215,1,o),
(213,3,o),
(211,6,cs),
(207,12,o),
(205,20,o),
(205,29,cs),
(205,70,o),
(232,152,o),
(268,239,c),
(277,234,o),
(292,232,o),
(307,232,cs),
(427,232,o),
(581,367,o),
(581,498,cs),
(581,576,o),
(518,634,o),
(384,634,cs),
(176,634,o),
(40,565,o),
(40,472,cs),
(40,448,o),
(70,429,o),
(105,424,c),
(124,528,o),
(259,603,o),
(378,603,cs),
(435,603,o),
(466,569,o),
(466,516,cs),
(466,418,o),
(368,261,o),
(302,261,cs),
(291,261,o),
(284,263,o),
(280,267,c),
(315,364,o),
(359,459,o),
(421,541,cs),
(424,545,o),
(425,547,o),
(425,549,cs),
(425,551,o),
(423,553,o),
(412,555,cs),
(401,557,o),
(384,558,o),
(370,558,cs),
(322,558,o),
(284,542,o),
(255,489,cs),
(188,369,o),
(118,182,o),
(118,87,cs)
);
}
);
width = 511;
}
);
metricLeft = P;
note = R;
unicode = 82;
}
{
glyphname = S;
lastChange = "2022-04-22 06:22:51 +0000";
layers = (
{
anchors = (
{
name = bottom;
pos = (224,-12);
},
{
name = top;
pos = (425,600);
}
);
background = {
anchors = (
{
name = bottom;
pos = (253,0);
},
{
name = top;
pos = (253,633);
}
);
shapes = (
{
closed = 1;
nodes = (
(380,-24,o),
(456,29,o),
(456,115,cs),
(456,147,o),
(445,184,o),
(421,225,cs),
(381,290,o),
(325,357,o),
(325,426,cs),
(325,444,o),
(329,463,o),
(338,481,cs),
(363,531,o),
(391,545,o),
(414,545,cs),
(431,545,o),
(445,538,o),
(453,530,c),
(440,495,o),
(431,446,o),
(431,409,cs),
(431,377,o),
(437,354,o),
(452,354,cs),
(454,354,o),
(457,355,o),
(460,356,c),
(464,412,o),
(495,470,o),
(524,513,cs),
(539,535,o),
(558,557,o),
(585,583,cs),
(592,589,o),
(595,595,o),
(595,601,cs),
(595,613,o),
(581,621,o),
(561,621,cs),
(535,621,o),
(499,607,o),
(472,568,c),
(457,574,ls),
(424,587,o),
(383,590,o),
(353,590,cs),
(253,590,o),
(174,529,o),
(174,422,cs),
(174,377,o),
(195,333,o),
(222,292,cs),
(273,216,o),
(348,141,o),
(348,64,cs),
(348,23,o),
(328,6,o),
(299,6,cs),
(252,6,o),
(183,54,o),
(156,134,cs),
(141,179,o),
(130,233,o),
(130,270,cs),
(130,284,o),
(132,296,o),
(135,304,c),
(74,293,o),
(52,232,o),
(52,171,cs),
(52,135,o),
(59,100,o),
(71,75,cs),
(106,4,o),
(186,-24,o),
(264,-24,cs)
);
},
{
closed = 1;
nodes = (
(353,209,o),
(381,237,o),
(381,271,cs),
(381,305,o),
(353,333,o),
(319,333,cs),
(285,333,o),
(257,305,o),
(257,271,cs),
(257,237,o),
(285,209,o),
(319,209,cs)
);
}
);
};
layerId = "C623C401-2266-4A98-B253-3D45160C29C7";
shapes = (
{
closed = 1;
nodes = (
(387,-24,o),
(461,39,o),
(461,124,cs),
(461,178,o),
(428,222,o),
(395,272,cs),
(362,321,o),
(335,373,o),
(335,426,cs),
(335,484,o),
(381,545,o),
(424,545,cs),
(441,545,o),
(455,538,o),
(463,530,c),
(445,487,o),
(439,446,o),
(439,419,cs),
(439,369,o),
(450,354,o),
(462,354,cs),
(465,354,o),
(468,355,o),
(470,356,c),
(476,430,o),
(524,518,o),
(595,583,cs),
(603,591,o),
(605,595,o),
(605,601,cs),
(605,613,o),
(591,621,o),
(571,621,cs),
(545,621,o),
(508,607,o),
(481,568,c),
(457,581,o),
(410,590,o),
(371,590,cs),
(256,590,o),
(184,525,o),
(184,422,cs),
(184,358,o),
(225,299,o),
(267,242,cs),
(312,183,o),
(351,128,o),
(351,66,cs),
(351,30,o),
(332,8,o),
(299,8,cs),
(245,8,o),
(203,48,o),
(174,103,cs),
(150,149,o),
(136,203,o),
(136,254,cs),
(136,271,o),
(139,288,o),
(142,304,c),
(90,295,o),
(50,233,o),
(50,160,cs),
(50,40,o),
(139,-24,o),
(269,-24,cs)
);
}
);
width = 485;
}
);
note = S;
unicode = 83;
}
{
color = 11;
glyphname = T;
lastChange = "2022-04-18 23:40:20 +0000";
layers = (
{
anchors = (
{
name = bottom;
pos = (154,10);
},
{
name = center;
pos = (252,356);
},
{
name = top;
pos = (372,610);
}
);
background = {
anchors = (
{
name = bottom;
pos = (286,0);
},
{
name = center;
pos = (286,317);
},
{
name = top;
pos = (286,633);
}
);
shapes = (
{
closed = 1;
nodes = (
(265,-27,o),
(268,-25,o),
(268,-21,cs),
(268,-19,o),
(268,-17,o),
(266,-15,cs),
(262,-10,o),
(260,-1,o),
(260,11,cs),
(260,70,o),
(309,201,o),
(365,317,cs),
(407,403,o),
(452,479,o),
(484,529,c),
(565,531,o),
(638,524,o),
(648,508,cs),
(651,503,o),
(656,504,o),
(656,510,cs),
(656,512,ls),
(656,520,o),
(658,535,o),
(658,545,cs),
(658,600,o),
(542,615,o),
(433,615,cs),
(350,615,o),
(271,607,o),
(247,602,cs),
(150,583,o),
(116,527,o),
(116,476,cs),
(116,423,o),
(151,375,o),
(188,375,cs),
(191,375,o),
(194,375,o),
(197,376,cs),
(201,377,o),
(206,381,o),
(206,387,cs),
(206,391,o),
(204,395,o),
(198,400,cs),
(180,414,o),
(173,427,o),
(173,439,cs),
(173,481,o),
(270,505,o),
(337,516,c),
(299,451,o),
(167,201,o),
(167,68,cs),
(167,28,o),
(180,-2,o),
(210,-12,cs),
(224,-16,o),
(246,-19,o),
(257,-24,cs)
);
},
{
closed = 1;
nodes = (
(358,307,o),
(386,335,o),
(386,369,cs),
(386,403,o),
(358,431,o),
(324,431,cs),
(290,431,o),
(262,403,o),
(262,369,cs),
(262,335,o),
(290,307,o),
(324,307,cs)
);
}
);
};
layerId = "C623C401-2266-4A98-B253-3D45160C29C7";
shapes = (
{
closed = 1;
nodes = (
(464,543,o),
(488,540,cs),
(514,537,o),
(539,531,o),
(555,519,cs),
(559,516,o),
(560,515,o),
(562,515,cs),
(565,515,o),
(567,518,o),
(567,524,cs),
(567,530,o),
(567,550,o),
(567,559,cs),
(567,614,o),
(481,629,o),
(372,629,cs),
(289,629,o),
(210,621,o),
(186,616,cs),
(89,597,o),
(55,541,o),
(55,490,cs),
(55,437,o),
(90,389,o),
(127,389,cs),
(138,389,o),
(145,394,o),
(145,401,cs),
(145,405,o),
(143,409,o),
(137,414,cs),
(119,428,o),
(112,441,o),
(112,453,cs),
(112,488,o),
(175,517,o),
(276,530,c),
(257,498,o),
(216,422,o),
(179,332,cs),
(150,262,o),
(106,153,o),
(106,79,cs),
(106,58,o),
(111,24,o),
(131,10,cs),
(152,-5,o),
(191,-13,o),
(203,-13,cs),
(206,-13,o),
(208,-12,o),
(208,-9,cs),
(208,-7,o),
(206,-5,o),
(204,-2,cs),
(200,4,o),
(198,12,o),
(198,21,cs),
(198,73,o),
(238,179,o),
(282,279,cs),
(329,386,o),
(386,487,o),
(423,543,c),
(440,543,o)
);
}
);
width = 357;
}
);
note = T;
unicode = 84;
}
{
color = 11;
glyphname = U;
lastChange = "2022-04-18 02:39:32 +0000";
layers = (
{
anchors = (
{
name = bottom;
pos = (313,0);
},
{
name = ogonek;
pos = (509,10);
},
{
name = top;
pos = (588,600);
},
{
name = topright;
pos = (709,589);
}
);
background = {
anchors = (
{
name = bottom;
pos = (294,0);
},
{
name = ogonek;
pos = (528,10);
},
{
name = top;
pos = (294,633);
},
{
name = topright;
pos = (567,633);
}
);
shapes = (
{
closed = 1;
nodes = (
(491,-23,o),
(508,-20,o),
(528,-13,c),
(523,-7,o),
(521,4,o),
(521,20,cs),
(521,80,o),
(555,204,o),
(607,314,cs),
(646,396,o),
(697,505,o),
(750,578,cs),
(758,589,o),
(738,598,o),
(692,597,cs),
(627,594,o),
(612,586,o),
(575,523,cs),
(567,510,o),
(552,479,o),
(530,440,cs),
(482,355,o),
(391,202,o),
(362,161,cs),
(337,127,o),
(295,83,o),
(275,83,cs),
(269,83,o),
(265,88,o),
(265,100,cs),
(265,105,o),
(266,113,o),
(268,122,cs),
(298,254,o),
(389,384,o),
(472,491,cs),
(493,517,o),
(509,544,o),
(509,565,cs),
(509,569,o),
(508,573,o),
(507,576,cs),
(501,596,o),
(485,622,o),
(462,627,cs),
(390,641,o),
(193,499,o),
(128,499,cs),
(114,499,o),
(104,503,o),
(104,513,cs),
(104,516,o),
(105,519,o),
(107,523,cs),
(109,527,o),
(110,531,o),
(110,533,cs),
(110,537,o),
(108,539,o),
(104,539,cs),
(97,539,o),
(86,533,o),
(79,523,cs),
(53,483,o),
(33,438,o),
(33,408,cs),
(33,393,o),
(37,382,o),
(49,378,cs),
(59,374,o),
(69,373,o),
(79,373,cs),
(176,373,o),
(288,532,o),
(345,553,cs),
(351,555,o),
(354,552,o),
(354,547,cs),
(354,527,o),
(322,470,o),
(316,460,cs),
(232,327,o),
(160,199,o),
(143,125,cs),
(140,110,o),
(138,96,o),
(138,84,cs),
(138,35,o),
(163,5,o),
(204,-9,cs),
(213,-12,o),
(221,-14,o),
(230,-14,cs),
(271,-14,o),
(309,20,o),
(337,64,cs),
(354,91,o),
(397,161,o),
(439,232,c),
(428,201,o),
(419,170,o),
(412,140,cs),
(406,115,o),
(403,91,o),
(403,71,cs),
(403,15,o),
(425,-23,o),
(476,-23,cs)
);
},
{
closed = 1;
nodes = (
(602,317,o),
(630,345,o),
(630,379,cs),
(630,413,o),
(602,441,o),
(568,441,cs),
(534,441,o),
(506,413,o),
(506,379,cs),
(506,345,o),
(534,317,o),
(568,317,cs)
);
}
);
};
layerId = "C623C401-2266-4A98-B253-3D45160C29C7";
shapes = (
{
closed = 1;
nodes = (
(491,-23,o),
(508,-20,o),
(528,-13,c),
(523,-7,o),
(521,4,o),
(521,20,cs),
(521,80,o),
(555,204,o),
(607,314,cs),
(646,396,o),
(697,505,o),
(750,578,cs),
(758,589,o),
(738,598,o),
(692,597,cs),
(627,594,o),
(612,586,o),
(575,523,cs),
(567,510,o),
(552,479,o),
(530,440,cs),
(482,355,o),
(391,202,o),
(362,161,cs),
(337,127,o),
(295,83,o),
(275,83,cs),
(269,83,o),
(265,88,o),
(265,100,cs),
(265,105,o),
(266,113,o),
(268,122,cs),
(298,254,o),
(389,384,o),
(472,491,cs),
(493,517,o),
(509,544,o),
(509,565,cs),
(509,569,o),
(508,573,o),
(507,576,cs),
(501,596,o),
(485,622,o),
(462,627,cs),
(390,641,o),
(193,499,o),
(128,499,cs),
(114,499,o),
(104,503,o),
(104,513,cs),
(104,516,o),
(105,519,o),
(107,523,cs),
(109,527,o),
(110,531,o),
(110,533,cs),
(110,537,o),
(108,539,o),
(104,539,cs),
(97,539,o),
(86,533,o),
(79,523,cs),
(53,483,o),
(33,438,o),
(33,408,cs),
(33,393,o),
(37,382,o),
(49,378,cs),
(59,374,o),
(69,373,o),
(79,373,cs),
(176,373,o),
(288,532,o),
(345,553,cs),
(351,555,o),
(354,552,o),
(354,547,cs),
(354,527,o),
(322,470,o),
(316,460,cs),
(232,327,o),
(160,199,o),
(143,125,cs),
(140,110,o),
(138,96,o),
(138,84,cs),
(138,35,o),
(163,5,o),
(204,-9,cs),
(213,-12,o),
(221,-14,o),
(230,-14,cs),
(271,-14,o),
(309,20,o),
(337,64,cs),
(354,91,o),
(397,161,o),
(439,232,c),
(428,201,o),
(419,170,o),
(412,140,cs),
(406,115,o),
(403,91,o),
(403,71,cs),
(403,15,o),
(425,-23,o),
(476,-23,cs)
);
}
);
width = 587;
}
);
note = U;
unicode = 85;
}
{
glyphname = V;
lastChange = "2022-04-20 04:42:15 +0000";
layers = (
{
background = {
shapes = (
{
closed = 1;
nodes = (
(416,-14,o),
(585,246,o),
(626,363,cs),
(637,393,o),
(650,428,o),
(650,460,cs),
(650,490,o),
(638,518,o),
(604,539,cs),
(571,559,o),
(530,569,o),
(512,569,cs),
(505,569,o),
(500,566,o),
(500,562,cs),
(500,560,o),
(503,558,o),
(509,558,cs),
(523,557,o),
(535,513,o),
(535,481,cs),
(535,398,o),
(384,31,o),
(302,31,cs),
(288,31,o),
(283,45,o),
(283,66,cs),
(283,180,o),
(399,381,o),
(439,498,cs),
(442,507,o),
(444,516,o),
(444,525,cs),
(444,573,o),
(396,611,o),
(315,611,cs),
(282,611,o),
(223,583,o),
(181,541,cs),
(127,486,o),
(87,401,o),
(87,336,cs),
(87,304,o),
(96,278,o),
(118,261,cs),
(127,254,o),
(135,251,o),
(140,251,cs),
(146,251,o),
(149,254,o),
(149,259,cs),
(149,262,o),
(149,265,o),
(147,268,cs),
(143,276,o),
(141,286,o),
(141,297,cs),
(141,346,o),
(174,423,o),
(234,507,cs),
(262,547,o),
(296,570,o),
(312,570,cs),
(324,570,o),
(330,562,o),
(330,548,cs),
(330,538,o),
(327,526,o),
(321,512,cs),
(279,412,o),
(168,247,o),
(168,90,cs),
(168,24,o),
(203,-14,o),
(270,-14,cs)
);
}
);
};
layerId = "C623C401-2266-4A98-B253-3D45160C29C7";
shapes = (
{
closed = 1;
nodes = (
(442,576,o),
(391,611,o),
(323,611,cs),
(257,611,o),
(202,588,o),
(159,541,cs),
(109,485,o),
(75,418,o),
(75,350,cs),
(75,292,o),
(112,251,o),
(138,251,cs),
(144,251,o),
(147,254,o),
(147,259,cs),
(147,267,o),
(139,275,o),
(139,299,cs),
(139,351,o),
(175,415,o),
(194,449,cs),
(233,517,o),
(282,576,o),
(310,576,cs),
(322,576,o),
(328,568,o),
(328,554,cs),
(328,518,o),
(273,426,o),
(225,313,cs),
(195,243,o),
(167,152,o),
(167,105,cs),
(167,27,o),
(208,-14,o),
(288,-14,cs),
(424,-14,o),
(566,193,o),
(631,329,cs),
(655,379,o),
(669,435,o),
(669,467,cs),
(669,498,o),
(655,534,o),
(609,563,cs),
(585,578,o),
(549,589,o),
(521,589,cs),
(514,589,o),
(510,586,o),
(510,583,cs),
(510,580,o),
(512,578,o),
(517,577,cs),
(524,575,o),
(528,572,o),
(533,563,cs),
(540,551,o),
(545,529,o),
(545,506,cs),
(545,437,o),
(490,294,o),
(441,203,cs),
(372,76,o),
(330,31,o),
(302,31,cs),
(287,31,o),
(281,49,o),
(281,71,cs),
(281,115,o),
(303,187,o),
(338,269,cs),
(382,371,o),
(442,486,o),
(442,523,cs)
);
}
);
width = 609;
}
);
note = V;
unicode = 86;
}
{
glyphname = W;
lastChange = "2022-04-18 17:47:40 +0000";
layers = (
{
anchors = (
{
name = bottom;
pos = (427,0);
},
{
name = top;
pos = (664,573);
}
);
background = {
anchors = (
{
name = bottom;
pos = (427,0);
},
{
name = top;
pos = (427,633);
}
);
shapes = (
{
closed = 1;
nodes = (
(322,-14,o),
(376,41,o),
(421,115,c),
(422,33,o),
(465,-13,o),
(541,-13,cs),
(677,-13,o),
(819,211,o),
(881,373,cs),
(897,414,o),
(911,466,o),
(911,510,cs),
(911,563,o),
(890,606,o),
(828,606,cs),
(817,606,o),
(806,605,o),
(793,602,cs),
(784,601,o),
(778,594,o),
(778,590,cs),
(778,586,o),
(781,584,o),
(786,584,cs),
(798,584,o),
(803,571,o),
(803,550,cs),
(803,473,o),
(735,286,o),
(711,236,cs),
(659,127,o),
(596,28,o),
(548,28,cs),
(534,28,o),
(528,44,o),
(528,70,cs),
(528,163,o),
(609,393,o),
(703,517,cs),
(710,525,o),
(685,532,o),
(649,530,cs),
(597,529,o),
(581,538,o),
(546,486,cs),
(528,459,o),
(495,383,o),
(460,286,c),
(394,146,o),
(332,31,o),
(290,31,cs),
(276,31,o),
(271,45,o),
(271,66,cs),
(271,180,o),
(387,381,o),
(427,498,cs),
(430,507,o),
(432,517,o),
(432,525,cs),
(432,573,o),
(385,611,o),
(303,611,cs),
(270,611,o),
(211,583,o),
(169,541,cs),
(115,486,o),
(75,401,o),
(75,336,cs),
(75,304,o),
(84,278,o),
(106,261,cs),
(115,254,o),
(123,251,o),
(128,251,cs),
(134,251,o),
(137,254,o),
(137,259,cs),
(137,262,o),
(137,265,o),
(135,268,cs),
(131,276,o),
(129,286,o),
(129,297,cs),
(129,346,o),
(162,423,o),
(222,507,cs),
(250,547,o),
(285,570,o),
(301,570,cs),
(312,570,o),
(318,562,o),
(318,549,cs),
(318,539,o),
(315,526,o),
(309,512,cs),
(267,412,o),
(156,247,o),
(156,90,cs),
(156,24,o),
(191,-14,o),
(258,-14,cs)
);
}
);
};
layerId = "C623C401-2266-4A98-B253-3D45160C29C7";
shapes = (
{
closed = 1;
nodes = (
(414,88,o),
(343,-14,o),
(258,-14,cs),
(193,-14,o),
(156,24,o),
(156,90,cs),
(156,150,o),
(175,223,o),
(205,293,cs),
(252,406,o),
(318,512,o),
(318,548,cs),
(318,562,o),
(312,570,o),
(300,570,cs),
(272,570,o),
(223,517,o),
(184,449,cs),
(165,415,o),
(129,351,o),
(129,299,cs),
(129,275,o),
(137,267,o),
(137,259,cs),
(137,254,o),
(134,251,o),
(128,251,cs),
(102,251,o),
(75,292,o),
(75,330,cs),
(75,398,o),
(109,475,o),
(159,531,cs),
(202,578,o),
(257,611,o),
(313,611,cs),
(377,611,o),
(432,578,o),
(432,525,cs),
(432,488,o),
(373,371,o),
(329,269,cs),
(294,187,o),
(271,110,o),
(271,66,cs),
(271,44,o),
(278,31,o),
(290,31,cs),
(327,31,o),
(379,122,o),
(405,174,cs),
(480,324,o),
(523,451,o),
(546,486,cs),
(572,524,o),
(584,530,o),
(626,530,cs),
(636,530,o),
(646,530,o),
(656,530,cs),
(689,530,o),
(704,526,o),
(704,520,cs),
(704,515,o),
(693,503,o),
(674,474,cs),
(600,359,o),
(527,157,o),
(527,76,cs),
(527,50,o),
(532,28,o),
(551,28,cs),
(592,28,o),
(659,127,o),
(711,236,cs),
(735,286,o),
(803,476,o),
(803,553,cs),
(803,574,o),
(797,582,o),
(786,584,cs),
(781,585,o),
(778,586,o),
(778,590,cs),
(778,600,o),
(797,606,o),
(828,606,cs),
(890,606,o),
(911,563,o),
(911,510,cs),
(911,430,o),
(858,296,o),
(784,183,cs),
(713,75,o),
(623,-13,o),
(541,-13,cs),
(465,-13,o),
(420,30,o),
(420,133,c),
(466,197,l)
);
}
);
width = 846;
}
);
note = W;
unicode = 87;
}
{
glyphname = X;
lastChange = "2022-04-19 21:20:40 +0000";
layers = (
{
background = {
shapes = (
{
closed = 1;
nodes = (
(22,-10,o),
(29,-10,o),
(35,-8,cs),
(62,0,o),
(156,113,o),
(213,192,c),
(224,80,o),
(256,-3,o),
(325,-3,cs),
(373,-3,o),
(413,41,o),
(445,85,cs),
(463,110,o),
(469,126,o),
(469,134,cs),
(469,138,o),
(467,140,o),
(464,140,cs),
(459,140,o),
(452,135,o),
(446,127,cs),
(427,102,o),
(411,92,o),
(397,92,cs),
(379,92,o),
(366,109,o),
(356,132,cs),
(343,164,o),
(337,220,o),
(336,280,c),
(443,393,o),
(537,501,o),
(559,560,cs),
(561,566,o),
(562,572,o),
(562,578,cs),
(562,604,o),
(541,623,o),
(527,623,cs),
(522,623,o),
(518,621,o),
(516,616,cs),
(480,526,o),
(401,411,o),
(336,333,c),
(337,400,o),
(342,463,o),
(346,494,cs),
(347,505,o),
(351,522,o),
(351,538,cs),
(351,558,o),
(346,576,o),
(324,576,cs),
(304,576,o),
(272,558,o),
(223,514,c),
(202,454,o),
(166,339,o),
(64,264,cs),
(59,261,o),
(57,257,o),
(57,253,cs),
(57,245,o),
(64,239,o),
(73,239,cs),
(77,239,o),
(81,240,o),
(85,243,cs),
(141,280,o),
(181,319,o),
(210,360,c),
(209,332,o),
(209,305,o),
(209,279,cs),
(209,247,l),
(134,149,o),
(19,43,o),
(-18,20,cs),
(-26,15,o),
(-29,11,o),
(-29,7,cs),
(-29,-4,o),
(-6,-10,o),
(15,-10,cs)
);
}
);
};
layerId = "C623C401-2266-4A98-B253-3D45160C29C7";
shapes = (
{
closed = 1;
nodes = (
(22,-20,o),
(30,-19,o),
(36,-17,cs),
(42,-15,o),
(52,-8,o),
(65,4,cs),
(105,42,o),
(170,122,o),
(213,182,c),
(224,70,o),
(256,-13,o),
(325,-13,cs),
(373,-13,o),
(413,31,o),
(445,75,cs),
(463,100,o),
(469,116,o),
(469,124,cs),
(469,128,o),
(466,131,o),
(462,131,cs),
(459,131,o),
(456,129,o),
(450,122,cs),
(427,95,o),
(411,85,o),
(397,85,cs),
(379,85,o),
(366,99,o),
(356,122,cs),
(343,154,o),
(337,210,o),
(336,270,c),
(443,383,o),
(537,491,o),
(559,550,cs),
(561,556,o),
(562,562,o),
(562,568,cs),
(562,594,o),
(540,614,o),
(526,614,cs),
(521,614,o),
(518,611,o),
(516,606,cs),
(479,514,o),
(401,401,o),
(336,323,c),
(337,390,o),
(341,450,o),
(345,481,cs),
(346,492,o),
(351,526,o),
(351,541,cs),
(351,564,o),
(342,576,o),
(324,576,cs),
(304,576,o),
(272,558,o),
(223,514,c),
(202,454,o),
(166,339,o),
(64,264,cs),
(59,261,o),
(57,257,o),
(57,253,cs),
(57,245,o),
(63,239,o),
(73,239,cs),
(85,239,o),
(108,258,o),
(136,281,cs),
(166,306,o),
(194,335,o),
(210,360,c),
(209,332,o),
(209,305,o),
(209,269,cs),
(209,237,l),
(150,160,o),
(64,74,o),
(-3,21,cs),
(-18,9,o),
(-29,4,o),
(-29,-3,cs),
(-29,-14,o),
(-6,-20,o),
(15,-20,cs)
);
}
);
width = 457;
}
);
note = X;
unicode = 88;
}
{
glyphname = Y;
lastChange = "2022-04-19 21:20:54 +0000";
layers = (
{
anchors = (
{
name = bottom;
pos = (608,-20);
},
{
name = top;
pos = (598,580);
},
{
name = topleft;
pos = (20,580);
}
);
background = {
anchors = (
{
name = bottom;
pos = (303,0);
},
{
name = top;
pos = (303,633);
},
{
name = topleft;
pos = (20,633);
}
);
shapes = (
{
closed = 1;
nodes = (
(407,-206,o),
(484,-50,o),
(536,68,cs),
(563,130,o),
(727,559,o),
(770,581,cs),
(776,584,o),
(779,588,o),
(779,591,cs),
(779,594,o),
(776,596,o),
(771,596,cs),
(662,596,ls),
(623,596,o),
(614,560,o),
(593,506,cs),
(560,418,o),
(384,127,o),
(338,93,cs),
(327,85,o),
(315,78,o),
(306,78,cs),
(298,78,o),
(292,83,o),
(292,97,cs),
(292,107,o),
(295,121,o),
(302,141,cs),
(317,184,o),
(344,243,o),
(371,302,cs),
(390,346,o),
(450,450,o),
(483,504,cs),
(498,530,o),
(508,548,o),
(508,566,cs),
(508,576,o),
(505,587,o),
(497,599,cs),
(488,612,o),
(476,624,o),
(463,627,cs),
(390,641,o),
(197,499,o),
(126,499,cs),
(115,499,o),
(104,502,o),
(104,511,cs),
(104,514,o),
(106,518,o),
(108,523,cs),
(110,526,o),
(111,529,o),
(111,531,cs),
(111,536,o),
(108,538,o),
(103,538,cs),
(97,538,o),
(87,534,o),
(80,523,cs),
(53,484,o),
(33,438,o),
(33,408,cs),
(33,393,o),
(38,382,o),
(50,378,cs),
(60,374,o),
(70,373,o),
(80,373,cs),
(177,373,o),
(289,532,o),
(346,553,cs),
(351,555,o),
(353,552,o),
(353,547,cs),
(353,507,o),
(244,303,o),
(198,201,cs),
(178,155,o),
(167,115,o),
(167,82,cs),
(167,30,o),
(194,-2,o),
(246,-12,cs),
(250,-13,o),
(254,-13,o),
(259,-13,cs),
(311,-13,o),
(358,48,o),
(399,119,cs),
(412,143,o),
(453,203,o),
(493,262,c),
(478,229,o),
(463,196,o),
(447,163,cs),
(409,79,o),
(338,-168,o),
(223,-168,cs),
(211,-168,o),
(199,-165,o),
(187,-160,cs),
(184,-159,o),
(181,-158,o),
(178,-158,cs),
(170,-158,o),
(166,-163,o),
(166,-169,cs),
(166,-173,o),
(168,-178,o),
(173,-182,cs),
(199,-203,o),
(227,-206,o),
(253,-206,cs)
);
}
);
};
layerId = "C623C401-2266-4A98-B253-3D45160C29C7";
shapes = (
{
closed = 1;
nodes = (
(487,229,l),
(458,165,o),
(377,-55,o),
(321,-126,cs),
(289,-166,o),
(259,-188,o),
(223,-188,cs),
(198,-188,o),
(188,-178,o),
(177,-178,cs),
(171,-178,o),
(166,-182,o),
(166,-189,cs),
(166,-207,o),
(206,-226,o),
(249,-226,cs),
(357,-226,o),
(440,-158,o),
(513,-2,cs),
(569,118,o),
(653,344,o),
(710,463,cs),
(732,507,o),
(752,546,o),
(768,560,cs),
(775,566,o),
(779,568,o),
(779,571,cs),
(779,574,o),
(777,576,o),
(770,576,cs),
(670,576,ls),
(635,576,o),
(625,569,o),
(605,517,cs),
(560,398,o),
(430,182,o),
(362,99,cs),
(340,72,o),
(320,58,o),
(306,58,cs),
(299,58,o),
(292,64,o),
(292,74,cs),
(292,144,o),
(430,398,o),
(465,456,cs),
(482,485,o),
(509,524,o),
(509,545,cs),
(509,568,o),
(483,608,o),
(453,608,cs),
(406,608,o),
(331,568,o),
(262,533,cs),
(207,504,o),
(156,479,o),
(128,479,cs),
(113,479,o),
(104,484,o),
(104,493,cs),
(104,500,o),
(110,508,o),
(110,513,cs),
(110,517,o),
(107,519,o),
(102,519,cs),
(95,519,o),
(86,513,o),
(69,487,cs),
(52,461,o),
(33,415,o),
(33,388,cs),
(33,362,o),
(45,353,o),
(79,353,cs),
(118,353,o),
(170,379,o),
(249,455,cs),
(294,498,o),
(333,533,o),
(348,533,cs),
(352,533,o),
(354,530,o),
(354,526,cs),
(354,496,o),
(290,369,o),
(248,287,cs),
(199,192,o),
(166,112,o),
(166,61,cs),
(166,5,o),
(211,-33,o),
(258,-33,cs),
(341,-33,o),
(394,91,o),
(486,230,c)
);
}
);
width = 629;
}
);
note = Y;
unicode = 89;
}
{
color = 11;
glyphname = Z;
lastChange = "2022-04-18 02:39:32 +0000";
layers = (
{
anchors = (
{
name = bottom;
pos = (199,0);
},
{
name = center;
pos = (279,341);
},
{
name = top;
pos = (373,570);
}
);
background = {
anchors = (
{
name = bottom;
pos = (199,0);
},
{
name = center;
pos = (199,317);
},
{
name = top;
pos = (199,633);
}
);
shapes = (
{
closed = 1;
nodes = (
(280,-153,o),
(409,31,o),
(409,156,cs),
(409,236,o),
(362,262,o),
(304,262,cs),
(285,262,o),
(264,259,o),
(243,254,c),
(294,319,o),
(470,446,o),
(504,507,cs),
(516,528,o),
(524,555,o),
(524,590,cs),
(524,598,o),
(519,601,o),
(514,601,cs),
(508,601,o),
(503,598,o),
(501,591,cs),
(498,578,o),
(479,565,o),
(459,559,cs),
(448,555,o),
(433,553,o),
(412,553,cs),
(358,554,o),
(289,582,o),
(270,582,cs),
(236,582,o),
(202,547,o),
(181,517,cs),
(161,489,o),
(126,444,o),
(126,418,cs),
(126,411,o),
(130,408,o),
(134,408,cs),
(138,408,o),
(143,411,o),
(145,414,cs),
(172,463,o),
(233,472,o),
(263,469,cs),
(297,465,o),
(333,455,o),
(356,444,c),
(312,384,o),
(171,236,o),
(170,221,cs),
(169,208,o),
(193,191,o),
(209,191,cs),
(212,191,o),
(215,192,o),
(217,193,cs),
(230,202,o),
(255,228,o),
(271,228,cs),
(282,228,o),
(288,217,o),
(286,184,cs),
(280,98,o),
(149,-105,o),
(46,-107,cs),
(25,-108,o),
(16,-99,o),
(16,-85,cs),
(16,-44,o),
(95,44,o),
(156,74,cs),
(170,80,o),
(179,90,o),
(179,97,cs),
(179,101,o),
(176,103,o),
(170,103,cs),
(167,103,o),
(163,102,o),
(158,101,cs),
(117,91,o),
(53,51,o),
(22,23,cs),
(-11,-6,o),
(-31,-38,o),
(-31,-67,cs),
(-31,-83,o),
(-25,-98,o),
(-13,-111,cs),
(9,-135,o),
(45,-153,o),
(90,-153,cs)
);
}
);
};
layerId = "C623C401-2266-4A98-B253-3D45160C29C7";
shapes = (
{
closed = 1;
nodes = (
(280,-153,o),
(409,31,o),
(409,156,cs),
(409,236,o),
(362,262,o),
(304,262,cs),
(285,262,o),
(264,259,o),
(243,254,c),
(294,319,o),
(470,446,o),
(504,507,cs),
(516,528,o),
(524,555,o),
(524,590,cs),
(524,598,o),
(519,601,o),
(514,601,cs),
(508,601,o),
(503,598,o),
(501,591,cs),
(498,578,o),
(479,565,o),
(459,559,cs),
(448,555,o),
(433,553,o),
(412,553,cs),
(358,554,o),
(289,582,o),
(270,582,cs),
(236,582,o),
(202,547,o),
(181,517,cs),
(161,489,o),
(126,444,o),
(126,418,cs),
(126,411,o),
(130,408,o),
(134,408,cs),
(138,408,o),
(143,411,o),
(145,414,cs),
(172,463,o),
(233,472,o),
(263,469,cs),
(297,465,o),
(333,455,o),
(356,444,c),
(312,384,o),
(171,236,o),
(170,221,cs),
(169,208,o),
(193,191,o),
(209,191,cs),
(212,191,o),
(215,192,o),
(217,193,cs),
(230,202,o),
(255,228,o),
(271,228,cs),
(282,228,o),
(288,217,o),
(286,184,cs),
(280,98,o),
(149,-105,o),
(46,-107,cs),
(25,-108,o),
(16,-99,o),
(16,-85,cs),
(16,-44,o),
(95,44,o),
(156,74,cs),
(170,80,o),
(179,90,o),
(179,97,cs),
(179,101,o),
(176,103,o),
(170,103,cs),
(167,103,o),
(163,102,o),
(158,101,cs),
(117,91,o),
(53,51,o),
(22,23,cs),
(-11,-6,o),
(-31,-38,o),
(-31,-67,cs),
(-31,-83,o),
(-25,-98,o),
(-13,-111,cs),
(9,-135,o),
(45,-153,o),
(90,-153,cs)
);
}
);
width = 398;
}
);
note = Z;
unicode = 90;
}
{
color = 0;
glyphname = bracketleft;
lastChange = "2022-06-01 02:09:47 +0000";
layers = (
{
background = {
shapes = (
{
closed = 1;
nodes = (
(262,-28,ls),
(269,-28,o),
(295,39,o),
(288,39,cs),
(128,39,l),
(182,202,o),
(291,414,o),
(381,564,c),
(410,564,o),
(473,562,o),
(510,562,cs),
(517,562,o),
(549,623,o),
(542,623,cs),
(293,623,l),
(250,563,o),
(52,168,o),
(21,56,cs),
(15,35,o),
(12,19,o),
(12,6,cs),
(12,-20,o),
(29,-28,o),
(76,-28,cs)
);
}
);
};
layerId = "C623C401-2266-4A98-B253-3D45160C29C7";
shapes = (
{
closed = 1;
nodes = (
(262,-28,ls),
(269,-28,o),
(295,39,o),
(288,39,cs),
(128,39,l),
(182,202,o),
(291,414,o),
(381,564,c),
(410,564,o),
(473,562,o),
(510,562,cs),
(517,562,o),
(549,623,o),
(542,623,cs),
(293,623,l),
(250,563,o),
(52,168,o),
(21,56,cs),
(15,35,o),
(12,19,o),
(12,6,cs),
(12,-20,o),
(29,-28,o),
(76,-28,cs)
);
}
);
width = 429;
}
);
note = bracketleft;
unicode = 91;
}
{
color = 3;
glyphname = backslash;
lastChange = "2022-04-08 20:31:11 +0000";
layers = (
{
background = {
shapes = (
{
closed = 1;
nodes = (
(412,0,l),
(118,632,l),
(39,632,l),
(332,0,l)
);
}
);
};
layerId = "C623C401-2266-4A98-B253-3D45160C29C7";
shapes = (
{
closed = 1;
nodes = (
(412,0,l),
(118,632,l),
(39,632,l),
(332,0,l)
);
}
);
width = 372;
}
);
note = backslash;
unicode = 92;
}
{
color = 3;
glyphname = bracketright;
lastChange = "2022-04-08 20:31:11 +0000";
layers = (
{
background = {
shapes = (
{
closed = 1;
nodes = (
(259,-28,l),
(302,32,o),
(500,427,o),
(531,539,cs),
(537,560,o),
(540,576,o),
(540,589,cs),
(540,615,o),
(523,623,o),
(476,623,cs),
(290,623,ls),
(283,623,o),
(257,556,o),
(264,556,cs),
(424,556,l),
(370,393,o),
(261,181,o),
(171,31,c),
(142,31,o),
(79,33,o),
(42,33,cs),
(35,33,o),
(3,-28,o),
(10,-28,cs)
);
}
);
};
layerId = "C623C401-2266-4A98-B253-3D45160C29C7";
shapes = (
{
closed = 1;
nodes = (
(259,-28,l),
(302,32,o),
(500,427,o),
(531,539,cs),
(537,560,o),
(540,576,o),
(540,589,cs),
(540,615,o),
(523,623,o),
(476,623,cs),
(290,623,ls),
(283,623,o),
(257,556,o),
(264,556,cs),
(424,556,l),
(370,393,o),
(261,181,o),
(171,31,c),
(142,31,o),
(79,33,o),
(42,33,cs),
(35,33,o),
(3,-28,o),
(10,-28,cs)
);
}
);
width = 497;
}
);
note = bracketright;
unicode = 93;
}
{
color = 0;
glyphname = underscore;
lastChange = "2022-06-01 02:09:47 +0000";
layers = (
{
background = {
shapes = (
{
closed = 1;
nodes = (
(494,-139,ls),
(500,-139,o),
(519,-115,o),
(519,-102,cs),
(519,-97,o),
(517,-94,o),
(510,-94,cs),
(1,-94,ls),
(-12,-94,o),
(-43,-139,o),
(-26,-139,cs)
);
}
);
};
layerId = "C623C401-2266-4A98-B253-3D45160C29C7";
shapes = (
{
closed = 1;
nodes = (
(494,-139,ls),
(500,-139,o),
(519,-115,o),
(519,-102,cs),
(519,-97,o),
(517,-94,o),
(510,-94,cs),
(1,-94,ls),
(-12,-94,o),
(-43,-139,o),
(-26,-139,cs)
);
}
);
width = 510;
}
);
note = underscore;
unicode = 95;
}
{
glyphname = a;
lastChange = "2022-06-01 03:29:50 +0000";
layers = (
{
anchors = (
{
name = bottom;
pos = (212,0);
},
{
name = ogonek;
pos = (353,10);
},
{
name = top;
pos = (345,425);
}
);
background = {
anchors = (
{
name = bottom;
pos = (212,0);
},
{
name = ogonek;
pos = (381,10);
},
{
name = top;
pos = (212,454);
}
);
shapes = (
{
closed = 1;
nodes = (
(119,-6,o),
(124,-5,o),
(130,-5,cs),
(180,0,o),
(217,82,o),
(239,119,c),
(237,108,o),
(236,97,o),
(236,86,cs),
(236,35,o),
(262,-6,o),
(321,-6,cs),
(359,-6,o),
(393,12,o),
(423,51,cs),
(457,96,o),
(486,156,o),
(512,206,cs),
(517,216,o),
(508,231,o),
(500,231,cs),
(497,231,o),
(494,229,o),
(492,225,cs),
(482,206,o),
(450,139,o),
(423,98,cs),
(401,66,o),
(378,40,o),
(357,40,cs),
(350,40,o),
(344,47,o),
(344,65,cs),
(344,71,o),
(344,79,o),
(346,88,cs),
(355,141,o),
(380,197,o),
(392,228,cs),
(426,309,o),
(470,400,o),
(496,411,cs),
(504,414,o),
(508,418,o),
(508,420,cs),
(508,424,o),
(502,426,o),
(491,426,cs),
(487,426,ls),
(468,425,o),
(448,424,o),
(427,424,cs),
(389,424,o),
(350,426,o),
(321,428,cs),
(229,432,o),
(154,387,o),
(97,282,cs),
(76,244,o),
(25,145,o),
(25,73,cs),
(25,28,o),
(47,-6,o),
(113,-6,cs)
);
},
{
closed = 1;
nodes = (
(142,45,o),
(139,52,o),
(139,61,cs),
(139,120,o),
(260,360,o),
(303,394,cs),
(312,401,o),
(324,408,o),
(332,408,cs),
(338,408,o),
(340,404,o),
(337,395,cs),
(308,324,o),
(250,184,o),
(241,164,cs),
(215,107,o),
(170,45,o),
(150,45,cs)
);
}
);
};
layerId = "C623C401-2266-4A98-B253-3D45160C29C7";
shapes = (
{
closed = 1;
nodes = (
(142,45,o),
(139,52,o),
(139,61,cs),
(139,120,o),
(259,357,o),
(303,394,cs),
(312,402,o),
(324,408,o),
(332,408,cs),
(336,408,o),
(338,406,o),
(338,402,cs),
(338,384,o),
(282,263,o),
(256,199,cs),
(216,99,o),
(167,45,o),
(150,45,cs)
);
},
{
closed = 1;
nodes = (
(219,428,o),
(152,383,o),
(97,282,cs),
(76,244,o),
(25,145,o),
(25,73,cs),
(25,28,o),
(47,-6,o),
(113,-6,cs),
(135,-6,o),
(151,-1,o),
(167,13,cs),
(194,37,o),
(212,70,o),
(239,119,c),
(237,108,o),
(236,97,o),
(236,86,cs),
(236,35,o),
(262,-6,o),
(321,-6,cs),
(362,-6,o),
(394,14,o),
(426,55,cs),
(462,102,o),
(495,165,o),
(513,201,cs),
(515,205,o),
(516,208,o),
(516,211,cs),
(516,217,o),
(509,227,o),
(502,227,cs),
(498,227,o),
(495,224,o),
(493,220,cs),
(483,201,o),
(454,144,o),
(425,101,cs),
(403,69,o),
(377,40,o),
(360,40,cs),
(350,40,o),
(344,48,o),
(344,65,cs),
(344,94,o),
(364,162,o),
(392,229,cs),
(430,319,o),
(469,398,o),
(501,414,cs),
(505,416,o),
(507,418,o),
(507,421,cs),
(507,425,o),
(504,427,o),
(497,427,cs),
(485,427,o),
(460,422,o),
(412,422,cs),
(382,422,o),
(345,428,o),
(310,428,cs)
);
}
);
width = 426;
}
);
metricRight = n;
note = a;
unicode = 97;
}
{
glyphname = b;
lastChange = "2022-04-12 02:32:38 +0000";
layers = (
{
background = {
shapes = (
{
closed = 1;
nodes = (
(244,-9,o),
(290,31,o),
(325,86,c),
(332,67,o),
(348,53,o),
(368,53,cs),
(379,53,o),
(391,58,o),
(403,68,cs),
(441,99,o),
(473,170,o),
(491,204,cs),
(496,214,o),
(487,222,o),
(478,222,cs),
(474,222,o),
(469,220,o),
(467,215,cs),
(457,196,o),
(430,138,o),
(403,104,cs),
(391,88,o),
(379,78,o),
(369,78,cs),
(353,78,o),
(346,94,o),
(346,111,cs),
(346,118,o),
(347,124,o),
(349,130,c),
(367,166,ls),
(401,234,o),
(431,320,o),
(431,371,cs),
(431,389,o),
(427,403,o),
(417,410,cs),
(403,419,o),
(383,425,o),
(365,425,cs),
(354,425,o),
(344,422,o),
(337,417,cs),
(287,379,o),
(245,318,o),
(187,237,c),
(230,338,o),
(322,475,o),
(370,524,cs),
(378,532,o),
(390,539,o),
(395,539,cs),
(401,539,o),
(405,542,o),
(405,545,cs),
(405,550,o),
(398,557,o),
(382,563,cs),
(368,568,o),
(355,570,o),
(343,570,cs),
(270,570,o),
(216,500,o),
(177,444,cs),
(150,405,o),
(35,207,o),
(35,89,cs),
(35,69,o),
(38,51,o),
(46,37,cs),
(66,0,o),
(114,-9,o),
(160,-9,cs)
);
},
{
closed = 1;
nodes = (
(134,32,o),
(130,38,o),
(130,48,cs),
(130,100,o),
(229,261,o),
(237,271,cs),
(260,303,o),
(283,331,o),
(300,350,c),
(308,275,o),
(190,32,o),
(143,32,cs)
);
},
{
closed = 1;
nodes = (
(364,173,o),
(390,199,o),
(390,230,cs),
(390,261,o),
(364,287,o),
(333,287,cs),
(302,287,o),
(276,261,o),
(276,230,cs),
(276,199,o),
(302,173,o),
(333,173,cs)
);
}
);
};
layerId = "C623C401-2266-4A98-B253-3D45160C29C7";
shapes = (
{
closed = 1;
nodes = (
(134,32,o),
(130,38,o),
(130,48,cs),
(130,100,o),
(229,261,o),
(237,271,cs),
(260,303,o),
(283,331,o),
(300,350,c),
(308,275,o),
(190,32,o),
(143,32,cs)
);
},
{
closed = 1;
nodes = (
(190,244,l),
(234,345,o),
(323,476,o),
(370,524,cs),
(378,532,o),
(387,539,o),
(396,539,cs),
(402,539,o),
(405,541,o),
(405,545,cs),
(405,550,o),
(398,557,o),
(382,563,cs),
(368,568,o),
(355,570,o),
(343,570,cs),
(270,570,o),
(216,500,o),
(177,444,cs),
(150,405,o),
(35,207,o),
(35,89,cs),
(35,17,o),
(79,-9,o),
(160,-9,cs),
(242,-9,o),
(289,29,o),
(324,84,c),
(331,64,o),
(349,53,o),
(369,53,cs),
(399,53,o),
(424,80,o),
(446,119,cs),
(464,150,o),
(479,180,o),
(490,201,cs),
(492,205,o),
(493,208,o),
(493,211,cs),
(493,217,o),
(486,227,o),
(479,227,cs),
(475,227,o),
(472,224,o),
(470,220,cs),
(460,201,o),
(432,144,o),
(407,108,cs),
(393,88,o),
(382,80,o),
(370,80,cs),
(358,80,o),
(348,92,o),
(348,109,cs),
(348,122,o),
(351,133,o),
(364,159,cs),
(400,231,o),
(431,320,o),
(431,371,cs),
(431,389,o),
(427,403,o),
(417,410,cs),
(403,419,o),
(383,425,o),
(365,425,cs),
(354,425,o),
(344,422,o),
(337,417,cs),
(288,380,o),
(247,321,o),
(191,243,c)
);
}
);
width = 403;
}
);
note = b;
unicode = 98;
}
{
glyphname = c;
lastChange = "2022-06-01 03:29:50 +0000";
layers = (
{
anchors = (
{
name = bottom;
pos = (165,0);
},
{
name = top;
pos = (315,425);
}
);
background = {
anchors = (
{
name = bottom;
pos = (168,0);
},
{
name = top;
pos = (168,454);
}
);
shapes = (
{
closed = 1;
nodes = (
(253,-16,o),
(314,26,o),
(357,90,cs),
(382,127,o),
(404,166,o),
(423,204,cs),
(428,214,o),
(419,224,o),
(411,224,cs),
(407,224,o),
(403,222,o),
(401,217,cs),
(362,138,o),
(297,24,o),
(213,24,cs),
(169,24,o),
(155,52,o),
(155,88,cs),
(155,136,o),
(180,198,o),
(190,224,cs),
(216,288,o),
(248,347,o),
(281,384,cs),
(290,395,o),
(300,401,o),
(307,401,cs),
(316,401,o),
(322,394,o),
(322,381,cs),
(322,377,o),
(321,373,o),
(320,368,cs),
(315,344,o),
(284,280,o),
(259,238,c),
(265,233,o),
(275,228,o),
(289,228,cs),
(301,228,o),
(316,232,o),
(331,243,cs),
(346,254,o),
(370,285,o),
(383,315,cs),
(392,335,o),
(395,351,o),
(395,365,cs),
(395,419,o),
(340,435,o),
(279,431,cs),
(243,429,o),
(206,411,o),
(175,384,cs),
(101,319,o),
(40,195,o),
(40,103,cs),
(40,23,o),
(99,-16,o),
(173,-16,cs)
);
},
{
closed = 1;
nodes = (
(130,57,o),
(156,83,o),
(156,114,cs),
(156,145,o),
(130,171,o),
(99,171,cs),
(68,171,o),
(42,145,o),
(42,114,cs),
(42,83,o),
(68,57,o),
(99,57,cs)
);
}
);
};
layerId = "C623C401-2266-4A98-B253-3D45160C29C7";
shapes = (
{
closed = 1;
nodes = (
(251,-16,o),
(305,21,o),
(348,76,cs),
(376,112,o),
(400,155,o),
(423,201,cs),
(425,205,o),
(426,208,o),
(426,211,cs),
(426,217,o),
(419,227,o),
(412,227,cs),
(408,227,o),
(405,224,o),
(403,220,cs),
(373,159,o),
(341,107,o),
(307,72,cs),
(277,42,o),
(246,24,o),
(213,24,cs),
(169,24,o),
(155,52,o),
(155,88,cs),
(155,167,o),
(228,325,o),
(281,384,cs),
(290,395,o),
(300,401,o),
(307,401,cs),
(317,401,o),
(322,392,o),
(322,383,cs),
(322,351,o),
(276,265,o),
(259,238,c),
(265,233,o),
(275,228,o),
(289,228,cs),
(343,228,o),
(395,311,o),
(395,365,cs),
(395,410,o),
(357,434,o),
(292,433,cs),
(245,432,o),
(209,413,o),
(175,384,cs),
(101,319,o),
(40,195,o),
(40,103,cs),
(40,23,o),
(99,-16,o),
(173,-16,cs)
);
}
);
width = 336;
}
);
metricRight = o;
note = c;
unicode = 99;
}
{
glyphname = d;
lastChange = "2022-06-01 21:15:08 +0000";
layers = (
{
anchors = (
{
name = bottom;
pos = (217,0);
},
{
name = center;
pos = (427,478);
},
{
name = top;
pos = (217,545);
},
{
name = topright;
pos = (563,530);
}
);
background = {
anchors = (
{
name = bottom;
pos = (217,0);
},
{
name = center;
pos = (217,227);
},
{
name = top;
pos = (217,763);
},
{
name = topright;
pos = (404,454);
}
);
shapes = (
{
closed = 1;
nodes = (
(360,-7,o),
(400,21,o),
(424,53,cs),
(458,98,o),
(485,154,o),
(511,203,cs),
(517,213,o),
(508,223,o),
(499,223,cs),
(495,223,o),
(491,222,o),
(489,217,cs),
(477,194,o),
(454,145,o),
(424,102,cs),
(401,69,o),
(377,40,o),
(359,40,cs),
(347,40,o),
(342,54,o),
(342,75,cs),
(342,111,o),
(357,167,o),
(370,202,cs),
(417,324,o),
(498,453,o),
(553,508,cs),
(561,516,o),
(572,523,o),
(577,523,cs),
(583,523,o),
(587,526,o),
(587,529,cs),
(587,534,o),
(580,541,o),
(564,547,cs),
(556,550,o),
(542,552,o),
(525,552,cs),
(514,552,o),
(503,551,o),
(492,549,cs),
(441,540,o),
(392,478,o),
(356,420,c),
(337,425,o),
(310,431,o),
(295,432,cs),
(223,436,o),
(155,401,o),
(90,278,cs),
(58,215,o),
(35,159,o),
(35,99,cs),
(35,45,o),
(55,-1,o),
(102,-5,cs),
(123,-7,o),
(150,-7,o),
(183,30,cs),
(200,49,o),
(214,71,o),
(225,89,cs),
(235,108,l),
(231,61,o),
(248,17,o),
(282,1,cs),
(294,-5,o),
(306,-7,o),
(319,-7,cs)
);
},
{
closed = 1;
nodes = (
(148,43,o),
(144,49,o),
(144,63,cs),
(142,173,o),
(245,357,o),
(288,391,cs),
(296,398,o),
(309,402,o),
(318,402,cs),
(328,402,o),
(334,398,o),
(330,387,cs),
(302,316,o),
(227,144,o),
(218,125,cs),
(198,83,o),
(168,43,o),
(153,43,cs)
);
}
);
};
layerId = "C623C401-2266-4A98-B253-3D45160C29C7";
shapes = (
{
closed = 1;
nodes = (
(148,43,o),
(144,49,o),
(144,66,cs),
(144,113,o),
(167,186,o),
(198,252,cs),
(226,314,o),
(261,369,o),
(288,391,cs),
(295,397,o),
(311,402,o),
(318,402,cs),
(326,402,o),
(331,400,o),
(331,393,cs),
(331,388,o),
(328,382,o),
(322,367,cs),
(293,294,o),
(227,144,o),
(218,125,cs),
(198,83,o),
(168,43,o),
(154,43,cs)
);
},
{
closed = 1;
nodes = (
(491,553,o),
(473,549,o),
(456,540,cs),
(425,524,o),
(388,478,o),
(356,420,c),
(339,425,o),
(308,432,o),
(284,432,cs),
(216,432,o),
(152,395,o),
(90,278,cs),
(58,215,o),
(35,159,o),
(35,99,cs),
(35,32,o),
(63,-6,o),
(114,-6,cs),
(171,-6,o),
(215,67,o),
(235,108,c),
(230,49,o),
(258,-7,o),
(319,-7,cs),
(360,-7,o),
(397,21,o),
(421,53,cs),
(458,100,o),
(490,165,o),
(508,201,cs),
(510,205,o),
(511,208,o),
(511,211,cs),
(511,217,o),
(504,227,o),
(497,227,cs),
(493,227,o),
(490,224,o),
(488,220,cs),
(478,201,o),
(449,144,o),
(420,101,cs),
(397,68,o),
(377,40,o),
(359,40,cs),
(347,40,o),
(342,54,o),
(342,75,cs),
(342,155,o),
(451,408,o),
(530,495,cs),
(546,513,o),
(561,524,o),
(574,524,cs),
(580,524,o),
(583,526,o),
(583,530,cs),
(583,541,o),
(556,553,o),
(517,553,cs)
);
}
);
width = 421;
}
);
note = d;
unicode = 100;
}
{
glyphname = e;
lastChange = "2022-06-13 20:10:17 +0000";
layers = (
{
anchors = (
{
name = bottom;
pos = (166,0);
},
{
name = ogonek;
pos = (263,10);
},
{
name = top;
pos = (299,425);
}
);
background = {
anchors = (
{
name = bottom;
pos = (166,0);
},
{
name = ogonek;
pos = (300,10);
},
{
name = top;
pos = (166,454);
}
);
shapes = (
{
closed = 1;
nodes = (
(245,-15,o),
(290,9,o),
(333,60,cs),
(372,104,o),
(403,170,o),
(421,205,cs),
(426,215,o),
(417,226,o),
(409,226,cs),
(405,226,o),
(401,223,o),
(398,218,cs),
(393,208,o),
(383,186,o),
(370,162,cs),
(335,98,o),
(284,24,o),
(203,24,cs),
(173,24,o),
(151,42,o),
(151,86,cs),
(151,92,o),
(151,98,o),
(152,105,cs),
(154,124,o),
(160,145,o),
(170,172,c),
(259,179,o),
(335,229,o),
(373,301,cs),
(387,327,o),
(394,348,o),
(394,366,cs),
(394,413,o),
(347,432,o),
(281,432,cs),
(177,432,o),
(92,302,o),
(57,195,cs),
(46,163,o),
(40,132,o),
(40,105,cs),
(40,33,o),
(81,-15,o),
(178,-15,cs)
);
},
{
closed = 1;
nodes = (
(191,220,ls),
(204,251,o),
(245,344,o),
(278,382,cs),
(286,392,o),
(293,396,o),
(299,396,cs),
(306,396,o),
(311,389,o),
(311,376,cs),
(311,371,o),
(310,365,o),
(309,359,cs),
(293,288,o),
(243,223,o),
(183,201,c)
);
}
);
};
layerId = "C623C401-2266-4A98-B253-3D45160C29C7";
shapes = (
{
closed = 1;
nodes = (
(204,251,o),
(245,344,o),
(278,382,cs),
(286,392,o),
(293,396,o),
(299,396,cs),
(306,396,o),
(311,389,o),
(311,376,cs),
(311,327,o),
(262,230,o),
(183,201,c)
);
},
{
closed = 1;
nodes = (
(242,-15,o),
(288,11,o),
(324,50,cs),
(363,91,o),
(392,147,o),
(419,201,cs),
(421,205,o),
(422,208,o),
(422,211,cs),
(422,217,o),
(415,227,o),
(408,227,cs),
(404,227,o),
(401,224,o),
(399,220,cs),
(371,167,o),
(343,108,o),
(303,68,cs),
(276,42,o),
(244,24,o),
(203,24,cs),
(173,24,o),
(151,42,o),
(151,86,cs),
(151,114,o),
(158,139,o),
(170,172,c),
(259,179,o),
(335,229,o),
(373,301,cs),
(387,327,o),
(394,348,o),
(394,366,cs),
(394,406,o),
(360,429,o),
(294,432,cs),
(290,432,o),
(282,432,o),
(278,432,cs),
(160,432,o),
(40,234,o),
(40,105,cs),
(40,26,o),
(89,-15,o),
(178,-15,cs)
);
}
);
width = 332;
}
);
metricRight = o;
note = e;
unicode = 101;
}
{
glyphname = g;
lastChange = "2022-04-11 20:33:12 +0000";
layers = (
{
anchors = (
{
name = bottom;
pos = (67,-186);
},
{
name = top;
pos = (343,425);
}
);
background = {
anchors = (
{
name = bottom;
pos = (203,-237);
},
{
name = top;
pos = (203,454);
}
);
shapes = (
{
closed = 1;
nodes = (
(198,-197,o),
(257,-111,o),
(298,-13,c),
(309,-8,o),
(319,-2,o),
(330,5,cs),
(355,21,o),
(381,43,o),
(406,70,cs),
(437,105,o),
(466,149,o),
(494,204,cs),
(500,215,o),
(492,224,o),
(483,224,cs),
(478,224,o),
(473,221,o),
(470,215,cs),
(452,178,o),
(430,142,o),
(406,113,cs),
(377,77,o),
(346,47,o),
(312,25,c),
(336,89,o),
(354,155,o),
(372,204,cs),
(389,248,o),
(448,393,o),
(486,411,cs),
(494,415,o),
(497,419,o),
(497,422,cs),
(497,425,o),
(493,427,o),
(485,427,cs),
(482,427,o),
(479,427,o),
(476,426,c),
(449,422,o),
(424,420,o),
(400,420,cs),
(356,420,o),
(318,425,o),
(283,425,cs),
(210,425,o),
(152,405,o),
(93,282,cs),
(74,243,o),
(31,153,o),
(31,84,cs),
(31,34,o),
(54,-5,o),
(126,-5,cs),
(176,-5,o),
(207,54,o),
(218,78,c),
(184,-21,l),
(110,-40,o),
(-10,-73,o),
(-10,-142,cs),
(-10,-182,o),
(29,-201,o),
(94,-199,cs)
);
},
{
closed = 1;
nodes = (
(39,-158,o),
(32,-148,o),
(32,-135,cs),
(32,-95,o),
(114,-68,o),
(173,-52,c),
(148,-113,o),
(105,-158,o),
(64,-158,cs)
);
},
{
closed = 1;
nodes = (
(136,22,o),
(133,29,o),
(133,39,cs),
(133,102,o),
(257,360,o),
(299,394,cs),
(308,401,o),
(320,408,o),
(328,408,cs),
(334,408,o),
(336,404,o),
(333,395,cs),
(306,324,o),
(223,132,o),
(213,112,cs),
(189,61,o),
(164,22,o),
(144,22,cs)
);
}
);
};
layerId = "C623C401-2266-4A98-B253-3D45160C29C7";
shapes = (
{
closed = 1;
nodes = (
(214,67,l),
(184,-21,l),
(110,-40,o),
(-10,-73,o),
(-10,-142,cs),
(-10,-180,o),
(24,-199,o),
(86,-199,cs),
(200,-199,o),
(257,-111,o),
(298,-13,c),
(333,3,o),
(375,36,o),
(406,70,cs),
(438,105,o),
(467,150,o),
(491,197,cs),
(493,201,o),
(496,208,o),
(496,211,cs),
(496,217,o),
(489,227,o),
(482,227,cs),
(478,227,o),
(475,224,o),
(473,220,cs),
(454,182,o),
(432,145,o),
(405,112,cs),
(379,79,o),
(347,46,o),
(312,25,c),
(336,89,o),
(352,146,o),
(372,199,cs),
(404,284,o),
(454,400,o),
(491,414,cs),
(495,416,o),
(497,418,o),
(497,421,cs),
(497,425,o),
(494,427,o),
(487,427,cs),
(475,427,o),
(448,420,o),
(400,420,cs),
(356,420,o),
(318,425,o),
(283,425,cs),
(210,425,o),
(152,405,o),
(93,282,cs),
(74,243,o),
(31,153,o),
(31,84,cs),
(31,34,o),
(54,-5,o),
(126,-5,cs),
(170,-5,o),
(200,40,o),
(213,68,c)
);
},
{
closed = 1;
nodes = (
(39,-158,o),
(32,-148,o),
(32,-135,cs),
(32,-95,o),
(114,-68,o),
(173,-52,c),
(148,-113,o),
(105,-158,o),
(64,-158,cs)
);
},
{
closed = 1;
nodes = (
(136,22,o),
(133,29,o),
(133,39,cs),
(133,72,o),
(166,156,o),
(203,233,cs),
(237,305,o),
(275,370,o),
(293,388,cs),
(308,403,o),
(320,408,o),
(327,408,cs),
(331,408,o),
(334,406,o),
(334,401,cs),
(334,393,o),
(315,348,o),
(293,296,cs),
(260,217,o),
(218,121,o),
(213,112,cs),
(189,61,o),
(164,22,o),
(144,22,cs)
);
}
);
width = 406;
}
);
note = g;
unicode = 103;
}
{
glyphname = h;
lastChange = "2022-09-21 03:52:21 +0000";
layers = (
{
anchors = (
{
name = bottom;
pos = (196,0);
},
{
name = center;
pos = (258,465);
},
{
name = top;
pos = (337,530);
}
);
background = {
anchors = (
{
name = bottom;
pos = (196,0);
},
{
name = center;
pos = (196,382);
},
{
name = top;
pos = (196,763);
}
);
shapes = (
{
closed = 1;
nodes = (
(144,-6,o),
(151,-2,o),
(151,2,cs),
(151,4,o),
(150,6,o),
(148,8,cs),
(141,16,o),
(137,29,o),
(137,46,cs),
(137,141,o),
(235,287,o),
(291,326,c),
(282,312,o),
(263,270,o),
(246,222,cs),
(230,178,o),
(215,134,o),
(215,90,cs),
(215,34,o),
(234,-4,o),
(290,-4,cs),
(329,-4,o),
(364,27,o),
(391,60,cs),
(426,104,o),
(459,163,o),
(480,206,cs),
(485,216,o),
(476,226,o),
(467,226,cs),
(463,226,o),
(460,224,o),
(457,219,cs),
(442,189,o),
(418,141,o),
(390,102,cs),
(380,88,o),
(345,45,o),
(327,45,cs),
(318,45,o),
(314,53,o),
(314,65,cs),
(314,108,o),
(363,210,o),
(369,223,cs),
(387,263,o),
(428,334,o),
(428,374,cs),
(428,419,o),
(391,434,o),
(363,434,cs),
(352,434,o),
(342,432,o),
(337,428,cs),
(318,409,o),
(251,337,o),
(199,262,c),
(199,262,o),
(237,334,o),
(250,357,cs),
(311,465,o),
(368,519,o),
(378,526,cs),
(382,529,o),
(384,532,o),
(384,534,cs),
(384,537,o),
(381,540,o),
(375,542,cs),
(360,547,o),
(342,550,o),
(324,550,cs),
(305,550,o),
(286,547,o),
(271,539,cs),
(193,499,o),
(124,366,o),
(79,264,cs),
(52,203,o),
(34,140,o),
(34,91,cs),
(34,50,o),
(47,18,o),
(76,6,cs),
(99,-4,o),
(113,-6,o),
(132,-6,cs)
);
}
);
};
layerId = "C623C401-2266-4A98-B253-3D45160C29C7";
shapes = (
{
closed = 1;
nodes = (
(215,34,o),
(234,-4,o),
(290,-4,cs),
(329,-4,o),
(364,25,o),
(393,61,cs),
(426,101,o),
(460,165,o),
(478,201,cs),
(480,205,o),
(481,208,o),
(481,211,cs),
(481,217,o),
(474,227,o),
(467,227,cs),
(463,227,o),
(460,224,o),
(458,220,cs),
(451,206,o),
(423,148,o),
(392,105,cs),
(368,72,o),
(341,45,o),
(327,45,cs),
(319,45,o),
(314,52,o),
(314,65,cs),
(314,97,o),
(328,138,o),
(369,223,cs),
(387,263,o),
(428,334,o),
(428,374,cs),
(428,411,o),
(401,434,o),
(363,434,cs),
(352,434,o),
(342,432,o),
(337,428,cs),
(325,418,o),
(235,313,o),
(199,262,c),
(198,263,l),
(227,320,o),
(262,380,o),
(291,424,cs),
(323,469,o),
(356,508,o),
(378,526,cs),
(383,530,o),
(384,532,o),
(384,534,cs),
(384,538,o),
(380,541,o),
(369,544,cs),
(357,547,o),
(340,550,o),
(324,550,cs),
(305,550,o),
(286,547,o),
(271,539,cs),
(172,488,o),
(34,222,o),
(34,82,cs),
(34,51,o),
(45,26,o),
(62,14,cs),
(80,1,o),
(105,-6,o),
(132,-6,cs),
(143,-6,o),
(151,-2,o),
(151,2,cs),
(151,6,o),
(146,9,o),
(142,17,cs),
(139,22,o),
(137,29,o),
(137,40,cs),
(137,136,o),
(229,279,o),
(286,323,c),
(287,322,l),
(261,279,o),
(215,161,o),
(215,90,cs)
);
}
);
width = 391;
}
);
metricRight = n;
note = h;
unicode = 104;
}
{
glyphname = i;
lastChange = "2022-04-08 21:27:07 +0000";
layers = (
{
background = {
shapes = (
{
closed = 1;
nodes = (
(178,-8,o),
(220,21,o),
(254,60,cs),
(293,105,o),
(322,165,o),
(342,205,cs),
(347,216,o),
(338,227,o),
(329,227,cs),
(326,227,o),
(323,225,o),
(321,221,cs),
(302,183,o),
(280,139,o),
(254,103,cs),
(240,84,o),
(224,65,o),
(206,50,cs),
(188,36,o),
(167,27,o),
(152,27,cs),
(138,27,o),
(129,34,o),
(129,52,cs),
(129,97,o),
(179,206,o),
(200,250,cs),
(237,325,o),
(282,392,o),
(307,409,cs),
(324,420,o),
(292,430,o),
(253,430,cs),
(199,430,o),
(165,426,o),
(136,379,cs),
(98,316,o),
(34,162,o),
(34,80,cs),
(34,17,o),
(80,-8,o),
(128,-8,cs)
);
},
{
closed = 1;
nodes = (
(319,456,o),
(361,501,o),
(361,545,cs),
(361,571,o),
(345,588,o),
(321,588,cs),
(283,588,o),
(240,545,o),
(240,500,cs),
(240,474,o),
(255,456,o),
(280,456,cs)
);
}
);
};
layerId = "C623C401-2266-4A98-B253-3D45160C29C7";
shapes = (
{
ref = idotless;
},
{
pos = (243,0);
ref = dotaccentcomb;
}
);
width = 227;
}
);
note = i;
unicode = 105;
}
{
glyphname = k;
lastChange = "2022-06-03 18:48:05 +0000";
layers = (
{
anchors = (
{
name = bottom;
pos = (217,0);
},
{
name = top;
pos = (224,545);
}
);
background = {
anchors = (
{
name = bottom;
pos = (224,0);
},
{
name = top;
pos = (224,763);
}
);
shapes = (
{
closed = 1;
nodes = (
(145,-6,o),
(150,-5,o),
(153,-3,cs),
(157,0,o),
(157,3,o),
(153,8,cs),
(145,16,o),
(142,32,o),
(142,51,cs),
(142,112,o),
(177,210,o),
(220,236,c),
(217,225,o),
(214,180,o),
(214,143,cs),
(214,132,o),
(215,122,o),
(215,114,cs),
(218,82,o),
(223,48,o),
(239,21,cs),
(249,3,o),
(264,-5,o),
(282,-5,cs),
(312,-5,o),
(351,16,o),
(393,51,cs),
(396,53,o),
(398,57,o),
(398,61,cs),
(398,64,o),
(396,65,o),
(394,63,c),
(388,60,o),
(383,58,o),
(378,58,cs),
(345,58,o),
(329,119,o),
(322,153,cs),
(312,197,o),
(302,283,o),
(302,319,c),
(351,354,o),
(419,388,o),
(474,403,cs),
(488,407,o),
(493,413,o),
(493,420,cs),
(493,435,o),
(468,452,o),
(441,452,cs),
(399,452,o),
(342,408,o),
(300,368,cs),
(259,328,o),
(210,269,o),
(192,238,c),
(209,272,ls),
(212,279,o),
(218,291,o),
(229,310,cs),
(240,330,o),
(264,369,o),
(276,386,cs),
(299,418,o),
(320,437,o),
(332,445,cs),
(337,448,o),
(339,451,o),
(339,453,cs),
(339,456,o),
(336,459,o),
(329,461,cs),
(314,466,o),
(297,469,o),
(277,469,cs),
(257,469,o),
(240,465,o),
(225,458,cs),
(141,415,o),
(132,371,o),
(84,264,cs),
(58,207,o),
(40,142,o),
(40,91,cs),
(40,50,o),
(52,18,o),
(81,6,cs),
(104,-4,o),
(118,-6,o),
(138,-6,cs)
);
}
);
};
layerId = "C623C401-2266-4A98-B253-3D45160C29C7";
shapes = (
{
closed = 1;
nodes = (
(152,-6,o),
(156,-2,o),
(156,2,cs),
(156,4,o),
(155,6,o),
(151,11,cs),
(145,19,o),
(142,28,o),
(142,51,cs),
(142,211,o),
(316,360,o),
(474,403,cs),
(488,407,o),
(493,413,o),
(493,420,cs),
(493,435,o),
(468,452,o),
(441,452,cs),
(366,452,o),
(245,315,o),
(205,258,c),
(203,260,l),
(231,322,o),
(327,478,o),
(369,515,cs),
(383,527,o),
(389,529,o),
(389,534,cs),
(389,538,o),
(386,540,o),
(377,543,cs),
(365,547,o),
(347,550,o),
(323,550,cs),
(251,550,o),
(177,468,o),
(91,280,cs),
(48,187,o),
(40,139,o),
(40,88,cs),
(40,26,o),
(73,-6,o),
(137,-6,cs)
);
},
{
closed = 1;
nodes = (
(369,-7,o),
(445,115,o),
(487,201,cs),
(489,205,o),
(490,208,o),
(490,211,cs),
(490,217,o),
(483,227,o),
(476,227,cs),
(472,227,o),
(469,224,o),
(467,220,cs),
(461,209,o),
(443,171,o),
(420,138,cs),
(349,36,o),
(333,85,o),
(314,196,cs),
(305,248,o),
(302,316,o),
(302,337,c),
(223,250,l),
(217,226,o),
(214,180,o),
(214,144,cs),
(214,44,o),
(249,-7,o),
(292,-7,cs)
);
}
);
width = 400;
}
);
note = k;
unicode = 107;
}
{
glyphname = l;
lastChange = "2022-04-16 05:07:10 +0000";
layers = (
{
anchors = (
{
name = bottom;
pos = (130,0);
},
{
name = center;
pos = (130,273);
},
{
name = top;
pos = (363,545);
},
{
name = topright;
pos = (417,545);
}
);
background = {
anchors = (
{
name = bottom;
pos = (130,0);
},
{
name = center;
pos = (130,382);
},
{
name = top;
pos = (130,763);
},
{
name = topright;
pos = (240,763);
}
);
shapes = (
{
closed = 1;
nodes = (
(188,-7,o),
(227,20,o),
(260,60,cs),
(296,103,o),
(327,164,o),
(347,204,cs),
(352,214,o),
(343,224,o),
(335,224,cs),
(330,224,o),
(327,222,o),
(324,217,cs),
(309,187,o),
(287,142,o),
(259,103,c),
(237,67,o),
(196,30,o),
(170,30,cs),
(156,30,o),
(146,41,o),
(146,69,cs),
(146,77,o),
(147,87,o),
(149,99,cs),
(168,193,o),
(207,281,o),
(264,375,cs),
(298,431,o),
(333,478,o),
(361,506,cs),
(369,514,o),
(380,521,o),
(385,521,cs),
(391,521,o),
(395,524,o),
(395,527,cs),
(395,532,o),
(388,539,o),
(372,545,cs),
(364,548,o),
(350,550,o),
(333,550,cs),
(322,550,o),
(311,549,o),
(300,547,cs),
(225,533,o),
(156,406,o),
(122,342,cs),
(78,260,o),
(40,165,o),
(40,94,cs),
(40,74,o),
(43,56,o),
(50,40,cs),
(64,9,o),
(94,-7,o),
(149,-7,cs)
);
}
);
};
layerId = "C623C401-2266-4A98-B253-3D45160C29C7";
shapes = (
{
closed = 1;
nodes = (
(152,182,o),
(254,386,o),
(343,491,cs),
(364,516,o),
(374,520,o),
(386,520,cs),
(391,520,o),
(395,523,o),
(395,527,cs),
(395,532,o),
(390,538,o),
(374,544,cs),
(360,549,o),
(337,552,o),
(325,552,cs),
(266,552,o),
(229,533,o),
(174,447,cs),
(77,295,o),
(40,175,o),
(40,94,cs),
(40,30,o),
(79,-9,o),
(141,-7,cs),
(174,-7,o),
(206,9,o),
(233,43,cs),
(272,92,o),
(305,164,o),
(325,204,cs),
(330,214,o),
(321,224,o),
(313,224,cs),
(308,224,o),
(305,222,o),
(302,217,cs),
(283,179,o),
(237,93,o),
(209,63,cs),
(196,48,o),
(184,40,o),
(174,40,cs),
(161,40,o),
(152,52,o),
(152,77,cs)
);
},
{
closed = 0;
nodes = (
(995,3416,l)
);
}
);
width = 237;
}
);
note = l;
unicode = 108;
}
{
glyphname = m;
lastChange = "2022-04-08 20:56:17 +0000";
layers = (
{
background = {
shapes = (
{
closed = 1;
nodes = (
(505,-8,o),
(538,21,o),
(567,58,cs),
(607,109,o),
(640,176,o),
(655,204,cs),
(660,215,o),
(650,225,o),
(642,225,cs),
(638,225,o),
(635,223,o),
(633,219,cs),
(623,200,o),
(596,144,o),
(567,101,cs),
(544,68,o),
(520,40,o),
(501,40,cs),
(493,40,o),
(489,48,o),
(489,62,cs),
(489,103,o),
(521,197,o),
(578,306,cs),
(593,334,o),
(599,357,o),
(599,374,cs),
(599,419,o),
(562,434,o),
(534,434,cs),
(523,434,o),
(513,432,o),
(508,428,cs),
(486,411,o),
(440,348,o),
(401,292,c),
(413,314,o),
(431,345,o),
(431,372,cs),
(431,390,o),
(423,406,o),
(401,416,cs),
(384,424,o),
(368,428,o),
(355,428,cs),
(345,428,o),
(337,426,o),
(329,420,cs),
(311,407,o),
(244,310,o),
(201,248,c),
(203,260,o),
(231,305,o),
(237,323,cs),
(240,332,o),
(242,341,o),
(242,349,cs),
(242,372,o),
(230,391,o),
(212,404,cs),
(195,417,o),
(171,423,o),
(150,423,cs),
(141,423,o),
(134,418,o),
(134,411,cs),
(134,409,o),
(135,407,o),
(136,405,cs),
(142,392,o),
(107,315,o),
(98,293,cs),
(69,223,o),
(18,126,o),
(18,72,cs),
(18,3,o),
(68,4,o),
(114,-4,cs),
(121,-5,o),
(125,-4,o),
(125,-1,cs),
(125,0,o),
(124,2,o),
(122,4,cs),
(117,9,o),
(115,17,o),
(115,27,cs),
(115,107,o),
(270,312,o),
(307,346,c),
(287,314,o),
(252,229,o),
(237,193,cs),
(224,162,o),
(202,107,o),
(202,63,cs),
(202,27,o),
(217,-2,o),
(264,-2,cs),
(276,-2,o),
(288,2,o),
(300,6,c),
(296,11,o),
(294,18,o),
(294,28,cs),
(294,102,o),
(422,297,o),
(461,332,c),
(454,303,o),
(428,255,o),
(414,211,cs),
(409,194,o),
(386,135,o),
(386,82,cs),
(386,34,o),
(405,-8,o),
(472,-8,cs)
);
}
);
};
layerId = "C623C401-2266-4A98-B253-3D45160C29C7";
shapes = (
{
closed = 1;
nodes = (
(467,329,l),
(441,264,o),
(391,159,o),
(391,85,cs),
(391,24,o),
(420,-8,o),
(477,-8,cs),
(513,-8,o),
(546,20,o),
(573,55,cs),
(610,102,o),
(642,165,o),
(660,201,cs),
(662,205,o),
(663,208,o),
(663,211,cs),
(663,217,o),
(656,227,o),
(649,227,cs),
(645,227,o),
(642,224,o),
(640,220,cs),
(630,201,o),
(601,144,o),
(572,101,cs),
(549,67,o),
(526,40,o),
(510,40,cs),
(500,40,o),
(495,49,o),
(495,63,cs),
(495,94,o),
(521,183,o),
(578,293,cs),
(594,324,o),
(605,350,o),
(605,376,cs),
(605,410,o),
(576,434,o),
(543,434,cs),
(532,434,o),
(525,432,o),
(516,428,cs),
(500,421,o),
(451,357,o),
(405,292,c),
(403,294,l),
(414,317,o),
(431,349,o),
(431,372,cs),
(431,390,o),
(424,402,o),
(402,415,cs),
(386,424,o),
(373,428,o),
(360,428,cs),
(353,428,o),
(340,426,o),
(332,420,cs),
(314,407,o),
(244,310,o),
(203,251,c),
(201,253,l),
(219,287,o),
(242,321,o),
(242,349,cs),
(242,372,o),
(230,391,o),
(212,404,cs),
(195,417,o),
(170,423,o),
(153,423,cs),
(140,423,o),
(134,418,o),
(134,412,cs),
(134,409,o),
(135,407,o),
(136,405,cs),
(137,403,o),
(137,401,o),
(137,399,cs),
(137,380,o),
(107,315,o),
(98,293,cs),
(69,223,o),
(18,126,o),
(18,72,cs),
(18,23,o),
(43,9,o),
(76,2,cs),
(90,-1,o),
(107,-4,o),
(118,-4,cs),
(123,-4,o),
(125,-3,o),
(125,-1,cs),
(125,1,o),
(123,3,o),
(121,5,cs),
(117,9,o),
(115,17,o),
(115,28,cs),
(115,109,o),
(275,311,o),
(302,338,c),
(304,337,l),
(289,306,o),
(257,237,o),
(233,175,cs),
(212,117,o),
(205,89,o),
(205,63,cs),
(205,27,o),
(220,-2,o),
(267,-2,cs),
(279,-2,o),
(292,1,o),
(303,6,c),
(299,11,o),
(297,18,o),
(297,28,cs),
(297,59,o),
(319,111,o),
(348,163,cs),
(387,236,o),
(445,311,o),
(465,330,c)
);
}
);
width = 573;
}
);
note = m;
unicode = 109;
}
{
glyphname = n;
lastChange = "2022-04-16 05:02:10 +0000";
layers = (
{
anchors = (
{
name = bottom;
pos = (197,0);
},
{
name = top;
pos = (304,425);
}
);
background = {
anchors = (
{
name = bottom;
pos = (199,0);
},
{
name = top;
pos = (199,454);
}
);
shapes = (
{
closed = 1;
nodes = (
(339,-8,o),
(366,17,o),
(396,57,cs),
(436,108,o),
(469,176,o),
(484,204,cs),
(489,215,o),
(479,225,o),
(471,225,cs),
(467,225,o),
(464,223,o),
(462,219,cs),
(452,200,o),
(425,144,o),
(396,101,cs),
(374,68,o),
(349,40,o),
(330,40,cs),
(322,40,o),
(318,48,o),
(318,62,cs),
(318,103,o),
(350,197,o),
(407,306,cs),
(421,334,o),
(427,356,o),
(427,374,cs),
(427,419,o),
(390,434,o),
(362,434,cs),
(351,434,o),
(341,432,o),
(336,428,c),
(319,402,o),
(245,326,o),
(195,238,c),
(192,239,o),
(205,262,o),
(215,280,cs),
(224,297,o),
(234,314,o),
(237,323,cs),
(240,332,o),
(242,341,o),
(242,349,cs),
(242,372,o),
(230,391,o),
(212,404,cs),
(195,417,o),
(171,423,o),
(150,423,cs),
(141,423,o),
(134,418,o),
(134,411,cs),
(134,409,o),
(135,407,o),
(136,405,cs),
(142,392,o),
(107,315,o),
(98,293,cs),
(69,223,o),
(18,126,o),
(18,72,cs),
(18,3,o),
(68,4,o),
(114,-4,cs),
(121,-5,o),
(125,-4,o),
(125,-1,cs),
(125,0,o),
(124,2,o),
(122,4,cs),
(116,10,o),
(114,19,o),
(114,30,cs),
(114,115,o),
(278,316,o),
(289,332,c),
(280,315,o),
(259,264,o),
(243,216,cs),
(237,199,o),
(214,139,o),
(214,85,cs),
(214,36,o),
(233,-8,o),
(301,-8,cs)
);
}
);
};
layerId = "C623C401-2266-4A98-B253-3D45160C29C7";
shapes = (
{
closed = 1;
nodes = (
(193,244,l),
(211,275,o),
(242,318,o),
(242,349,cs),
(242,372,o),
(230,391,o),
(212,404,cs),
(195,417,o),
(170,423,o),
(153,423,cs),
(140,423,o),
(134,418,o),
(134,412,cs),
(134,409,o),
(135,407,o),
(136,405,cs),
(137,403,o),
(137,401,o),
(137,399,cs),
(137,380,o),
(107,315,o),
(98,293,cs),
(69,223,o),
(18,126,o),
(18,72,cs),
(18,23,o),
(43,9,o),
(76,2,cs),
(90,-1,o),
(107,-4,o),
(118,-4,cs),
(123,-4,o),
(125,-3,o),
(125,-1,cs),
(125,1,o),
(123,3,o),
(121,5,cs),
(116,10,o),
(114,17,o),
(114,28,cs),
(114,117,o),
(274,311,o),
(291,328,c),
(293,327,l),
(250,244,o),
(222,156,o),
(222,85,cs),
(222,24,o),
(251,-8,o),
(308,-8,cs),
(344,-8,o),
(370,20,o),
(397,55,cs),
(434,102,o),
(466,165,o),
(484,201,cs),
(486,205,o),
(487,208,o),
(487,211,cs),
(487,217,o),
(480,227,o),
(473,227,cs),
(469,227,o),
(466,224,o),
(464,220,cs),
(454,201,o),
(425,144,o),
(396,101,cs),
(373,67,o),
(352,40,o),
(336,40,cs),
(326,40,o),
(321,49,o),
(321,63,cs),
(321,94,o),
(347,183,o),
(404,293,cs),
(420,324,o),
(431,350,o),
(431,376,cs),
(431,410,o),
(405,434,o),
(370,434,cs),
(359,434,o),
(349,432,o),
(340,428,cs),
(320,419,o),
(252,325,o),
(195,242,c)
);
}
);
width = 397;
}
);
note = n;
unicode = 110;
}
{
glyphname = o;
lastChange = "2022-04-08 20:31:11 +0000";
layers = (
{
anchors = (
{
name = bottom;
pos = (137,0);
},
{
name = center;
pos = (203,213);
},
{
name = ogonek;
pos = (170,10);
},
{
name = top;
pos = (326,425);
},
{
name = topright;
pos = (378,419);
}
);
background = {
anchors = (
{
name = bottom;
pos = (203,0);
},
{
name = center;
pos = (203,227);
},
{
name = ogonek;
pos = (365,10);
},
{
name = top;
pos = (203,454);
},
{
name = topright;
pos = (385,454);
}
);
shapes = (
{
closed = 1;
nodes = (
(231,-7,o),
(284,35,o),
(327,92,c),
(335,68,o),
(346,55,o),
(373,55,cs),
(384,55,o),
(395,59,o),
(405,67,cs),
(444,99,o),
(477,175,o),
(493,205,cs),
(499,215,o),
(489,225,o),
(480,225,cs),
(477,225,o),
(473,224,o),
(471,219,cs),
(457,190,o),
(429,135,o),
(405,102,cs),
(395,89,o),
(383,80,o),
(372,80,cs),
(356,80,o),
(351,98,o),
(351,113,cs),
(351,119,o),
(352,125,o),
(353,129,c),
(401,208,o),
(431,299,o),
(431,351,cs),
(431,425,o),
(373,433,o),
(313,433,cs),
(161,433,o),
(40,234,o),
(40,95,cs),
(40,15,o),
(91,-7,o),
(176,-7,cs)
);
},
{
closed = 1;
nodes = (
(150,24,o),
(147,31,o),
(147,43,cs),
(147,80,o),
(177,166,o),
(202,223,cs),
(234,298,o),
(294,406,o),
(317,406,cs),
(324,406,o),
(327,400,o),
(327,389,cs),
(327,348,o),
(282,242,o),
(271,220,cs),
(229,125,o),
(179,24,o),
(157,24,cs)
);
}
);
};
layerId = "C623C401-2266-4A98-B253-3D45160C29C7";
shapes = (
{
closed = 1;
nodes = (
(150,24,o),
(147,31,o),
(147,43,cs),
(147,80,o),
(177,166,o),
(202,223,cs),
(234,298,o),
(294,406,o),
(317,406,cs),
(324,406,o),
(327,400,o),
(327,389,cs),
(327,348,o),
(282,242,o),
(271,220,cs),
(229,125,o),
(179,24,o),
(157,24,cs)
);
},
{
closed = 1;
nodes = (
(400,53,o),
(425,80,o),
(447,119,cs),
(465,150,o),
(480,180,o),
(491,201,cs),
(493,205,o),
(494,208,o),
(494,211,cs),
(494,217,o),
(487,227,o),
(480,227,cs),
(476,227,o),
(473,224,o),
(471,220,cs),
(461,201,o),
(433,144,o),
(408,108,cs),
(394,88,o),
(382,81,o),
(372,81,cs),
(360,81,o),
(352,94,o),
(352,109,cs),
(352,122,o),
(356,133,o),
(370,159,cs),
(409,231,o),
(431,305,o),
(431,351,cs),
(431,406,o),
(400,433,o),
(324,433,cs),
(314,433,ls),
(161,433,o),
(40,236,o),
(40,95,cs),
(40,18,o),
(87,-5,o),
(166,-7,cs),
(169,-7,o),
(173,-7,o),
(176,-7,cs),
(231,-7,o),
(284,35,o),
(326,90,c),
(332,66,o),
(350,53,o),
(370,53,cs)
);
}
);
width = 404;
}
);
note = o;
unicode = 111;
}
{
glyphname = p;
lastChange = "2022-06-01 03:29:50 +0000";
layers = (
{
background = {
shapes = (
{
closed = 1;
nodes = (
(39,-171,o),
(45,-171,o),
(52,-170,cs),
(60,-170,o),
(65,-166,o),
(65,-163,cs),
(65,-162,o),
(65,-161,o),
(64,-160,cs),
(58,-156,o),
(56,-147,o),
(56,-136,cs),
(56,-129,o),
(57,-122,o),
(58,-115,cs),
(65,-65,o),
(83,-4,o),
(107,56,c),
(122,12,o),
(148,-7,o),
(186,-7,cs),
(213,-7,o),
(235,3,o),
(255,18,cs),
(265,26,o),
(275,37,o),
(285,50,c),
(297,49,o),
(307,48,o),
(318,48,cs),
(340,48,o),
(361,52,o),
(383,69,cs),
(420,97,o),
(451,163,o),
(471,204,cs),
(476,215,o),
(467,226,o),
(458,226,cs),
(455,226,o),
(451,224,o),
(449,220,cs),
(432,185,o),
(409,136,o),
(383,107,cs),
(361,84,o),
(333,76,o),
(304,77,c),
(361,163,o),
(416,301,o),
(416,365,cs),
(416,390,o),
(409,409,o),
(391,416,cs),
(372,423,o),
(356,428,o),
(342,428,cs),
(333,428,o),
(325,426,o),
(318,420,cs),
(302,407,o),
(238,309,o),
(203,254,c),
(231,313,ls),
(236,324,o),
(239,336,o),
(239,347,cs),
(239,374,o),
(224,400,o),
(196,413,cs),
(180,420,o),
(170,422,o),
(153,422,cs),
(139,422,o),
(134,419,o),
(134,410,cs),
(134,405,l),
(138,382,o),
(72,235,o),
(50,189,cs),
(3,94,o),
(-45,-30,o),
(-45,-103,cs),
(-45,-110,o),
(-45,-116,o),
(-44,-122,cs),
(-40,-153,o),
(-10,-171,o),
(33,-171,cs)
);
},
{
closed = 1;
nodes = (
(147,48,o),
(142,52,o),
(137,60,cs),
(132,69,o),
(127,80,o),
(125,91,c),
(134,106,l),
(152,95,o),
(170,85,o),
(190,76,c),
(177,59,o),
(165,48,o),
(153,48,cs)
);
},
{
closed = 1;
nodes = (
(203,100,o),
(201,101,o),
(200,102,c),
(146,125,l),
(189,197,o),
(254,294,o),
(288,339,c),
(287,328,o),
(283,312,o),
(278,294,cs),
(272,275,o),
(241,166,o),
(205,100,c)
);
}
);
};
layerId = "C623C401-2266-4A98-B253-3D45160C29C7";
shapes = (
{
closed = 1;
nodes = (
(140,46,o),
(127,77,o),
(125,91,c),
(134,106,l),
(148,95,o),
(175,82,o),
(195,74,c),
(182,57,o),
(167,46,o),
(155,46,cs)
);
},
{
closed = 1;
nodes = (
(188,104,o),
(159,116,o),
(146,125,c),
(189,197,o),
(264,294,o),
(298,339,c),
(297,328,o),
(293,312,o),
(288,294,cs),
(282,275,o),
(246,164,o),
(209,97,c)
);
},
{
closed = 1;
nodes = (
(430,97,o),
(462,165,o),
(480,201,cs),
(482,205,o),
(483,208,o),
(483,211,cs),
(483,217,o),
(476,227,o),
(469,227,cs),
(465,227,o),
(462,224,o),
(460,220,cs),
(450,201,o),
(425,146,o),
(389,102,cs),
(375,84,o),
(353,73,o),
(331,73,cs),
(325,73,o),
(319,73,o),
(313,75,c),
(370,160,o),
(426,301,o),
(426,365,cs),
(426,390,o),
(422,407,o),
(402,416,cs),
(382,425,o),
(366,428,o),
(352,428,cs),
(343,428,o),
(335,426,o),
(328,420,cs),
(312,407,o),
(230,297,o),
(195,242,c),
(193,244,l),
(211,275,o),
(239,316,o),
(239,347,cs),
(239,387,o),
(206,422,o),
(150,422,cs),
(138,422,o),
(134,419,o),
(134,407,cs),
(134,390,o),
(133,376,o),
(103,306,cs),
(81,256,o),
(34,164,o),
(-2,72,cs),
(-26,8,o),
(-45,-57,o),
(-45,-108,cs),
(-45,-153,o),
(-13,-171,o),
(38,-171,cs),
(57,-171,o),
(65,-168,o),
(65,-163,cs),
(65,-161,o),
(63,-160,o),
(61,-157,cs),
(57,-152,o),
(56,-145,o),
(56,-136,cs),
(56,-93,o),
(86,4,o),
(107,56,c),
(122,12,o),
(154,-7,o),
(192,-7,cs),
(219,-7,o),
(243,3,o),
(263,18,cs),
(273,26,o),
(285,37,o),
(295,50,c),
(301,48,o),
(314,46,o),
(324,46,cs),
(352,46,o),
(375,55,o),
(393,69,cs)
);
}
);
width = 393;
}
);
metricRight = n;
note = p;
unicode = 112;
}
{
glyphname = r;
lastChange = "2022-04-16 05:09:24 +0000";
layers = (
{
anchors = (
{
name = bottom;
pos = (72,86);
},
{
name = top;
pos = (303,456);
}
);
background = {
anchors = (
{
name = bottom;
pos = (157,0);
},
{
name = top;
pos = (157,454);
}
);
shapes = (
{
closed = 1;
nodes = (
(253,-8,o),
(286,19,o),
(314,55,cs),
(352,104,o),
(384,168,o),
(402,204,cs),
(407,215,o),
(397,225,o),
(389,225,cs),
(385,225,o),
(382,223,o),
(380,219,cs),
(370,200,o),
(343,144,o),
(314,101,cs),
(291,68,o),
(267,40,o),
(248,40,cs),
(241,40,o),
(235,47,o),
(235,61,cs),
(235,68,o),
(236,76,o),
(239,86,cs),
(258,150,o),
(302,237,o),
(340,306,cs),
(358,338,o),
(366,363,o),
(366,382,cs),
(366,405,o),
(354,420,o),
(338,428,cs),
(325,434,o),
(311,438,o),
(298,438,cs),
(285,438,o),
(274,434,o),
(268,426,cs),
(261,415,o),
(241,410,o),
(222,410,cs),
(204,410,o),
(188,415,o),
(185,424,c),
(195,441,o),
(199,453,o),
(199,468,cs),
(199,490,o),
(184,501,o),
(169,501,cs),
(143,501,o),
(132,473,o),
(132,451,cs),
(132,433,o),
(137,419,o),
(145,409,c),
(143,404,o),
(141,394,o),
(140,392,cs),
(110,312,o),
(72,229,o),
(45,178,cs),
(42,173,o),
(41,167,o),
(41,163,cs),
(41,156,o),
(44,151,o),
(49,151,cs),
(55,151,o),
(63,158,o),
(72,174,cs),
(98,221,o),
(135,299,o),
(164,377,cs),
(165,379,o),
(168,385,o),
(170,391,c),
(182,386,o),
(196,384,o),
(210,384,cs),
(223,384,o),
(237,386,o),
(251,389,c),
(208,310,o),
(122,175,o),
(122,86,cs),
(122,37,o),
(146,-8,o),
(213,-8,cs)
);
}
);
};
layerId = "C623C401-2266-4A98-B253-3D45160C29C7";
shapes = (
{
closed = 1;
nodes = (
(253,-8,o),
(287,20,o),
(314,55,cs),
(351,102,o),
(383,165,o),
(401,201,cs),
(403,205,o),
(404,208,o),
(404,211,cs),
(404,217,o),
(397,227,o),
(390,227,cs),
(386,227,o),
(383,224,o),
(381,220,cs),
(371,201,o),
(342,144,o),
(313,101,cs),
(290,67,o),
(268,40,o),
(250,40,cs),
(240,40,o),
(235,47,o),
(235,61,cs),
(235,114,o),
(303,237,o),
(340,306,cs),
(360,343,o),
(366,363,o),
(366,382,cs),
(366,402,o),
(356,416,o),
(343,425,cs),
(329,434,o),
(312,438,o),
(298,438,cs),
(285,438,o),
(276,435,o),
(267,425,cs),
(257,414,o),
(234,409,o),
(219,409,cs),
(205,409,o),
(190,414,o),
(185,424,c),
(195,441,o),
(199,453,o),
(199,468,cs),
(199,487,o),
(187,501,o),
(168,501,cs),
(148,501,o),
(131,479,o),
(131,451,cs),
(131,433,o),
(136,420,o),
(146,407,c),
(120,335,o),
(82,248,o),
(46,179,cs),
(43,174,o),
(40,166,o),
(40,162,cs),
(40,155,o),
(45,151,o),
(50,152,cs),
(57,153,o),
(65,160,o),
(74,176,cs),
(105,234,o),
(149,334,o),
(170,392,c),
(181,386,o),
(194,383,o),
(208,383,cs),
(223,383,o),
(239,386,o),
(252,391,c),
(209,312,o),
(122,175,o),
(122,86,cs),
(122,37,o),
(146,-8,o),
(213,-8,cs)
);
}
);
width = 314;
}
);
note = r;
unicode = 114;
}
{
glyphname = u;
lastChange = "2022-06-01 03:29:50 +0000";
layers = (
{
anchors = (
{
name = bottom;
pos = (186,0);
},
{
name = ogonek;
pos = (336,10);
},
{
name = top;
pos = (338,425);
},
{
name = topright;
pos = (413,422);
}
);
background = {
anchors = (
{
name = bottom;
pos = (206,0);
},
{
name = ogonek;
pos = (367,10);
},
{
name = top;
pos = (206,454);
},
{
name = topright;
pos = (387,454);
}
);
shapes = (
{
closed = 1;
nodes = (
(343,-6,o),
(377,12,o),
(407,51,cs),
(441,96,o),
(470,156,o),
(496,206,cs),
(501,216,o),
(492,231,o),
(484,231,cs),
(481,231,o),
(478,229,o),
(476,225,cs),
(466,206,o),
(434,139,o),
(407,98,cs),
(385,66,o),
(362,40,o),
(341,40,cs),
(334,40,o),
(328,47,o),
(328,65,cs),
(328,71,o),
(328,79,o),
(330,88,cs),
(344,168,o),
(383,250,o),
(421,319,cs),
(445,363,o),
(468,400,o),
(482,402,cs),
(490,403,o),
(497,409,o),
(497,415,cs),
(497,419,o),
(493,424,o),
(480,425,cs),
(472,426,o),
(452,428,o),
(430,428,cs),
(420,428,o),
(410,428,o),
(400,426,cs),
(367,421,o),
(336,394,o),
(307,336,cs),
(286,294,o),
(269,251,o),
(247,205,cs),
(239,188,o),
(185,56,o),
(151,56,cs),
(143,56,o),
(138,60,o),
(138,73,cs),
(138,78,o),
(139,83,o),
(140,90,cs),
(158,177,o),
(239,327,o),
(277,391,cs),
(279,395,o),
(280,397,o),
(280,400,cs),
(280,408,o),
(270,410,o),
(253,414,cs),
(243,416,o),
(232,418,o),
(221,418,cs),
(186,418,o),
(152,403,o),
(125,355,cs),
(108,325,o),
(68,234,o),
(43,159,cs),
(34,132,o),
(25,99,o),
(25,69,cs),
(25,30,o),
(41,-2,o),
(95,-2,cs),
(139,-2,o),
(182,19,o),
(224,97,c),
(222,42,o),
(246,-6,o),
(305,-6,cs)
);
}
);
};
layerId = "C623C401-2266-4A98-B253-3D45160C29C7";
shapes = (
{
closed = 1;
nodes = (
(497,419,o),
(493,423,o),
(480,425,cs),
(466,427,o),
(452,428,o),
(430,428,cs),
(407,428,o),
(388,426,o),
(369,414,cs),
(315,380,o),
(273,259,o),
(247,205,cs),
(239,188,o),
(185,56,o),
(151,56,cs),
(143,56,o),
(138,60,o),
(138,73,cs),
(138,102,o),
(162,164,o),
(191,227,cs),
(220,290,o),
(255,355,o),
(277,391,cs),
(279,395,o),
(280,398,o),
(280,401,cs),
(280,407,o),
(271,410,o),
(253,414,cs),
(240,417,o),
(227,418,o),
(221,418,cs),
(185,418,o),
(151,402,o),
(124,352,cs),
(94,297,o),
(25,140,o),
(25,69,cs),
(25,30,o),
(41,-2,o),
(95,-2,cs),
(139,-2,o),
(182,19,o),
(224,97,c),
(222,42,o),
(246,-6,o),
(305,-6,cs),
(343,-6,o),
(376,10,o),
(406,48,cs),
(436,86,o),
(477,165,o),
(495,201,cs),
(497,205,o),
(498,208,o),
(498,211,cs),
(498,217,o),
(491,227,o),
(484,227,cs),
(480,227,o),
(477,224,o),
(475,220,cs),
(466,203,o),
(438,147,o),
(410,105,cs),
(384,66,o),
(360,41,o),
(343,41,cs),
(334,41,o),
(328,48,o),
(328,65,cs),
(328,132,o),
(384,252,o),
(420,319,cs),
(443,362,o),
(466,400,o),
(482,402,cs),
(491,403,o),
(497,408,o),
(497,413,cs)
);
}
);
width = 408;
}
);
metricRight = n;
note = u;
unicode = 117;
}
{
glyphname = x;
lastChange = "2022-04-08 20:31:11 +0000";
layers = (
{
background = {
shapes = (
{
closed = 1;
nodes = (
(282,-7,o),
(317,17,o),
(341,50,cs),
(375,95,o),
(403,154,o),
(427,201,cs),
(432,211,o),
(425,221,o),
(417,221,cs),
(412,221,o),
(406,218,o),
(402,209,cs),
(395,195,o),
(363,132,o),
(335,101,cs),
(321,86,o),
(310,79,o),
(301,79,cs),
(269,79,o),
(266,162,o),
(267,236,c),
(346,322,o),
(410,400,o),
(420,417,cs),
(427,429,o),
(430,442,o),
(430,452,cs),
(430,464,o),
(426,472,o),
(421,472,cs),
(420,472,o),
(418,471,o),
(416,469,cs),
(391,435,o),
(320,348,o),
(267,287,c),
(267,299,ls),
(267,338,o),
(265,377,o),
(260,409,cs),
(256,434,o),
(242,442,o),
(223,442,cs),
(189,442,o),
(140,411,o),
(123,394,c),
(122,337,o),
(81,247,o),
(48,183,cs),
(46,178,o),
(45,174,o),
(45,171,cs),
(45,164,o),
(49,160,o),
(54,160,cs),
(59,160,o),
(66,164,o),
(72,174,cs),
(103,230,o),
(123,275,o),
(139,313,c),
(139,207,ls),
(139,186,o),
(139,167,o),
(140,152,c),
(97,100,o),
(43,42,o),
(18,26,cs),
(12,22,o),
(9,19,o),
(9,16,cs),
(9,7,o),
(27,2,o),
(43,2,cs),
(48,2,o),
(54,3,o),
(58,4,cs),
(74,9,o),
(110,52,o),
(143,97,c),
(144,49,o),
(161,-7,o),
(234,-7,cs)
);
}
);
};
layerId = "C623C401-2266-4A98-B253-3D45160C29C7";
shapes = (
{
closed = 1;
nodes = (
(377,98,o),
(410,167,o),
(428,201,cs),
(430,205,o),
(431,208,o),
(431,211,cs),
(431,217,o),
(424,227,o),
(417,227,cs),
(413,227,o),
(410,224,o),
(408,220,cs),
(398,200,o),
(366,135,o),
(335,101,cs),
(320,85,o),
(311,79,o),
(301,79,cs),
(279,79,o),
(265,119,o),
(267,236,c),
(346,322,o),
(410,400,o),
(420,417,cs),
(427,429,o),
(430,442,o),
(430,452,cs),
(430,464,o),
(426,472,o),
(421,472,cs),
(418,472,o),
(416,469,o),
(413,465,cs),
(386,429,o),
(318,346,o),
(267,287,c),
(267,299,ls),
(267,338,o),
(265,377,o),
(260,409,cs),
(256,434,o),
(242,442,o),
(223,442,cs),
(189,442,o),
(140,411,o),
(123,394,c),
(122,337,o),
(82,248,o),
(46,179,cs),
(43,174,o),
(40,166,o),
(40,162,cs),
(40,155,o),
(45,151,o),
(50,152,cs),
(57,153,o),
(66,160,o),
(74,176,cs),
(103,230,o),
(122,275,o),
(138,312,c),
(140,259,o),
(137,202,o),
(138,149,c),
(95,97,o),
(43,42,o),
(18,26,cs),
(12,22,o),
(9,19,o),
(9,16,cs),
(9,7,o),
(27,2,o),
(43,2,cs),
(48,2,o),
(54,3,o),
(58,4,cs),
(74,9,o),
(110,52,o),
(143,97,c),
(147,54,o),
(161,-7,o),
(234,-7,cs),
(282,-7,o),
(316,18,o),
(341,50,cs)
);
}
);
width = 341;
}
);
note = x;
unicode = 120;
}
{
glyphname = y;
lastChange = "2022-06-01 03:29:50 +0000";
layers = (
{
anchors = (
{
name = bottom;
pos = (380,0);
},
{
name = top;
pos = (337,425);
}
);
background = {
anchors = (
{
name = bottom;
pos = (199,0);
},
{
name = top;
pos = (199,454);
}
);
shapes = (
{
closed = 1;
nodes = (
(189,-197,o),
(248,-111,o),
(289,-13,c),
(300,-8,o),
(311,-2,o),
(321,5,cs),
(346,21,o),
(372,43,o),
(397,70,cs),
(429,105,o),
(459,150,o),
(484,203,cs),
(485,206,o),
(486,208,o),
(486,211,cs),
(486,218,o),
(480,224,o),
(474,224,cs),
(469,224,o),
(465,222,o),
(462,216,cs),
(442,178,o),
(421,140,o),
(397,111,cs),
(368,74,o),
(337,46,o),
(303,25,c),
(334,109,o),
(351,190,o),
(386,268,cs),
(414,331,o),
(450,398,o),
(473,398,cs),
(480,398,o),
(487,402,o),
(487,407,cs),
(487,412,o),
(482,417,o),
(469,421,cs),
(461,424,o),
(440,428,o),
(417,428,cs),
(409,428,o),
(400,427,o),
(392,426,cs),
(359,421,o),
(326,396,o),
(296,338,cs),
(278,302,o),
(263,261,o),
(248,231,cs),
(228,192,o),
(200,136,o),
(173,102,cs),
(166,94,o),
(158,88,o),
(153,88,cs),
(148,88,o),
(146,93,o),
(146,101,cs),
(146,128,o),
(168,192,o),
(198,258,cs),
(229,327,o),
(276,404,o),
(291,408,c),
(270,412,o),
(247,416,o),
(224,416,cs),
(184,416,o),
(145,404,o),
(121,357,cs),
(105,326,o),
(76,258,o),
(53,193,cs),
(42,161,o),
(25,112,o),
(25,71,cs),
(25,36,o),
(38,6,o),
(79,-1,cs),
(125,-8,o),
(166,38,o),
(202,92,c),
(248,174,l),
(227,109,o),
(207,48,o),
(182,-20,c),
(109,-38,o),
(-19,-71,o),
(-19,-142,cs),
(-19,-182,o),
(21,-201,o),
(85,-199,cs)
);
},
{
closed = 1;
nodes = (
(30,-158,o),
(23,-148,o),
(23,-135,cs),
(23,-93,o),
(110,-66,o),
(169,-51,c),
(141,-109,o),
(94,-158,o),
(55,-158,cs)
);
}
);
};
layerId = "C623C401-2266-4A98-B253-3D45160C29C7";
shapes = (
{
closed = 1;
nodes = (
(245,165,l),
(225,104,o),
(206,45,o),
(182,-20,c),
(108,-38,o),
(-19,-72,o),
(-19,-142,cs),
(-19,-180,o),
(15,-199,o),
(77,-199,cs),
(191,-199,o),
(248,-111,o),
(289,-13,c),
(324,3,o),
(366,36,o),
(397,70,cs),
(429,105,o),
(458,150,o),
(482,197,cs),
(484,201,o),
(487,208,o),
(487,211,cs),
(487,217,o),
(480,227,o),
(473,227,cs),
(469,227,o),
(466,224,o),
(464,220,cs),
(445,182,o),
(423,145,o),
(396,112,cs),
(370,79,o),
(338,46,o),
(303,25,c),
(334,109,o),
(351,190,o),
(386,268,cs),
(404,310,o),
(422,353,o),
(442,377,cs),
(452,390,o),
(463,398,o),
(475,398,cs),
(482,398,o),
(487,401,o),
(487,407,cs),
(487,418,o),
(458,428,o),
(417,428,cs),
(362,428,o),
(331,405,o),
(296,338,cs),
(278,302,o),
(263,261,o),
(248,231,cs),
(228,192,o),
(200,136,o),
(173,102,cs),
(164,92,o),
(158,88,o),
(153,88,cs),
(149,88,o),
(146,92,o),
(146,101,cs),
(146,128,o),
(168,192,o),
(198,258,cs),
(225,318,o),
(263,382,o),
(283,402,cs),
(287,406,o),
(286,409,o),
(281,410,cs),
(263,414,o),
(243,416,o),
(224,416,cs),
(173,416,o),
(143,398,o),
(121,357,cs),
(91,300,o),
(25,141,o),
(25,71,cs),
(25,24,o),
(52,-2,o),
(89,-2,cs),
(118,-2,o),
(144,18,o),
(168,46,cs),
(199,82,o),
(224,131,o),
(244,166,c)
);
},
{
closed = 1;
nodes = (
(30,-158,o),
(23,-148,o),
(23,-135,cs),
(23,-95,o),
(105,-68,o),
(164,-52,c),
(139,-113,o),
(96,-158,o),
(55,-158,cs)
);
}
);
width = 397;
}
);
metricRight = n;
note = y;
unicode = 121;
}
{
glyphname = z;
lastChange = "2022-04-16 05:12:15 +0000";
layers = (
{
anchors = (
{
name = bottom;
pos = (177,0);
},
{
name = center;
pos = (232,213);
},
{
name = top;
pos = (323,425);
}
);
background = {
anchors = (
{
name = bottom;
pos = (177,0);
},
{
name = center;
pos = (177,227);
},
{
name = top;
pos = (177,454);
}
);
shapes = (
{
closed = 1;
nodes = (
(42,-14,o),
(47,-11,o),
(49,-2,cs),
(53,14,o),
(70,35,o),
(84,35,cs),
(97,35,o),
(116,32,o),
(138,24,cs),
(172,12,o),
(215,-4,o),
(255,-4,cs),
(281,-4,o),
(306,3,o),
(326,22,cs),
(370,63,o),
(416,150,o),
(441,203,cs),
(446,213,o),
(437,223,o),
(428,223,cs),
(425,223,o),
(421,222,o),
(419,217,cs),
(412,203,o),
(393,163,o),
(372,133,cs),
(353,105,o),
(326,95,o),
(295,95,cs),
(282,95,o),
(268,97,o),
(253,100,cs),
(215,108,o),
(178,127,o),
(179,130,c),
(330,239,o),
(428,326,o),
(428,433,cs),
(428,441,o),
(422,444,o),
(416,444,cs),
(410,444,o),
(403,441,o),
(402,435,cs),
(400,422,o),
(393,408,o),
(378,402,cs),
(369,398,o),
(358,396,o),
(342,396,cs),
(294,397,o),
(261,422,o),
(227,422,cs),
(200,422,o),
(173,406,o),
(138,350,cs),
(119,319,o),
(83,254,o),
(54,196,cs),
(50,188,o),
(48,179,o),
(48,171,cs),
(48,160,o),
(51,152,o),
(56,152,cs),
(59,152,o),
(62,154,o),
(65,160,cs),
(117,253,o),
(140,304,o),
(201,317,cs),
(206,318,o),
(217,319,o),
(231,319,cs),
(264,319,o),
(309,315,o),
(304,302,c),
(218,241,o),
(89,115,o),
(45,48,cs),
(38,37,o),
(25,21,o),
(21,3,cs),
(20,-5,o),
(29,-14,o),
(37,-14,cs)
);
}
);
};
guides = (
{
pos = (95,152);
}
);
layerId = "C623C401-2266-4A98-B253-3D45160C29C7";
shapes = (
{
closed = 1;
nodes = (
(42,-14,o),
(45,-11,o),
(49,-2,cs),
(59,18,o),
(69,35,o),
(88,35,cs),
(112,35,o),
(134,24,o),
(162,15,cs),
(190,5,o),
(222,-4,o),
(255,-4,cs),
(290,-4,o),
(311,3,o),
(334,24,cs),
(371,59,o),
(422,150,o),
(447,203,cs),
(452,213,o),
(443,223,o),
(434,223,cs),
(431,223,o),
(427,222,o),
(425,217,cs),
(418,203,o),
(398,163,o),
(377,133,cs),
(355,103,o),
(338,92,o),
(308,92,cs),
(266,92,o),
(207,108,o),
(179,130,c),
(330,239,o),
(428,328,o),
(428,434,cs),
(428,440,o),
(424,444,o),
(415,444,cs),
(407,444,o),
(403,441,o),
(402,434,cs),
(397,404,o),
(373,396,o),
(342,396,cs),
(294,397,o),
(261,422,o),
(227,422,cs),
(200,422,o),
(173,406,o),
(138,350,cs),
(119,319,o),
(84,254,o),
(55,196,cs),
(51,188,o),
(48,179,o),
(48,171,cs),
(48,159,o),
(51,152,o),
(56,152,cs),
(59,152,o),
(63,155,o),
(67,163,cs),
(78,184,o),
(89,203,o),
(98,219,cs),
(148,305,o),
(174,319,o),
(231,319,cs),
(265,319,o),
(294,313,o),
(307,304,c),
(205,228,o),
(90,116,o),
(34,33,cs),
(26,20,o),
(21,8,o),
(21,2,cs),
(21,-6,o),
(29,-14,o),
(37,-14,cs)
);
}
);
width = 359;
}
);
note = z;
unicode = 122;
}
{
color = 0;
glyphname = braceright;
lastChange = "2022-06-01 02:09:47 +0000";
layers = (
{
background = {
shapes = (
{
closed = 1;
nodes = (
(170,-52,o),
(218,-42,o),
(249,-18,cs),
(292,16,o),
(311,67,o),
(337,123,cs),
(374,200,o),
(381,226,o),
(458,226,cs),
(488,226,o),
(515,248,o),
(515,262,cs),
(515,270,o),
(508,275,o),
(492,275,cs),
(452,275,o),
(440,288,o),
(440,305,cs),
(440,327,o),
(461,356,o),
(472,371,cs),
(516,433,o),
(562,505,o),
(572,541,cs),
(575,554,o),
(577,566,o),
(577,576,cs),
(577,632,o),
(530,649,o),
(475,649,cs),
(421,649,o),
(360,633,o),
(329,620,c),
(322,618,o),
(304,602,o),
(304,593,cs),
(304,590,o),
(307,588,o),
(314,588,cs),
(318,588,o),
(324,589,o),
(332,591,cs),
(366,599,o),
(391,603,o),
(411,603,cs),
(450,603,o),
(464,589,o),
(464,567,cs),
(464,516,o),
(383,423,o),
(347,375,cs),
(337,362,o),
(331,344,o),
(331,328,cs),
(331,298,o),
(350,269,o),
(405,259,c),
(318,244,o),
(259,223,o),
(227,152,cs),
(203,100,o),
(171,-8,o),
(82,-8,cs),
(67,-8,o),
(51,-5,o),
(33,1,cs),
(26,3,o),
(18,-7,o),
(17,-13,cs),
(16,-36,o),
(67,-52,o),
(125,-52,cs)
);
}
);
};
layerId = "C623C401-2266-4A98-B253-3D45160C29C7";
shapes = (
{
closed = 1;
nodes = (
(170,-52,o),
(218,-42,o),
(249,-18,cs),
(292,16,o),
(311,67,o),
(337,123,cs),
(374,200,o),
(381,226,o),
(458,226,cs),
(488,226,o),
(515,248,o),
(515,262,cs),
(515,270,o),
(508,275,o),
(492,275,cs),
(452,275,o),
(440,288,o),
(440,305,cs),
(440,327,o),
(461,356,o),
(472,371,cs),
(516,433,o),
(562,505,o),
(572,541,cs),
(575,554,o),
(577,566,o),
(577,576,cs),
(577,632,o),
(530,649,o),
(475,649,cs),
(421,649,o),
(360,633,o),
(329,620,c),
(322,618,o),
(304,602,o),
(304,593,cs),
(304,590,o),
(307,588,o),
(314,588,cs),
(318,588,o),
(324,589,o),
(332,591,cs),
(366,599,o),
(391,603,o),
(411,603,cs),
(450,603,o),
(464,589,o),
(464,567,cs),
(464,516,o),
(383,423,o),
(347,375,cs),
(337,362,o),
(331,344,o),
(331,328,cs),
(331,298,o),
(350,269,o),
(405,259,c),
(318,244,o),
(259,223,o),
(227,152,cs),
(203,100,o),
(171,-8,o),
(82,-8,cs),
(67,-8,o),
(51,-5,o),
(33,1,cs),
(26,3,o),
(18,-7,o),
(17,-13,cs),
(16,-36,o),
(67,-52,o),
(125,-52,cs)
);
}
);
width = 554;
}
);
note = braceright;
unicode = 125;
}
{
color = 3;
glyphname = asciitilde;
lastChange = "2022-04-08 20:31:11 +0000";
layers = (
{
background = {
shapes = (
{
closed = 1;
nodes = (
(485,533,o),
(510,570,o),
(525,591,c),
(529,595,o),
(522,607,o),
(517,607,cs),
(516,607,o),
(516,607,o),
(515,606,cs),
(507,596,o),
(489,582,o),
(462,582,cs),
(418,582,o),
(387,608,o),
(343,608,cs),
(309,608,o),
(276,572,o),
(266,554,cs),
(264,549,o),
(275,539,o),
(280,539,cs),
(281,539,o),
(282,540,o),
(283,541,cs),
(291,553,o),
(304,559,o),
(333,559,cs),
(374,559,o),
(408,533,o),
(451,533,cs)
);
}
);
};
layerId = "C623C401-2266-4A98-B253-3D45160C29C7";
shapes = (
{
closed = 1;
nodes = (
(485,533,o),
(510,570,o),
(525,591,c),
(529,595,o),
(522,607,o),
(517,607,cs),
(516,607,o),
(516,607,o),
(515,606,cs),
(507,596,o),
(489,582,o),
(462,582,cs),
(418,582,o),
(387,608,o),
(343,608,cs),
(309,608,o),
(276,572,o),
(266,554,cs),
(264,549,o),
(275,539,o),
(280,539,cs),
(281,539,o),
(282,540,o),
(283,541,cs),
(291,553,o),
(304,559,o),
(333,559,cs),
(374,559,o),
(408,533,o),
(451,533,cs)
);
}
);
width = 514;
}
);
note = asciitilde;
unicode = 126;
}
{
color = 3;
glyphname = cent;
lastChange = "2022-04-08 20:31:11 +0000";
layers = (
{
background = {
shapes = (
{
closed = 1;
nodes = (
(115,-46,o),
(122,-42,o),
(125,-34,cs),
(171,75,l),
(193,75,ls),
(236,75,o),
(299,103,o),
(327,137,cs),
(337,151,o),
(343,164,o),
(343,171,cs),
(343,176,o),
(341,178,o),
(338,178,cs),
(333,178,o),
(326,174,o),
(315,166,cs),
(274,134,o),
(244,122,o),
(224,122,cs),
(198,122,o),
(187,142,o),
(187,167,cs),
(187,172,o),
(187,177,o),
(188,182,cs),
(199,249,o),
(239,340,o),
(246,354,cs),
(264,393,o),
(291,444,o),
(311,469,cs),
(320,480,o),
(330,485,o),
(338,485,cs),
(347,485,o),
(353,479,o),
(353,465,cs),
(353,462,o),
(353,458,o),
(352,453,cs),
(351,445,o),
(347,434,o),
(341,421,cs),
(340,418,o),
(339,415,o),
(339,412,cs),
(339,396,o),
(355,383,o),
(372,383,cs),
(386,383,o),
(400,391,o),
(408,410,cs),
(415,426,o),
(419,441,o),
(419,455,cs),
(419,462,o),
(417,468,o),
(415,473,cs),
(407,489,o),
(388,501,o),
(356,508,c),
(403,608,ls),
(406,615,o),
(398,619,o),
(388,619,cs),
(376,619,o),
(361,614,o),
(357,605,cs),
(316,513,l),
(304,514,o),
(291,515,o),
(278,515,cs),
(208,515,o),
(156,442,o),
(126,381,cs),
(100,329,o),
(67,250,o),
(67,186,cs),
(67,140,o),
(84,101,o),
(131,84,c),
(89,-18,ls),
(88,-21,o),
(87,-24,o),
(87,-27,cs),
(87,-38,o),
(98,-46,o),
(108,-46,cs)
);
}
);
};
layerId = "C623C401-2266-4A98-B253-3D45160C29C7";
shapes = (
{
closed = 1;
nodes = (
(115,-46,o),
(122,-42,o),
(125,-34,cs),
(171,75,l),
(193,75,ls),
(236,75,o),
(299,103,o),
(327,137,cs),
(337,151,o),
(343,164,o),
(343,171,cs),
(343,176,o),
(341,178,o),
(338,178,cs),
(333,178,o),
(326,174,o),
(315,166,cs),
(274,134,o),
(244,122,o),
(224,122,cs),
(198,122,o),
(187,142,o),
(187,167,cs),
(187,172,o),
(187,177,o),
(188,182,cs),
(199,249,o),
(239,340,o),
(246,354,cs),
(264,393,o),
(291,444,o),
(311,469,cs),
(320,480,o),
(330,485,o),
(338,485,cs),
(347,485,o),
(353,479,o),
(353,465,cs),
(353,462,o),
(353,458,o),
(352,453,cs),
(351,445,o),
(347,434,o),
(341,421,cs),
(340,418,o),
(339,415,o),
(339,412,cs),
(339,396,o),
(355,383,o),
(372,383,cs),
(386,383,o),
(400,391,o),
(408,410,cs),
(415,426,o),
(419,441,o),
(419,455,cs),
(419,462,o),
(417,468,o),
(415,473,cs),
(407,489,o),
(388,501,o),
(356,508,c),
(403,608,ls),
(406,615,o),
(398,619,o),
(388,619,cs),
(376,619,o),
(361,614,o),
(357,605,cs),
(316,513,l),
(304,514,o),
(291,515,o),
(278,515,cs),
(208,515,o),
(156,442,o),
(126,381,cs),
(100,329,o),
(67,250,o),
(67,186,cs),
(67,140,o),
(84,101,o),
(131,84,c),
(89,-18,ls),
(88,-21,o),
(87,-24,o),
(87,-27,cs),
(87,-38,o),
(98,-46,o),
(108,-46,cs)
);
}
);
width = 416;
}
);
note = cent;
unicode = 162;
}
{
color = 3;
glyphname = currency;
lastChange = "2022-04-08 20:31:11 +0000";
layers = (
{
background = {
shapes = (
{
closed = 1;
nodes = (
(70,201,o),
(91,203,o),
(97,208,cs),
(153,262,l),
(169,255,o),
(187,251,o),
(208,251,cs),
(224,252,o),
(241,255,o),
(257,261,c),
(270,236,o),
(280,216,o),
(283,209,cs),
(285,204,o),
(304,201,o),
(324,201,cs),
(347,201,o),
(370,205,o),
(366,212,cs),
(317,299,l),
(345,326,o),
(365,361,o),
(365,399,cs),
(365,417,o),
(361,434,o),
(352,450,c),
(397,492,o),
(436,528,o),
(448,537,c),
(455,544,o),
(442,546,o),
(423,546,cs),
(395,546,o),
(356,541,o),
(350,533,cs),
(345,527,o),
(329,511,o),
(310,493,c),
(292,502,o),
(273,508,o),
(252,508,cs),
(236,508,o),
(222,506,o),
(207,502,c),
(191,534,ls),
(188,539,o),
(167,542,o),
(148,542,cs),
(126,542,o),
(106,538,o),
(111,531,cs),
(147,470,l),
(113,442,o),
(89,402,o),
(89,358,cs),
(89,337,o),
(96,318,o),
(105,302,c),
(63,264,o),
(24,231,o),
(2,213,cs),
(-8,205,o),
(20,201,o),
(49,201,cs)
);
},
{
closed = 1;
nodes = (
(176,295,o),
(148,325,o),
(148,366,cs),
(148,419,o),
(196,463,o),
(244,463,cs),
(280,463,o),
(306,435,o),
(306,396,cs),
(306,392,o),
(306,388,o),
(305,383,cs),
(297,335,o),
(256,297,o),
(215,295,cs)
);
}
);
};
layerId = "C623C401-2266-4A98-B253-3D45160C29C7";
shapes = (
{
closed = 1;
nodes = (
(70,201,o),
(91,203,o),
(97,208,cs),
(153,262,l),
(169,255,o),
(187,251,o),
(208,251,cs),
(224,252,o),
(241,255,o),
(257,261,c),
(270,236,o),
(280,216,o),
(283,209,cs),
(285,204,o),
(304,201,o),
(324,201,cs),
(347,201,o),
(370,205,o),
(366,212,cs),
(317,299,l),
(345,326,o),
(365,361,o),
(365,399,cs),
(365,417,o),
(361,434,o),
(352,450,c),
(397,492,o),
(436,528,o),
(448,537,c),
(455,544,o),
(442,546,o),
(423,546,cs),
(395,546,o),
(356,541,o),
(350,533,cs),
(345,527,o),
(329,511,o),
(310,493,c),
(292,502,o),
(273,508,o),
(252,508,cs),
(236,508,o),
(222,506,o),
(207,502,c),
(191,534,ls),
(188,539,o),
(167,542,o),
(148,542,cs),
(126,542,o),
(106,538,o),
(111,531,cs),
(147,470,l),
(113,442,o),
(89,402,o),
(89,358,cs),
(89,337,o),
(96,318,o),
(105,302,c),
(63,264,o),
(24,231,o),
(2,213,cs),
(-8,205,o),
(20,201,o),
(49,201,cs)
);
},
{
closed = 1;
nodes = (
(176,295,o),
(148,325,o),
(148,366,cs),
(148,419,o),
(196,463,o),
(244,463,cs),
(280,463,o),
(306,435,o),
(306,396,cs),
(306,392,o),
(306,388,o),
(305,383,cs),
(297,335,o),
(256,297,o),
(215,295,cs)
);
}
);
width = 450;
}
);
note = currency;
unicode = 164;
}
{
color = 0;
glyphname = yen;
lastChange = "2022-06-01 02:09:47 +0000";
layers = (
{
background = {
shapes = (
{
closed = 1;
nodes = (
(112,-1,o),
(125,0,o),
(137,0,cs),
(157,0,o),
(172,-3,o),
(184,-3,cs),
(208,-3,o),
(220,7,o),
(238,62,cs),
(271,165,o),
(280,220,o),
(313,284,c),
(379,395,o),
(444,478,o),
(549,550,c),
(551,553,o),
(553,556,o),
(553,559,cs),
(553,572,o),
(529,578,o),
(504,578,cs),
(483,578,o),
(461,574,o),
(452,565,cs),
(397,517,o),
(323,401,o),
(268,308,c),
(248,385,o),
(219,464,o),
(198,532,cs),
(183,579,o),
(174,591,o),
(159,591,cs),
(128,591,o),
(77,554,o),
(77,509,cs),
(77,501,o),
(79,493,o),
(82,485,cs),
(128,373,o),
(135,348,o),
(160,234,c),
(162,177,o),
(110,60,o),
(96,-4,c)
);
},
{
closed = 1;
nodes = (
(334,101,ls),
(345,101,o),
(358,123,o),
(358,136,cs),
(358,142,o),
(355,146,o),
(350,146,cs),
(71,146,ls),
(56,146,o),
(29,101,o),
(44,101,cs)
);
},
{
closed = 1;
nodes = (
(366,218,ls),
(377,218,o),
(390,240,o),
(390,253,cs),
(390,259,o),
(387,263,o),
(382,263,cs),
(103,263,ls),
(88,263,o),
(61,218,o),
(76,218,cs)
);
}
);
};
layerId = "C623C401-2266-4A98-B253-3D45160C29C7";
shapes = (
{
closed = 1;
nodes = (
(112,-1,o),
(125,0,o),
(137,0,cs),
(157,0,o),
(172,-3,o),
(184,-3,cs),
(208,-3,o),
(220,7,o),
(238,62,cs),
(271,165,o),
(280,220,o),
(313,284,c),
(379,395,o),
(444,478,o),
(549,550,c),
(551,553,o),
(553,556,o),
(553,559,cs),
(553,572,o),
(529,578,o),
(504,578,cs),
(483,578,o),
(461,574,o),
(452,565,cs),
(397,517,o),
(323,401,o),
(268,308,c),
(248,385,o),
(219,464,o),
(198,532,cs),
(183,579,o),
(174,591,o),
(159,591,cs),
(128,591,o),
(77,554,o),
(77,509,cs),
(77,501,o),
(79,493,o),
(82,485,cs),
(128,373,o),
(135,348,o),
(160,234,c),
(162,177,o),
(110,60,o),
(96,-4,c)
);
},
{
closed = 1;
nodes = (
(334,101,ls),
(345,101,o),
(358,123,o),
(358,136,cs),
(358,142,o),
(355,146,o),
(350,146,cs),
(71,146,ls),
(56,146,o),
(29,101,o),
(44,101,cs)
);
},
{
closed = 1;
nodes = (
(366,218,ls),
(377,218,o),
(390,240,o),
(390,253,cs),
(390,259,o),
(387,263,o),
(382,263,cs),
(103,263,ls),
(88,263,o),
(61,218,o),
(76,218,cs)
);
}
);
width = 503;
}
);
note = yen;
unicode = 165;
}
{
color = 0;
glyphname = brokenbar;
lastChange = "2022-06-01 02:09:47 +0000";
layers = (
{
background = {
shapes = (
{
closed = 1;
nodes = (
(297,344,l),
(419,632,l),
(306,632,l),
(184,344,l)
);
},
{
closed = 1;
nodes = (
(152,0,l),
(267,274,l),
(154,274,l),
(39,0,l)
);
}
);
};
layerId = "C623C401-2266-4A98-B253-3D45160C29C7";
shapes = (
{
closed = 1;
nodes = (
(297,344,l),
(419,632,l),
(306,632,l),
(184,344,l)
);
},
{
closed = 1;
nodes = (
(152,0,l),
(267,274,l),
(154,274,l),
(39,0,l)
);
}
);
width = 309;
}
);
note = brokenbar;
unicode = 166;
}
{
color = 0;
glyphname = ordfeminine;
lastChange = "2022-06-01 02:09:47 +0000";
layers = (
{
background = {
shapes = (
{
closed = 1;
nodes = (
(252,335,o),
(269,345,o),
(283,364,cs),
(300,386,o),
(312,413,o),
(326,437,cs),
(329,441,o),
(324,445,o),
(320,445,cs),
(318,445,o),
(316,444,o),
(315,441,c),
(310,434,o),
(297,408,o),
(283,387,cs),
(272,371,o),
(260,357,o),
(251,357,cs),
(248,357,o),
(246,360,o),
(246,367,cs),
(246,370,o),
(246,374,o),
(247,379,cs),
(251,405,o),
(262,434,o),
(268,449,cs),
(285,488,o),
(306,532,o),
(318,537,cs),
(328,542,o),
(325,545,o),
(314,545,cs),
(304,544,o),
(293,544,o),
(282,544,cs),
(264,544,o),
(247,545,o),
(234,546,cs),
(189,548,o),
(153,526,o),
(125,475,cs),
(115,456,o),
(91,409,o),
(90,375,cs),
(90,351,o),
(102,333,o),
(141,336,cs),
(165,338,o),
(183,378,o),
(194,396,c),
(193,391,o),
(192,385,o),
(192,380,cs),
(192,355,o),
(205,335,o),
(234,335,cs)
);
},
{
closed = 1;
nodes = (
(147,360,o),
(145,363,o),
(145,368,cs),
(145,399,o),
(219,543,o),
(238,543,cs),
(240,543,o),
(242,540,o),
(242,533,cs),
(242,532,o),
(242,531,o),
(241,530,c),
(195,418,ls),
(182,390,o),
(160,360,o),
(151,360,cs)
);
}
);
};
layerId = "C623C401-2266-4A98-B253-3D45160C29C7";
shapes = (
{
closed = 1;
nodes = (
(252,335,o),
(269,345,o),
(283,364,cs),
(300,386,o),
(312,413,o),
(326,437,cs),
(329,441,o),
(324,445,o),
(320,445,cs),
(318,445,o),
(316,444,o),
(315,441,c),
(310,434,o),
(297,408,o),
(283,387,cs),
(272,371,o),
(260,357,o),
(251,357,cs),
(248,357,o),
(246,360,o),
(246,367,cs),
(246,370,o),
(246,374,o),
(247,379,cs),
(251,405,o),
(262,434,o),
(268,449,cs),
(285,488,o),
(306,532,o),
(318,537,cs),
(328,542,o),
(325,545,o),
(314,545,cs),
(304,544,o),
(293,544,o),
(282,544,cs),
(261,544,o),
(242,546,o),
(228,546,cs),
(186,546,o),
(152,524,o),
(125,475,cs),
(115,456,o),
(91,409,o),
(90,375,cs),
(90,351,o),
(102,333,o),
(141,336,cs),
(165,338,o),
(183,378,o),
(194,396,c),
(193,391,o),
(192,385,o),
(192,380,cs),
(192,355,o),
(205,335,o),
(234,335,cs)
);
},
{
closed = 1;
nodes = (
(147,360,o),
(145,363,o),
(145,368,cs),
(145,399,o),
(219,543,o),
(238,543,cs),
(240,543,o),
(242,540,o),
(242,533,cs),
(242,532,o),
(242,531,o),
(241,530,c),
(195,418,ls),
(182,390,o),
(160,360,o),
(151,360,cs)
);
}
);
width = 352;
}
);
note = ordfeminine;
unicode = 170;
}
{
color = 0;
glyphname = guillemotleft;
lastChange = "2022-06-01 02:09:47 +0000";
layers = (
{
background = {
shapes = (
{
closed = 1;
nodes = (
(539,148,o),
(548,204,o),
(548,231,cs),
(548,238,o),
(547,243,o),
(546,244,cs),
(424,336,l),
(577,425,ls),
(583,429,o),
(593,485,o),
(593,508,cs),
(593,515,o),
(592,519,o),
(590,517,c),
(375,368,l),
(368,360,o),
(358,338,o),
(358,321,cs),
(358,315,o),
(359,310,o),
(362,306,c),
(532,154,ls)
);
},
{
closed = 1;
nodes = (
(345,148,o),
(354,204,o),
(354,231,cs),
(354,238,o),
(353,243,o),
(352,244,cs),
(230,336,l),
(383,425,ls),
(389,429,o),
(399,485,o),
(399,508,cs),
(399,515,o),
(398,519,o),
(396,517,c),
(180,368,l),
(173,360,o),
(164,337,o),
(164,320,cs),
(164,315,o),
(165,310,o),
(167,306,c),
(338,154,ls)
);
}
);
};
guides = (
{
pos = (652,444);
}
);
layerId = "C623C401-2266-4A98-B253-3D45160C29C7";
shapes = (
{
closed = 1;
nodes = (
(539,48,o),
(548,104,o),
(548,131,cs),
(548,138,o),
(547,143,o),
(546,144,cs),
(424,236,l),
(577,325,ls),
(583,329,o),
(593,385,o),
(593,408,cs),
(593,414,o),
(592,418,o),
(591,418,c),
(590,417,l),
(375,268,l),
(368,260,o),
(358,238,o),
(358,221,cs),
(358,215,o),
(359,210,o),
(362,206,c),
(532,54,ls)
);
},
{
closed = 1;
nodes = (
(345,48,o),
(354,104,o),
(354,131,cs),
(354,138,o),
(353,143,o),
(352,144,cs),
(230,236,l),
(383,325,ls),
(389,329,o),
(399,385,o),
(399,408,cs),
(399,414,o),
(398,418,o),
(397,418,c),
(396,417,l),
(180,268,l),
(173,260,o),
(164,237,o),
(164,220,cs),
(164,215,o),
(165,210,o),
(167,206,c),
(338,54,ls)
);
}
);
width = 628;
}
);
note = guillemotleft;
unicode = 171;
}
{
color = 0;
glyphname = logicalnot;
lastChange = "2022-06-01 02:09:47 +0000";
layers = (
{
background = {
shapes = (
{
closed = 1;
nodes = (
(604,12,o),
(623,18,o),
(626,24,c),
(659,131,o),
(704,214,o),
(727,321,cs),
(730,332,o),
(731,351,o),
(731,369,cs),
(731,392,o),
(728,413,o),
(721,413,cs),
(123,412,ls),
(109,412,o),
(80,358,o),
(80,334,cs),
(80,327,o),
(82,323,o),
(88,323,cs),
(646,323,l),
(646,323,o),
(596,119,o),
(577,18,c),
(577,13,o),
(583,12,o),
(591,12,cs)
);
}
);
};
layerId = "C623C401-2266-4A98-B253-3D45160C29C7";
shapes = (
{
closed = 1;
nodes = (
(604,12,o),
(623,18,o),
(626,24,c),
(659,131,o),
(704,214,o),
(727,321,cs),
(730,332,o),
(731,351,o),
(731,369,cs),
(731,392,o),
(728,413,o),
(721,413,cs),
(123,412,ls),
(109,412,o),
(80,358,o),
(80,334,cs),
(80,327,o),
(82,323,o),
(88,323,cs),
(646,323,l),
(646,323,o),
(596,119,o),
(577,18,c),
(577,13,o),
(583,12,o),
(591,12,cs)
);
}
);
width = 811;
}
);
note = logicalnot;
unicode = 172;
}
{
color = 10;
glyphname = softhyphen;
lastChange = "2022-04-08 20:31:11 +0000";
layers = (
{
layerId = "C623C401-2266-4A98-B253-3D45160C29C7";
shapes = (
{
closed = 1;
nodes = (
(340,240,ls),
(346,240,o),
(371,275,o),
(371,291,cs),
(371,297,o),
(368,300,o),
(362,300,cs),
(190,300,ls),
(177,300,o),
(139,240,o),
(156,240,cs)
);
}
);
width = 369;
}
);
unicode = 173;
}
{
color = 0;
glyphname = registered;
lastChange = "2022-06-01 02:09:47 +0000";
layers = (
{
background = {
shapes = (
{
closed = 1;
nodes = (
(330,340,o),
(407,417,o),
(407,513,cs),
(407,608,o),
(330,686,o),
(231,686,cs),
(132,686,o),
(52,608,o),
(52,513,cs),
(52,417,o),
(132,340,o),
(230,340,cs)
);
},
{
closed = 1;
nodes = (
(158,383,o),
(105,441,o),
(105,512,cs),
(105,584,o),
(158,643,o),
(229,643,cs),
(302,643,o),
(355,584,o),
(355,513,cs),
(355,441,o),
(302,383,o),
(230,383,cs)
);
},
{
closed = 1;
nodes = (
(208,432,l),
(208,489,l),
(236,489,ls),
(245,489,o),
(257,438,o),
(260,432,c),
(317,432,l),
(305,451,o),
(291,503,o),
(271,511,c),
(289,517,o),
(306,528,o),
(306,549,cs),
(306,584,o),
(283,592,o),
(240,592,cs),
(161,592,l),
(161,432,l)
);
},
{
closed = 1;
nodes = (
(210,561,l),
(226,561,o),
(254,566,o),
(254,541,cs),
(254,519,o),
(224,521,o),
(210,521,c)
);
}
);
};
layerId = "C623C401-2266-4A98-B253-3D45160C29C7";
shapes = (
{
closed = 1;
nodes = (
(330,340,o),
(407,417,o),
(407,513,cs),
(407,608,o),
(330,686,o),
(231,686,cs),
(132,686,o),
(52,608,o),
(52,513,cs),
(52,417,o),
(132,340,o),
(230,340,cs)
);
},
{
closed = 1;
nodes = (
(158,383,o),
(105,441,o),
(105,512,cs),
(105,584,o),
(158,643,o),
(229,643,cs),
(302,643,o),
(355,584,o),
(355,513,cs),
(355,441,o),
(302,383,o),
(230,383,cs)
);
},
{
closed = 1;
nodes = (
(208,432,l),
(208,489,l),
(236,489,ls),
(245,489,o),
(257,438,o),
(260,432,c),
(317,432,l),
(305,451,o),
(291,503,o),
(271,511,c),
(289,517,o),
(306,528,o),
(306,549,cs),
(306,584,o),
(283,592,o),
(240,592,cs),
(161,592,l),
(161,432,l)
);
},
{
closed = 1;
nodes = (
(210,561,l),
(226,561,o),
(254,566,o),
(254,541,cs),
(254,519,o),
(224,521,o),
(210,521,c)
);
}
);
width = 459;
}
);
note = registered;
unicode = 174;
}
{
color = 3;
glyphname = degree;
lastChange = "2022-04-08 20:31:11 +0000";
layers = (
{
background = {
shapes = (
{
closed = 1;
nodes = (
(263,371,o),
(307,414,o),
(307,467,cs),
(307,521,o),
(263,564,o),
(210,564,cs),
(157,564,o),
(113,521,o),
(113,467,cs),
(113,414,o),
(157,371,o),
(210,371,cs)
);
},
{
closed = 1;
nodes = (
(185,415,o),
(164,439,o),
(164,468,cs),
(164,497,o),
(185,520,o),
(210,520,cs),
(235,520,o),
(256,497,o),
(256,468,cs),
(256,439,o),
(235,415,o),
(210,415,cs)
);
}
);
};
layerId = "C623C401-2266-4A98-B253-3D45160C29C7";
shapes = (
{
closed = 1;
nodes = (
(263,371,o),
(307,414,o),
(307,467,cs),
(307,521,o),
(263,564,o),
(210,564,cs),
(157,564,o),
(113,521,o),
(113,467,cs),
(113,414,o),
(157,371,o),
(210,371,cs)
);
},
{
closed = 1;
nodes = (
(185,415,o),
(164,439,o),
(164,468,cs),
(164,497,o),
(185,520,o),
(210,520,cs),
(235,520,o),
(256,497,o),
(256,468,cs),
(256,439,o),
(235,415,o),
(210,415,cs)
);
}
);
width = 349;
}
);
note = degree;
unicode = 176;
}
{
color = 0;
glyphname = plusminus;
lastChange = "2022-06-01 02:09:47 +0000";
layers = (
{
background = {
shapes = (
{
closed = 1;
nodes = (
(332,-60,ls),
(339,-60,o),
(369,-25,o),
(369,-8,cs),
(369,-3,o),
(366,0,o),
(359,0,cs),
(84,0,ls),
(69,0,o),
(25,-60,o),
(45,-60,cs)
);
},
{
ref = plus;
}
);
};
layerId = "C623C401-2266-4A98-B253-3D45160C29C7";
shapes = (
{
closed = 1;
nodes = (
(332,-60,ls),
(339,-60,o),
(369,-25,o),
(369,-8,cs),
(369,-3,o),
(366,0,o),
(359,0,cs),
(84,0,ls),
(69,0,o),
(25,-60,o),
(45,-60,cs)
);
},
{
ref = plus;
}
);
width = 469;
}
);
note = plusminus;
unicode = 177;
}
{
color = 0;
glyphname = twosuperior;
lastChange = "2022-06-01 02:09:47 +0000";
layers = (
{
background = {
shapes = (
{
closed = 1;
nodes = (
(246,321,o),
(250,322,o),
(251,327,c),
(254,334,o),
(255,341,o),
(255,347,cs),
(255,372,o),
(232,383,o),
(201,383,cs),
(179,383,o),
(140,377,o),
(118,368,c),
(171,402,o),
(317,495,o),
(317,584,cs),
(317,611,o),
(301,632,o),
(258,632,cs),
(217,632,o),
(184,610,o),
(156,581,cs),
(144,569,o),
(140,558,o),
(140,549,cs),
(140,539,o),
(145,533,o),
(153,533,cs),
(169,533,o),
(169,544,o),
(186,570,cs),
(195,585,o),
(217,599,o),
(231,599,cs),
(240,599,o),
(247,594,o),
(247,580,cs),
(247,511,o),
(149,422,o),
(89,379,cs),
(78,370,o),
(68,350,o),
(68,338,cs),
(68,332,o),
(71,328,o),
(76,328,cs),
(197,328,ls),
(223,328,o),
(241,328,o),
(244,324,cs)
);
}
);
};
layerId = "C623C401-2266-4A98-B253-3D45160C29C7";
shapes = (
{
closed = 1;
nodes = (
(246,321,o),
(250,322,o),
(251,327,c),
(254,334,o),
(255,341,o),
(255,347,cs),
(255,372,o),
(232,383,o),
(201,383,cs),
(179,383,o),
(140,377,o),
(118,368,c),
(171,402,o),
(317,495,o),
(317,584,cs),
(317,611,o),
(301,632,o),
(258,632,cs),
(217,632,o),
(184,610,o),
(156,581,cs),
(144,569,o),
(140,558,o),
(140,549,cs),
(140,539,o),
(145,533,o),
(153,533,cs),
(169,533,o),
(169,544,o),
(186,570,cs),
(195,585,o),
(217,599,o),
(231,599,cs),
(240,599,o),
(247,594,o),
(247,580,cs),
(247,511,o),
(149,422,o),
(89,379,cs),
(78,370,o),
(68,350,o),
(68,338,cs),
(68,332,o),
(71,328,o),
(76,328,cs),
(197,328,ls),
(223,328,o),
(241,328,o),
(244,324,cs)
);
}
);
width = 405;
}
);
note = twosuperior;
unicode = 178;
}
{
color = 3;
glyphname = threesuperior;
lastChange = "2022-04-08 20:31:11 +0000";
layers = (
{
background = {
shapes = (
{
closed = 1;
nodes = (
(167,328,o),
(186,331,o),
(200,337,cs),
(244,356,o),
(282,415,o),
(282,455,cs),
(282,480,o),
(268,498,o),
(232,495,c),
(250,506,o),
(278,524,o),
(295,546,cs),
(306,560,o),
(312,573,o),
(312,585,cs),
(312,609,o),
(290,626,o),
(250,629,cs),
(214,630,o),
(179,617,o),
(144,579,cs),
(136,570,o),
(133,561,o),
(133,553,cs),
(133,543,o),
(139,536,o),
(146,536,cs),
(150,536,o),
(155,539,o),
(160,545,cs),
(168,557,o),
(204,602,o),
(238,602,cs),
(251,602,o),
(256,595,o),
(256,588,cs),
(256,577,o),
(246,562,o),
(239,556,c),
(225,539,o),
(191,506,o),
(166,504,cs),
(154,503,o),
(148,496,o),
(148,489,cs),
(148,484,o),
(152,479,o),
(160,479,cs),
(162,479,o),
(165,479,o),
(168,480,cs),
(174,482,o),
(188,488,o),
(200,488,cs),
(210,488,o),
(219,483,o),
(219,467,cs),
(219,434,o),
(167,356,o),
(129,356,cs),
(111,356,o),
(105,368,o),
(105,381,cs),
(105,397,o),
(114,417,o),
(120,425,cs),
(123,430,o),
(118,433,o),
(110,433,cs),
(108,433,o),
(106,433,o),
(103,432,cs),
(84,426,o),
(71,408,o),
(71,380,cs),
(71,342,o),
(109,328,o),
(148,328,cs)
);
}
);
};
layerId = "C623C401-2266-4A98-B253-3D45160C29C7";
shapes = (
{
closed = 1;
nodes = (
(167,328,o),
(186,331,o),
(200,337,cs),
(244,356,o),
(282,415,o),
(282,455,cs),
(282,480,o),
(268,498,o),
(232,495,c),
(250,506,o),
(278,524,o),
(295,546,cs),
(306,560,o),
(312,573,o),
(312,585,cs),
(312,609,o),
(290,626,o),
(250,629,cs),
(214,630,o),
(179,617,o),
(144,579,cs),
(136,570,o),
(133,561,o),
(133,553,cs),
(133,543,o),
(139,536,o),
(146,536,cs),
(150,536,o),
(155,539,o),
(160,545,cs),
(168,557,o),
(204,602,o),
(238,602,cs),
(251,602,o),
(256,595,o),
(256,588,cs),
(256,577,o),
(246,562,o),
(239,556,c),
(225,539,o),
(191,506,o),
(166,504,cs),
(154,503,o),
(148,496,o),
(148,489,cs),
(148,484,o),
(152,479,o),
(160,479,cs),
(162,479,o),
(165,479,o),
(168,480,cs),
(174,482,o),
(188,488,o),
(200,488,cs),
(210,488,o),
(219,483,o),
(219,467,cs),
(219,434,o),
(167,356,o),
(129,356,cs),
(111,356,o),
(105,368,o),
(105,381,cs),
(105,397,o),
(114,417,o),
(120,425,cs),
(123,430,o),
(118,433,o),
(110,433,cs),
(108,433,o),
(106,433,o),
(103,432,cs),
(84,426,o),
(71,408,o),
(71,380,cs),
(71,342,o),
(109,328,o),
(148,328,cs)
);
}
);
width = 408;
}
);
note = threesuperior;
unicode = 179;
}
{
color = 0;
glyphname = mu;
lastChange = "2022-06-01 02:09:47 +0000";
layers = (
{
background = {
shapes = (
{
closed = 1;
nodes = (
(92,-175,o),
(95,-174,o),
(95,-172,cs),
(95,-171,o),
(94,-170,o),
(93,-168,c),
(85,-159,o),
(81,-146,o),
(81,-130,cs),
(81,-104,o),
(91,-56,o),
(107,0,c),
(152,12,o),
(167,38,o),
(202,92,cs),
(231,142,l),
(226,119,o),
(223,96,o),
(223,76,cs),
(223,40,o),
(234,11,o),
(267,0,cs),
(280,-4,o),
(309,-4,o),
(320,-9,cs),
(327,-13,o),
(333,-7,o),
(333,-2,cs),
(333,-1,o),
(332,1,o),
(331,2,cs),
(323,9,o),
(319,22,o),
(319,40,cs),
(319,139,o),
(433,375,o),
(482,409,cs),
(486,412,o),
(488,414,o),
(488,416,cs),
(488,424,o),
(468,430,o),
(438,430,cs),
(384,430,o),
(350,426,o),
(321,379,cs),
(291,329,o),
(271,273,o),
(245,221,cs),
(225,182,o),
(189,126,o),
(160,91,cs),
(153,82,o),
(144,75,o),
(139,75,cs),
(136,75,o),
(134,77,o),
(134,82,cs),
(134,85,l),
(149,127,ls),
(183,208,o),
(261,367,o),
(284,408,c),
(263,412,o),
(241,416,o),
(219,416,cs),
(182,416,o),
(145,404,o),
(121,357,cs),
(97,310,o),
(36,170,o),
(22,94,c),
(-1,8,o),
(-15,-68,o),
(-15,-96,cs),
(-15,-152,o),
(18,-175,o),
(85,-175,cs)
);
}
);
};
layerId = "C623C401-2266-4A98-B253-3D45160C29C7";
shapes = (
{
closed = 1;
nodes = (
(92,-175,o),
(95,-174,o),
(95,-172,cs),
(95,-171,o),
(94,-170,o),
(93,-168,c),
(85,-159,o),
(81,-146,o),
(81,-130,cs),
(81,-104,o),
(91,-56,o),
(107,0,c),
(152,12,o),
(167,38,o),
(202,92,cs),
(231,142,l),
(226,119,o),
(223,96,o),
(223,76,cs),
(223,40,o),
(234,11,o),
(267,0,cs),
(280,-4,o),
(309,-4,o),
(320,-9,cs),
(327,-13,o),
(333,-7,o),
(333,-2,cs),
(333,-1,o),
(332,1,o),
(331,2,cs),
(323,9,o),
(319,22,o),
(319,40,cs),
(319,139,o),
(433,375,o),
(482,409,cs),
(486,412,o),
(488,414,o),
(488,416,cs),
(488,424,o),
(468,430,o),
(438,430,cs),
(384,430,o),
(350,426,o),
(321,379,cs),
(291,329,o),
(271,273,o),
(245,221,cs),
(225,182,o),
(189,126,o),
(160,91,cs),
(153,82,o),
(144,75,o),
(139,75,cs),
(136,75,o),
(134,77,o),
(134,82,cs),
(134,85,l),
(149,127,ls),
(183,208,o),
(261,367,o),
(284,408,c),
(263,412,o),
(241,416,o),
(219,416,cs),
(182,416,o),
(145,404,o),
(121,357,cs),
(97,310,o),
(36,170,o),
(22,94,c),
(-1,8,o),
(-15,-68,o),
(-15,-96,cs),
(-15,-152,o),
(18,-175,o),
(85,-175,cs)
);
}
);
width = 393;
}
);
note = mu;
unicode = 181;
}
{
color = 0;
glyphname = paragraph;
lastChange = "2022-06-01 02:09:47 +0000";
layers = (
{
background = {
shapes = (
{
closed = 1;
nodes = (
(45,-147,o),
(171,-112,o),
(171,-94,cs),
(171,-92,o),
(170,-89,o),
(170,-84,cs),
(170,10,o),
(421,579,o),
(477,678,c),
(533,678,l),
(522,655,o),
(440,465,o),
(363,279,cs),
(313,158,o),
(266,40,o),
(241,-29,cs),
(235,-47,o),
(231,-63,o),
(231,-74,cs),
(231,-86,o),
(235,-93,o),
(245,-93,cs),
(264,-93,o),
(334,-56,o),
(334,-36,cs),
(334,-31,o),
(332,-26,o),
(332,-19,cs),
(332,27,o),
(367,140,o),
(411,259,cs),
(470,422,o),
(548,599,o),
(579,643,cs),
(582,647,o),
(588,660,o),
(588,672,cs),
(588,685,o),
(581,698,o),
(553,698,cs),
(309,698,ls),
(142,698,o),
(38,570,o),
(38,466,cs),
(38,397,o),
(85,338,o),
(193,338,c),
(143,217,o),
(34,-20,o),
(9,-89,cs),
(3,-107,o),
(-1,-123,o),
(-1,-134,cs),
(-1,-148,o),
(5,-155,o),
(19,-152,cs)
);
},
{
closed = 1;
nodes = (
(167,401,o),
(142,450,o),
(142,500,cs),
(142,580,o),
(205,666,o),
(357,666,cs),
(364,666,l),
(334,643,o),
(250,467,o),
(233,429,cs),
(211,379,l)
);
}
);
};
layerId = "C623C401-2266-4A98-B253-3D45160C29C7";
shapes = (
{
closed = 1;
nodes = (
(15,-153,o),
(17,-152,o),
(19,-152,cs),
(45,-147,o),
(171,-112,o),
(171,-94,cs),
(171,-92,o),
(170,-89,o),
(170,-84,cs),
(170,10,o),
(421,579,o),
(477,678,c),
(533,678,l),
(522,655,o),
(440,465,o),
(363,279,cs),
(313,158,o),
(266,40,o),
(241,-29,cs),
(235,-47,o),
(231,-63,o),
(231,-74,cs),
(231,-86,o),
(235,-93,o),
(245,-93,cs),
(264,-93,o),
(334,-56,o),
(334,-36,cs),
(334,-31,o),
(332,-26,o),
(332,-19,cs),
(332,27,o),
(367,140,o),
(411,259,cs),
(470,422,o),
(548,599,o),
(579,643,cs),
(582,647,o),
(588,660,o),
(588,672,cs),
(588,685,o),
(581,698,o),
(553,698,cs),
(309,698,ls),
(142,698,o),
(38,570,o),
(38,466,cs),
(38,397,o),
(85,338,o),
(193,338,c),
(143,217,o),
(34,-20,o),
(9,-89,cs),
(3,-107,o),
(-1,-123,o),
(-1,-134,cs),
(-1,-146,o),
(3,-153,o),
(13,-153,cs)
);
},
{
closed = 1;
nodes = (
(167,401,o),
(142,450,o),
(142,500,cs),
(142,580,o),
(205,666,o),
(357,666,cs),
(364,666,l),
(334,643,o),
(250,467,o),
(233,429,cs),
(211,379,l)
);
}
);
width = 525;
}
);
note = paragraph;
unicode = 182;
}
{
color = 3;
glyphname = onesuperior;
lastChange = "2022-04-08 20:31:11 +0000";
layers = (
{
background = {
shapes = (
{
closed = 1;
nodes = (
(160,399,o),
(257,592,o),
(294,616,cs),
(298,619,o),
(301,622,o),
(301,625,cs),
(301,627,o),
(299,628,o),
(293,629,cs),
(281,631,o),
(270,632,o),
(260,632,cs),
(232,632,o),
(214,623,o),
(195,604,cs),
(172,579,o),
(140,549,o),
(83,500,cs),
(80,497,o),
(78,493,o),
(78,489,cs),
(78,483,o),
(81,478,o),
(85,478,cs),
(86,478,o),
(88,479,o),
(89,480,cs),
(116,503,o),
(136,521,o),
(157,537,c),
(125,475,o),
(92,395,o),
(85,362,cs),
(84,357,o),
(84,353,o),
(84,350,cs),
(84,318,o),
(113,319,o),
(143,319,c)
);
}
);
};
layerId = "C623C401-2266-4A98-B253-3D45160C29C7";
shapes = (
{
closed = 1;
nodes = (
(160,399,o),
(257,592,o),
(294,616,cs),
(298,619,o),
(301,622,o),
(301,625,cs),
(301,627,o),
(299,628,o),
(293,629,cs),
(281,631,o),
(270,632,o),
(260,632,cs),
(232,632,o),
(214,623,o),
(195,604,cs),
(172,579,o),
(140,549,o),
(83,500,cs),
(80,497,o),
(78,493,o),
(78,489,cs),
(78,483,o),
(81,478,o),
(85,478,cs),
(86,478,o),
(88,479,o),
(89,480,cs),
(116,503,o),
(136,521,o),
(157,537,c),
(125,475,o),
(92,395,o),
(85,362,cs),
(84,357,o),
(84,353,o),
(84,350,cs),
(84,318,o),
(113,319,o),
(143,319,c)
);
}
);
width = 307;
}
);
note = onesuperior;
unicode = 185;
}
{
color = 0;
glyphname = ordmasculine;
lastChange = "2022-06-01 02:09:47 +0000";
layers = (
{
background = {
shapes = (
{
closed = 1;
nodes = (
(174,332,o),
(199,351,o),
(220,378,c),
(223,368,o),
(231,361,o),
(241,361,cs),
(245,361,o),
(251,362,o),
(256,367,c),
(273,380,o),
(288,412,o),
(297,431,cs),
(300,436,o),
(296,439,o),
(292,439,cs),
(290,439,o),
(287,438,o),
(286,436,cs),
(278,420,o),
(268,397,o),
(256,383,cs),
(251,377,o),
(246,372,o),
(241,372,cs),
(233,372,o),
(231,379,o),
(231,387,cs),
(231,390,o),
(231,393,o),
(232,396,c),
(254,433,o),
(268,476,o),
(268,501,cs),
(268,534,o),
(241,539,o),
(213,539,cs),
(142,539,o),
(85,445,o),
(85,380,cs),
(85,342,o),
(109,332,o),
(149,332,cs)
);
},
{
closed = 1;
nodes = (
(124,343,o),
(158,425,o),
(167,443,cs),
(185,483,o),
(209,529,o),
(218,528,cs),
(234,527,o),
(196,448,o),
(190,436,cs),
(172,394,o),
(147,343,o),
(139,343,cs)
);
}
);
};
layerId = "C623C401-2266-4A98-B253-3D45160C29C7";
shapes = (
{
closed = 1;
nodes = (
(174,332,o),
(199,351,o),
(220,378,c),
(223,368,o),
(231,361,o),
(241,361,cs),
(245,361,o),
(251,362,o),
(256,367,c),
(273,380,o),
(288,412,o),
(297,431,cs),
(300,436,o),
(296,439,o),
(292,439,cs),
(290,439,o),
(287,438,o),
(286,436,cs),
(278,420,o),
(268,397,o),
(256,383,cs),
(251,377,o),
(246,372,o),
(241,372,cs),
(233,372,o),
(231,379,o),
(231,387,cs),
(231,390,o),
(231,393,o),
(232,396,c),
(254,433,o),
(268,476,o),
(268,501,cs),
(268,534,o),
(241,539,o),
(213,539,cs),
(142,539,o),
(85,445,o),
(85,380,cs),
(85,342,o),
(109,332,o),
(149,332,cs)
);
},
{
closed = 1;
nodes = (
(135,368,o),
(160,428,o),
(167,443,cs),
(185,483,o),
(209,529,o),
(218,528,cs),
(234,527,o),
(196,448,o),
(190,436,cs),
(168,386,o),
(135,323,o),
(135,349,cs)
);
}
);
width = 352;
}
);
note = ordmasculine;
unicode = 186;
}
{
color = 3;
glyphname = guillemotright;
lastChange = "2022-04-08 20:31:11 +0000";
layers = (
{
background = {
shapes = (
{
closed = 1;
nodes = (
(577,304,l),
(584,312,o),
(594,334,o),
(594,351,cs),
(594,357,o),
(593,362,o),
(590,366,c),
(420,517,ls),
(413,523,o),
(404,467,o),
(404,441,cs),
(404,434,o),
(405,429,o),
(406,428,cs),
(527,335,l),
(374,247,ls),
(368,243,o),
(358,189,o),
(358,165,cs),
(358,157,o),
(359,152,o),
(362,154,cs)
);
},
{
closed = 1;
nodes = (
(383,304,l),
(390,312,o),
(399,335,o),
(399,352,cs),
(399,357,o),
(398,362,o),
(396,366,c),
(226,517,ls),
(219,523,o),
(209,466,o),
(209,440,cs),
(209,433,o),
(210,429,o),
(211,428,cs),
(333,335,l),
(180,247,ls),
(174,243,o),
(164,187,o),
(164,164,cs),
(164,156,o),
(165,152,o),
(167,154,c)
);
}
);
};
layerId = "C623C401-2266-4A98-B253-3D45160C29C7";
shapes = (
{
closed = 1;
nodes = (
(362,54,l),
(577,204,l),
(584,212,o),
(594,234,o),
(594,251,cs),
(594,257,o),
(593,262,o),
(590,266,c),
(420,417,ls),
(413,423,o),
(404,367,o),
(404,341,cs),
(404,334,o),
(405,329,o),
(406,328,cs),
(527,235,l),
(374,147,ls),
(368,143,o),
(358,89,o),
(358,65,cs),
(358,58,o),
(359,54,o),
(361,54,cs)
);
},
{
closed = 1;
nodes = (
(167,54,l),
(383,204,l),
(390,212,o),
(399,235,o),
(399,252,cs),
(399,257,o),
(398,262,o),
(396,266,c),
(226,417,ls),
(219,423,o),
(209,366,o),
(209,340,cs),
(209,333,o),
(210,329,o),
(211,328,cs),
(333,235,l),
(180,147,ls),
(174,143,o),
(164,87,o),
(164,64,cs),
(164,57,o),
(165,53,o),
(166,53,c)
);
}
);
width = 626;
}
);
note = guillemotright;
unicode = 187;
}
{
color = 3;
glyphname = onequarter;
lastChange = "2022-04-08 20:31:11 +0000";
layers = (
{
background = {
shapes = (
{
closed = 1;
nodes = (
(105,-49,l),
(621,692,l),
(553,692,l),
(38,-49,l)
);
},
{
closed = 1;
nodes = (
(160,399,o),
(257,592,o),
(294,616,cs),
(298,619,o),
(301,622,o),
(301,625,cs),
(301,627,o),
(299,628,o),
(293,629,cs),
(281,631,o),
(270,632,o),
(260,632,cs),
(232,632,o),
(214,623,o),
(195,604,cs),
(172,579,o),
(140,549,o),
(83,500,cs),
(80,497,o),
(78,493,o),
(78,489,cs),
(78,483,o),
(81,478,o),
(85,478,cs),
(86,478,o),
(88,479,o),
(89,480,cs),
(116,503,o),
(136,521,o),
(157,537,c),
(125,475,o),
(92,395,o),
(85,362,cs),
(84,357,o),
(84,353,o),
(84,350,cs),
(84,318,o),
(113,319,o),
(143,319,c)
);
},
{
closed = 1;
nodes = (
(441,149,o),
(510,207,o),
(551,244,c),
(534,216,o),
(511,172,o),
(492,133,c),
(429,133,l)
);
},
{
closed = 1;
nodes = (
(520,27,o),
(531,59,o),
(547,96,c),
(568,98,o),
(586,100,o),
(594,102,cs),
(602,103,o),
(615,118,o),
(615,127,cs),
(615,131,o),
(612,133,o),
(606,133,cs),
(563,133,l),
(599,209,o),
(644,288,o),
(666,303,cs),
(670,306,o),
(674,308,o),
(674,311,cs),
(674,313,o),
(671,314,o),
(666,315,cs),
(655,317,o),
(644,318,o),
(635,318,cs),
(602,318,o),
(579,307,o),
(559,287,cs),
(548,276,o),
(425,164,o),
(385,132,cs),
(382,130,o),
(381,126,o),
(379,122,cs),
(376,117,o),
(374,112,o),
(374,106,cs),
(374,100,o),
(377,95,o),
(383,91,cs),
(386,89,o),
(396,87,o),
(421,87,cs),
(434,87,o),
(451,88,o),
(472,89,c),
(464,71,o),
(458,55,o),
(457,46,cs),
(456,41,o),
(455,37,o),
(455,33,cs),
(455,2,o),
(485,3,o),
(515,3,c)
);
}
);
};
layerId = "C623C401-2266-4A98-B253-3D45160C29C7";
shapes = (
{
closed = 1;
nodes = (
(105,-49,l),
(621,692,l),
(553,692,l),
(38,-49,l)
);
},
{
closed = 1;
nodes = (
(160,399,o),
(257,592,o),
(294,616,cs),
(298,619,o),
(301,622,o),
(301,625,cs),
(301,627,o),
(299,628,o),
(293,629,cs),
(281,631,o),
(270,632,o),
(260,632,cs),
(232,632,o),
(214,623,o),
(195,604,cs),
(172,579,o),
(140,549,o),
(83,500,cs),
(80,497,o),
(78,493,o),
(78,489,cs),
(78,483,o),
(81,478,o),
(85,478,cs),
(86,478,o),
(88,479,o),
(89,480,cs),
(116,503,o),
(136,521,o),
(157,537,c),
(125,475,o),
(92,395,o),
(85,362,cs),
(84,357,o),
(84,353,o),
(84,350,cs),
(84,318,o),
(113,319,o),
(143,319,c)
);
},
{
closed = 1;
nodes = (
(441,149,o),
(510,207,o),
(551,244,c),
(534,216,o),
(511,172,o),
(492,133,c),
(429,133,l)
);
},
{
closed = 1;
nodes = (
(520,27,o),
(531,59,o),
(547,96,c),
(568,98,o),
(586,100,o),
(594,102,cs),
(602,103,o),
(615,118,o),
(615,127,cs),
(615,131,o),
(612,133,o),
(606,133,cs),
(563,133,l),
(599,209,o),
(644,288,o),
(666,303,cs),
(670,306,o),
(674,308,o),
(674,311,cs),
(674,313,o),
(671,314,o),
(666,315,cs),
(655,317,o),
(644,318,o),
(635,318,cs),
(602,318,o),
(579,307,o),
(559,287,cs),
(548,276,o),
(425,164,o),
(385,132,cs),
(382,130,o),
(381,126,o),
(379,122,cs),
(376,117,o),
(374,112,o),
(374,106,cs),
(374,100,o),
(377,95,o),
(383,91,cs),
(386,89,o),
(396,87,o),
(421,87,cs),
(434,87,o),
(451,88,o),
(472,89,c),
(464,71,o),
(458,55,o),
(457,46,cs),
(456,41,o),
(455,37,o),
(455,33,cs),
(455,2,o),
(485,3,o),
(515,3,c)
);
}
);
width = 699;
}
);
note = onequarter;
unicode = 188;
}
{
color = 4;
glyphname = onehalf;
lastChange = "2022-10-06 19:57:03 +0000";
layers = (
{
background = {
shapes = (
{
closed = 1;
nodes = (
(105,-49,l),
(621,692,l),
(553,692,l),
(38,-49,l)
);
},
{
closed = 1;
nodes = (
(565,-11,o),
(569,-10,o),
(570,-5,c),
(573,2,o),
(574,9,o),
(574,15,cs),
(574,40,o),
(551,51,o),
(520,51,cs),
(498,51,o),
(459,45,o),
(437,36,c),
(490,70,o),
(636,163,o),
(636,252,cs),
(636,279,o),
(620,300,o),
(577,300,cs),
(536,300,o),
(503,278,o),
(475,249,cs),
(463,237,o),
(459,226,o),
(459,217,cs),
(459,207,o),
(464,201,o),
(472,201,cs),
(488,201,o),
(488,212,o),
(505,238,cs),
(514,253,o),
(536,267,o),
(550,267,cs),
(559,267,o),
(566,262,o),
(566,248,cs),
(566,179,o),
(468,90,o),
(408,47,cs),
(397,38,o),
(387,18,o),
(387,6,cs),
(387,0,o),
(390,-4,o),
(395,-4,cs),
(516,-4,ls),
(542,-4,o),
(560,-4,o),
(563,-8,cs)
);
},
{
closed = 1;
nodes = (
(160,399,o),
(257,592,o),
(294,616,cs),
(298,619,o),
(301,622,o),
(301,625,cs),
(301,627,o),
(299,628,o),
(293,629,cs),
(281,631,o),
(270,632,o),
(260,632,cs),
(232,632,o),
(214,623,o),
(195,604,cs),
(172,579,o),
(140,549,o),
(83,500,cs),
(80,497,o),
(78,493,o),
(78,489,cs),
(78,483,o),
(81,478,o),
(85,478,cs),
(86,478,o),
(88,479,o),
(89,480,cs),
(116,503,o),
(136,521,o),
(157,537,c),
(125,475,o),
(92,395,o),
(85,362,cs),
(84,357,o),
(84,353,o),
(84,350,cs),
(84,318,o),
(113,319,o),
(143,319,c)
);
}
);
};
layerId = "C623C401-2266-4A98-B253-3D45160C29C7";
shapes = (
{
alignment = -1;
pos = (48,0);
ref = onesuperior;
},
{
alignment = -1;
pos = (-64,0);
ref = fraction;
},
{
pos = (319,-331);
ref = twosuperior;
}
);
width = 722;
}
);
note = onehalf;
unicode = 189;
}
